<svg width="226" height="61" viewBox="0 0 226 61" fill="none" xmlns="http://www.w3.org/2000/svg">
<path d="M47.2833 38.9937V42.1084C47.2833 42.434 47.11 42.7343 46.8286 42.896L26.7233 54.5034C26.4419 54.6662 26.0953 54.6662 25.8128 54.5034L5.7076 42.896C5.42616 42.7333 5.25288 42.4329 5.25288 42.1084V18.8926C5.25288 18.5671 5.42616 18.2667 5.7076 18.105L12.2228 14.3433C12.6271 14.1102 13.1333 14.4022 13.1333 14.8684V37.5581C13.1333 37.8836 13.3065 38.184 13.588 38.3457L25.8128 45.4038C26.0943 45.5666 26.4408 45.5666 26.7233 45.4038L38.9482 38.3457C39.2296 38.1829 39.4029 37.8826 39.4029 37.5581V23.4419C39.4029 23.1163 39.2296 22.816 38.9482 22.6543L26.7233 15.5962C26.4419 15.4334 26.0953 15.4334 25.8128 15.5962L19.2966 19.3578C18.8923 19.591 18.3861 19.299 18.3861 18.8328V11.3094C18.3861 10.9839 18.5594 10.6835 18.8409 10.5218L25.8118 6.49762C26.0932 6.33485 26.4398 6.33485 26.7223 6.49762L46.8275 18.105C47.109 18.2678 47.2822 18.5681 47.2822 18.8926V22.0074C47.2822 22.5104 47.6897 22.9179 48.1927 22.9179H51.6267C52.1298 22.9179 52.5372 22.5104 52.5372 22.0074V15.8598C52.5372 15.5342 52.364 15.2339 52.0825 15.0722L26.7233 0.42982C26.4419 0.267046 26.0953 0.267046 25.8128 0.42982L0.454718 15.0711C0.173276 15.2339 0 15.5342 0 15.8587V45.1413C0 45.4668 0.173276 45.7672 0.454718 45.9289L25.8139 60.5702C26.0953 60.733 26.4419 60.733 26.7244 60.5702L52.0836 45.9289C52.365 45.7661 52.5383 45.4658 52.5383 45.1413V38.9937C52.5383 38.4906 52.1308 38.0832 51.6278 38.0832H48.1938C47.6908 38.0832 47.2833 38.4906 47.2833 38.9937ZM18.843 25.6871L25.8139 21.6629C26.0953 21.5002 26.4419 21.5002 26.7244 21.6629L33.6953 25.6871C33.9768 25.8499 34.15 26.1503 34.15 26.4748V34.5242C34.15 34.8497 33.9768 35.1501 33.6953 35.3118L26.7244 39.336C26.4429 39.4988 26.0964 39.4988 25.8139 39.336L18.843 35.3118C18.5615 35.149 18.3882 34.8487 18.3882 34.5242V26.4748C18.3882 26.1492 18.5615 25.8489 18.843 25.6871Z" fill="white"/>
<path d="M51.6267 27.8736H48.1938C47.6909 27.8736 47.2833 28.2812 47.2833 28.7841V32.217C47.2833 32.7199 47.6909 33.1275 48.1938 33.1275H51.6267C52.1296 33.1275 52.5372 32.7199 52.5372 32.217V28.7841C52.5372 28.2812 52.1296 27.8736 51.6267 27.8736Z" fill="white"/>
<path d="M66.037 15.404H69.1255C69.3335 15.404 69.5025 15.5731 69.5025 15.781V26.062C71.2059 24.7546 73.2274 23.5658 76.714 23.5658C81.4292 23.5658 83.8067 26.6564 83.8067 34.2638C83.8067 41.8711 79.8046 45.596 74.7334 45.596C70.328 45.596 66.8635 44.5679 65.9173 44.257C65.7629 44.2066 65.66 44.0617 65.66 43.8989V15.781C65.66 15.5731 65.8291 15.404 66.037 15.404ZM69.5025 41.2966C69.5025 41.6379 69.7304 41.9362 70.0602 42.0255C70.8835 42.2481 72.1983 42.5453 74.4561 42.5453C77.9426 42.5453 79.8056 39.8107 79.8056 34.2648C79.8056 29.0739 78.6567 26.7761 75.3288 26.7761C72.8 26.7761 70.5548 28.3797 69.7861 28.9951C69.6065 29.139 69.5036 29.3543 69.5036 29.5843V41.2966H69.5025Z" fill="white"/>
<path d="M100.842 42.4267C98.4646 44.0114 95.2953 45.5961 92.1248 45.5961C88.2025 45.5961 87.0925 43.3771 87.0925 36.403V24.3388C87.0925 24.1309 87.2616 23.9618 87.4695 23.9618H90.5979C90.8058 23.9618 90.9749 24.1309 90.9749 24.3388V35.7687C90.9749 40.9596 91.5294 42.1484 93.5898 42.1484C95.6502 42.1484 97.9942 41.0899 100.465 39.5272C100.574 39.4579 100.643 39.3361 100.643 39.2059V24.3399C100.643 24.1319 100.812 23.9629 101.02 23.9629H104.108C104.316 23.9629 104.485 24.1319 104.485 24.3399V44.8221C104.485 45.03 104.316 45.1991 104.108 45.1991H101.599C101.413 45.1991 101.255 45.0637 101.227 44.8799L100.841 42.4257L100.842 42.4267Z" fill="white"/>
<path d="M109.794 23.9628H112.882C113.09 23.9628 113.259 24.1319 113.259 24.3398V44.8221C113.259 45.03 113.09 45.1991 112.882 45.1991H109.794C109.586 45.1991 109.417 45.03 109.417 44.8221V24.3398C109.417 24.1319 109.586 23.9628 109.794 23.9628Z" fill="white"/>
<path d="M118.569 15.4041H121.657C121.865 15.4041 122.034 15.5731 122.034 15.7811V44.8221C122.034 45.03 121.865 45.1991 121.657 45.1991H118.569C118.361 45.1991 118.192 45.03 118.192 44.8221V15.7811C118.192 15.5731 118.361 15.4041 118.569 15.4041Z" fill="white"/>
<path d="M157.733 44.1027C157.756 44.2833 157.647 44.4535 157.474 44.5102C156.588 44.7979 153.802 45.5971 150.164 45.5971C144.736 45.5971 141.249 42.8236 141.249 34.6618C141.249 26.5 144.815 23.2109 150.322 23.2109C153.772 23.2109 156.435 23.8935 157.308 24.1476C157.486 24.1991 157.598 24.3713 157.577 24.5541L157.185 27.8515C157.16 28.0637 156.966 28.2139 156.754 28.1802C155.742 28.0206 152.944 27.609 150.838 27.609C148.46 27.609 146.599 29.1936 146.599 34.2659C146.599 39.3382 148.46 41.3188 150.838 41.3188C152.807 41.3188 155.855 40.8976 156.916 40.7422C157.125 40.7118 157.319 40.8577 157.345 41.0678L157.732 44.1048L157.733 44.1027Z" fill="white"/>
<path d="M171.322 45.5961C165.3 45.5961 161.06 42.5453 161.06 34.581C161.06 26.6166 165.3 23.2099 171.481 23.2099C177.662 23.2099 181.664 26.4591 181.664 34.6608C181.664 42.8625 177.385 45.5961 171.322 45.5961ZM171.401 41.6338C174.729 41.6338 176.314 39.2962 176.314 34.2649C176.314 30.0642 174.966 27.2908 171.401 27.2908C167.836 27.2908 166.449 30.0254 166.449 34.2649C166.449 39.376 168.073 41.6338 171.401 41.6338Z" fill="white"/>
<path d="M199.972 44.9218L199.374 42.7428C198.7 43.6144 196.798 45.5961 193.43 45.5961C189.508 45.5961 184.951 42.8226 184.951 35.1354C184.951 26.4979 189.548 23.2088 194.303 23.2088C196.719 23.2088 198.384 23.526 198.938 23.7234V15.7811C198.938 15.5731 199.107 15.4041 199.315 15.4041H203.79C203.998 15.4041 204.167 15.5731 204.167 15.7811V44.8221C204.167 45.03 203.998 45.1991 203.79 45.1991H200.335C200.165 45.1991 200.016 45.0857 199.971 44.9218H199.972ZM198.938 39.1817V28.4911C198.938 28.1498 198.711 27.8505 198.382 27.7623C197.679 27.5743 196.422 27.2897 195.253 27.2897C192.361 27.2897 190.341 29.5087 190.341 34.184C190.341 39.4537 192.044 41.3954 194.739 41.3954C196.429 41.3954 198.025 40.2739 198.656 39.7719C198.835 39.628 198.939 39.4127 198.939 39.1817H198.938Z" fill="white"/>
<path d="M207.456 34.6608C207.456 27.0933 210.745 23.2099 217.045 23.2099C223.345 23.2099 226 26.6575 226 32.0858C226 33.4058 225.935 34.813 225.901 35.4547C225.891 35.6553 225.725 35.8107 225.524 35.8107H213.188C212.978 35.8107 212.806 35.984 212.81 36.1951C212.873 39.3812 213.758 41.3975 216.769 41.3975C219.249 41.3975 223.084 40.9565 224.283 40.8105C224.49 40.7853 224.675 40.9323 224.701 41.1392L225.049 43.9599C225.073 44.1489 224.953 44.3264 224.768 44.3716C223.613 44.6583 219.578 45.5971 216.254 45.5971C211.103 45.5971 207.458 42.705 207.458 34.6618L207.456 34.6608ZM220.428 32.1246C220.638 32.1246 220.81 31.9524 220.806 31.7424C220.723 28.1603 219.453 27.0135 216.888 27.0135C214.322 27.0135 212.94 28.1246 212.851 31.7424C212.846 31.9524 213.018 32.1257 213.229 32.1257H220.429L220.428 32.1246Z" fill="white"/>
<path d="M111.338 19.9617C112.597 19.9617 113.617 18.9415 113.617 17.6829C113.617 16.4243 112.597 15.4041 111.338 15.4041C110.08 15.4041 109.06 16.4243 109.06 17.6829C109.06 18.9415 110.08 19.9617 111.338 19.9617Z" fill="white"/>
<path d="M137.726 42.6C137.704 42.3952 137.523 42.2461 137.317 42.265C136.712 42.3227 135.446 42.4256 134.159 42.4256C132.654 42.4256 132.099 41.5939 132.099 39.0966V26.9726H137.466C137.674 26.9726 137.843 26.8035 137.843 26.5956V24.3388C137.843 24.1309 137.674 23.9618 137.466 23.9618H132.099V19.6635C132.099 19.4556 131.93 19.2865 131.722 19.2865H128.594C128.386 19.2865 128.217 19.4556 128.217 19.6635V23.9397L128.231 23.9618L125.643 24.3682C125.459 24.3966 125.323 24.5551 125.323 24.741V26.5956C125.323 26.8035 125.493 26.9726 125.7 26.9726H128.216V37.6306C128.216 43.2973 128.691 45.595 132.296 45.595C134.755 45.595 136.888 45.0689 137.658 44.8536C137.835 44.8042 137.948 44.6331 137.928 44.4493L137.726 42.6Z" fill="white"/>
</svg>
