<svg width="222" height="68" viewBox="0 0 222 68" fill="none" xmlns="http://www.w3.org/2000/svg">
<g clip-path="url(#clip0_1_103)">
<path d="M155.82 64.5611C154.437 64.5611 153.417 64.1814 152.76 63.4221C152.103 62.6628 151.774 61.4841 151.774 59.8861C151.774 58.2881 152.103 57.1094 152.76 56.3501C153.429 55.5908 154.449 55.2111 155.82 55.2111C157.033 55.2111 157.939 55.5114 158.54 56.1121C159.152 56.7014 159.458 57.5798 159.458 58.7471H157.69C157.69 58.0218 157.543 57.4891 157.248 57.1491C156.965 56.8091 156.483 56.6391 155.803 56.6391C155.032 56.6391 154.466 56.8941 154.103 57.4041C153.752 57.9141 153.576 58.7301 153.576 59.8521V59.9711C153.576 61.0818 153.752 61.8864 154.103 62.3851C154.466 62.8838 155.044 63.1331 155.837 63.1331C156.506 63.1331 156.993 62.9574 157.299 62.6061C157.616 62.2434 157.775 61.7164 157.775 61.0251H159.458C159.458 62.0904 159.152 62.9461 158.54 63.5921C157.928 64.2381 157.021 64.5611 155.82 64.5611ZM161.1 52.0661H162.851V56.4351H162.97C163.605 55.6191 164.529 55.2111 165.741 55.2111C167.634 55.2111 168.58 56.2368 168.58 58.2881V64.3571H166.829V58.5091C166.829 57.8404 166.676 57.3758 166.37 57.1151C166.076 56.8431 165.639 56.7071 165.061 56.7071C164.665 56.7071 164.296 56.8091 163.956 57.0131C163.616 57.2058 163.344 57.4834 163.14 57.8461C162.948 58.2088 162.851 58.6281 162.851 59.1041V64.3571H161.1V52.0661ZM174.602 64.5611C173.162 64.5611 172.091 64.1814 171.389 63.4221C170.686 62.6628 170.335 61.4841 170.335 59.8861C170.335 58.2881 170.686 57.1094 171.389 56.3501C172.091 55.5908 173.162 55.2111 174.602 55.2111C175.905 55.2111 176.88 55.5681 177.526 56.2821C178.172 56.9848 178.495 58.1068 178.495 59.6481V60.3281H172.137C172.182 61.2914 172.397 62.0054 172.783 62.4701C173.179 62.9234 173.791 63.1501 174.619 63.1501C175.265 63.1501 175.786 62.9971 176.183 62.6911C176.579 62.3851 176.778 61.9148 176.778 61.2801H178.495C178.495 62.3454 178.132 63.1614 177.407 63.7281C176.693 64.2834 175.758 64.5611 174.602 64.5611ZM176.676 59.0021C176.676 57.4154 175.984 56.6221 174.602 56.6221C173.831 56.6221 173.253 56.8148 172.868 57.2001C172.482 57.5741 172.25 58.1748 172.171 59.0021H176.676ZM183.793 64.5611C182.41 64.5611 181.39 64.1814 180.733 63.4221C180.076 62.6628 179.747 61.4841 179.747 59.8861C179.747 58.2881 180.076 57.1094 180.733 56.3501C181.402 55.5908 182.422 55.2111 183.793 55.2111C185.006 55.2111 185.912 55.5114 186.513 56.1121C187.125 56.7014 187.431 57.5798 187.431 58.7471H185.663C185.663 58.0218 185.516 57.4891 185.221 57.1491C184.938 56.8091 184.456 56.6391 183.776 56.6391C183.005 56.6391 182.439 56.8941 182.076 57.4041C181.725 57.9141 181.549 58.7301 181.549 59.8521V59.9711C181.549 61.0818 181.725 61.8864 182.076 62.3851C182.439 62.8838 183.017 63.1331 183.81 63.1331C184.479 63.1331 184.966 62.9574 185.272 62.6061C185.589 62.2434 185.748 61.7164 185.748 61.0251H187.431C187.431 62.0904 187.125 62.9461 186.513 63.5921C185.901 64.2381 184.994 64.5611 183.793 64.5611ZM189.074 52.0661H190.825V59.5461L194.361 55.4151H196.469L193.426 58.9001L196.639 64.3571H194.616L192.321 60.1751L190.825 61.6031V64.3571H189.074V52.0661ZM201.562 64.5611C200.145 64.5611 199.08 64.1814 198.366 63.4221C197.663 62.6514 197.312 61.4728 197.312 59.8861C197.312 58.2994 197.663 57.1264 198.366 56.3671C199.08 55.5964 200.145 55.2111 201.562 55.2111C202.979 55.2111 204.044 55.5964 204.758 56.3671C205.472 57.1264 205.829 58.2994 205.829 59.8861C205.829 61.4728 205.472 62.6514 204.758 63.4221C204.044 64.1814 202.979 64.5611 201.562 64.5611ZM201.562 63.1161C202.423 63.1161 203.047 62.8668 203.432 62.3681C203.829 61.8581 204.027 61.0591 204.027 59.9711V59.8011C204.027 58.7131 203.829 57.9198 203.432 57.4211C203.047 56.9111 202.423 56.6561 201.562 56.6561C200.712 56.6561 200.089 56.9111 199.692 57.4211C199.307 57.9198 199.114 58.7131 199.114 59.8011V59.9711C199.114 61.0591 199.307 61.8581 199.692 62.3681C200.089 62.8668 200.712 63.1161 201.562 63.1161ZM210.389 64.5611C208.497 64.5611 207.55 63.5354 207.55 61.4841V55.4151H209.301V61.2631C209.301 61.9318 209.449 62.4021 209.743 62.6741C210.049 62.9348 210.491 63.0651 211.069 63.0651C211.466 63.0651 211.834 62.9688 212.174 62.7761C212.514 62.5721 212.781 62.2888 212.973 61.9261C213.177 61.5634 213.279 61.1441 213.279 60.6681V55.4151H215.03V64.3571H213.619L213.449 63.1671H213.33C213.002 63.6204 212.588 63.9661 212.089 64.2041C211.591 64.4421 211.024 64.5611 210.389 64.5611ZM219.489 64.5441C218.809 64.5441 218.316 64.3514 218.01 63.9661C217.704 63.5694 217.551 63.0821 217.551 62.5041V56.8601H216.463V55.4151H217.568L217.908 52.9161H219.302V55.4151H220.815V56.8601H219.302V62.3341C219.302 62.8554 219.544 63.1161 220.033 63.1161H220.815V64.3061C220.666 64.3741 220.462 64.4308 220.203 64.4761C219.952 64.5214 219.714 64.5441 219.489 64.5441Z" fill="white"/>
<path d="M94.8214 12.2258C93.1977 11.2591 91.3462 10.7473 89.3806 10.7473C88.0133 10.7473 86.703 11.0032 85.4781 11.4581C84.2532 11.9415 83.1707 12.5954 82.2022 13.4483V10.7189H78.499V32.3842H82.2022V21.5799C82.2022 20.272 82.5155 19.0495 83.1422 17.9691C83.7974 16.8887 84.652 16.0357 85.7345 15.3817C86.8169 14.7278 88.0418 14.4434 89.3522 14.4434C90.6625 14.4434 91.8874 14.7562 92.9414 15.3817C94.0238 16.0357 94.8784 16.8887 95.5335 17.9406C96.1602 19.0211 96.4736 20.2152 96.5021 21.5231V32.3842H100.205V21.5799C100.205 19.5897 99.721 17.7701 98.7239 16.1494C97.7554 14.5288 96.4451 13.1925 94.8214 12.2258Z" fill="white"/>
<path d="M108.723 15.3817C109.805 14.7278 111.03 14.4434 112.34 14.4434C113.223 14.4434 114.078 14.5856 114.876 14.8984C115.673 15.2111 116.385 15.6377 117.012 16.1778L119.69 13.6474C118.721 12.7376 117.582 12.0267 116.357 11.5434C115.103 11.0316 113.765 10.7758 112.34 10.7758C110.346 10.7758 108.523 11.2875 106.899 12.2542C105.247 13.2209 103.937 14.5572 102.968 16.1778C101.971 17.8269 101.487 19.6465 101.487 21.6083C101.487 23.5987 101.971 25.4183 102.968 27.0389C103.937 28.688 105.247 29.9959 106.899 30.991C108.523 31.9577 110.375 32.441 112.34 32.441C113.708 32.441 115.018 32.2135 116.243 31.7301C117.439 31.2753 118.55 30.593 119.519 29.7399L116.984 27.0674C116.357 27.5791 115.673 28.0056 114.876 28.3184C114.106 28.6026 113.252 28.7732 112.369 28.7732C111.058 28.7732 109.834 28.4321 108.751 27.8065C107.669 27.1526 106.814 26.2997 106.159 25.2193C105.504 24.1389 105.219 22.9162 105.219 21.6083C105.219 20.3006 105.532 19.0779 106.159 17.9975C106.757 16.9171 107.612 16.0356 108.723 15.3817Z" fill="white"/>
<path d="M131.796 10.7473C130.429 10.7473 129.118 11.0032 127.894 11.4581C126.669 11.9415 125.587 12.5954 124.618 13.4483V10.7189H120.914V32.3842H124.618V21.5799C124.618 20.272 124.931 19.0495 125.557 17.9691C126.213 16.8887 127.067 16.0357 128.15 15.3817C129.232 14.7278 130.457 14.4434 131.767 14.4434V10.7473H131.796Z" fill="white"/>
<path d="M77.2457 10.7473H66.3925V14.4434H73.571V32.4126H77.2457" fill="white"/>
<path d="M150.283 15.1543C149.258 13.7895 148.033 12.7375 146.523 11.9414C145.013 11.1453 143.361 10.7473 141.595 10.7473C139.8 10.7473 138.176 11.1453 136.667 11.9414C135.158 12.7091 133.875 13.7895 132.878 15.1543C131.881 16.4906 131.226 18.0259 130.912 19.7318C130.827 20.3858 130.77 21.0113 130.77 21.5799C130.798 22.2622 130.855 22.8594 130.912 23.4279C131.226 25.1623 131.881 26.6976 132.906 28.034C133.932 29.3703 135.158 30.4508 136.667 31.2468C138.176 32.0429 139.829 32.441 141.595 32.441C143.019 32.441 144.358 32.1851 145.611 31.6733C146.865 31.1615 147.976 30.4508 148.945 29.5693L146.665 26.6692C146.011 27.3232 145.241 27.8349 144.386 28.233C143.503 28.6026 142.564 28.8016 141.567 28.8016C139.886 28.8016 138.433 28.2898 137.179 27.2947C135.926 26.2996 135.071 25.0486 134.644 23.4565H152.277C152.363 22.8593 152.42 22.2622 152.42 21.6083C152.391 20.9544 152.334 20.3288 152.277 19.7602C151.963 18.0259 151.309 16.4906 150.283 15.1543ZM134.644 19.7318C135.071 18.168 135.898 16.8886 137.179 15.8935C138.433 14.8983 139.914 14.415 141.567 14.415C143.247 14.415 144.699 14.8983 145.954 15.8935C147.207 16.8886 148.062 18.168 148.488 19.7318H134.644Z" fill="white"/>
<path d="M169.995 12.2258C168.372 11.259 166.52 10.7473 164.554 10.7473C162.56 10.7473 160.738 11.259 159.114 12.2258C157.462 13.1925 156.151 14.5288 155.182 16.1494C154.185 17.7984 153.701 19.6181 153.701 21.5799C153.701 23.5701 154.185 25.3899 155.182 27.0104C156.151 28.6594 157.462 29.9674 159.114 30.9625C160.738 31.9291 162.59 32.4126 164.554 32.4126C165.922 32.4126 167.232 32.1851 168.457 31.7017C169.653 31.2468 170.764 30.5644 171.733 29.7115V32.441H175.437V21.5799C175.408 19.5613 174.923 17.7416 173.926 16.121C172.929 14.5004 171.619 13.1925 169.995 12.2258ZM170.736 25.1907C170.08 26.2712 169.227 27.1242 168.144 27.7781C167.062 28.432 165.837 28.7448 164.526 28.7448C163.216 28.7448 161.991 28.4036 160.909 27.7781C159.826 27.1242 158.971 26.2712 158.316 25.1907C157.661 24.1104 157.377 22.8878 157.377 21.5799C157.377 20.272 157.69 19.0495 158.316 17.969C158.971 16.8886 159.826 16.0356 160.909 15.3817C161.991 14.7277 163.216 14.4434 164.526 14.4434C165.837 14.4434 167.062 14.7562 168.144 15.3817C169.227 16.0356 170.08 16.8886 170.736 17.969C171.391 19.0495 171.676 20.272 171.676 21.5799C171.704 22.9162 171.391 24.1104 170.736 25.1907Z" fill="white"/>
<path d="M176.661 14.4434H193.04L176.661 28.7448V32.4126H198.367V28.7448H181.931L198.367 14.4434V10.7473H176.661V14.4434Z" fill="white"/>
<path d="M217.85 10.7473V21.6653C217.821 23.0016 217.508 24.1957 216.854 25.2761C216.198 26.3565 215.343 27.2095 214.261 27.8351C213.179 28.489 211.954 28.8018 210.644 28.8018C209.304 28.8018 208.108 28.4605 206.997 27.8351C205.915 27.181 205.06 26.3281 204.405 25.2761C203.75 24.1957 203.465 22.9731 203.437 21.6367V10.7189H199.733V21.6083C199.733 23.5987 200.218 25.4183 201.215 27.0674C202.212 28.7164 203.522 30.0243 205.175 31.0194C206.826 32.0145 208.65 32.4979 210.672 32.4979C212.039 32.4979 213.349 32.2704 214.546 31.7871C215.77 31.3037 216.854 30.6498 217.821 29.7969C217.679 31.0194 217.281 32.0999 216.625 33.0666C215.971 34.0047 215.116 34.8008 214.09 35.3695C213.065 35.9381 211.925 36.1941 210.672 36.1941V39.8902C212.665 39.8902 214.489 39.3784 216.141 38.4117C217.793 37.445 219.104 36.1087 220.073 34.4881C221.04 32.8675 221.553 31.0478 221.582 29.0292V10.6904H217.85V10.7473Z" fill="white"/>
<path d="M75.3943 3.38339C74.3689 3.38339 73.5428 4.20792 73.5428 5.23147C73.5428 6.25503 74.3689 7.07956 75.3943 7.07956C76.4198 7.07956 77.2459 6.25503 77.2459 5.23147C77.2459 4.23636 76.4198 3.38339 75.3943 3.38339Z" fill="white"/>
<path d="M43.8555 12.8525C43.8555 10.5208 43.2573 8.38816 42.1181 6.42618C40.9787 4.46419 39.4121 2.92871 37.4754 1.79133C35.5386 0.65394 33.4024 0.0568692 31.0098 0L13.4931 0.0283929C11.1575 0.0283929 8.99281 0.625548 7.02752 1.76294C5.06222 2.90032 3.52416 4.46424 2.38485 6.39779C1.24555 8.33134 0.647419 10.4639 0.590454 12.8525V30.3397C0.590454 32.6713 1.1886 34.8039 2.3279 36.7659C3.46721 38.7278 5.03374 40.2634 6.97055 41.4007C8.90736 42.5381 11.0436 43.1353 13.4361 43.1921L30.9528 43.1637C33.2884 43.1637 35.4531 42.5665 37.4184 41.4292C39.3837 40.2918 40.9217 38.7279 42.0611 36.7943C43.2003 34.8608 43.7985 32.7283 43.8555 30.3397V12.8525ZM33.0891 32.4155H29.3863V14.4448H11.3853V10.7482H33.0891V32.4155Z" fill="white"/>
</g>
<defs>
<clipPath id="clip0_1_103">
<rect width="221" height="68" fill="white" transform="translate(0.590454)"/>
</clipPath>
</defs>
</svg>
