<svg width="224" height="67" viewBox="0 0 224 67" fill="none" xmlns="http://www.w3.org/2000/svg">
<g clip-path="url(#clip0_1_72)">
<path d="M6.94538 67C5.10335 67 3.3367 66.2678 2.0342 64.9645C0.731689 63.6612 -6.10352e-05 61.8936 -6.10352e-05 60.0504V6.9496C0.0278326 5.12508 0.771771 3.38473 2.07109 2.10435C3.37041 0.823973 5.12086 0.106293 6.94448 0.106293C8.76811 0.106293 10.5187 0.823973 11.818 2.10435C13.1173 3.38473 13.8611 5.12508 13.889 6.9496V60.0504C13.889 61.8933 13.1575 63.6607 11.8554 64.9639C10.5532 66.2672 8.78712 66.9996 6.94538 67Z" fill="white"/>
<path d="M60.0138 67C58.1718 67 56.4053 66.2678 55.1028 64.9645C53.8003 63.6612 53.0685 61.8936 53.0685 60.0504V6.94959C53.0544 6.02812 53.2236 5.11304 53.5663 4.25762C53.909 3.4022 54.4182 2.62354 55.0645 1.96692C55.7107 1.3103 56.4811 0.788852 57.3306 0.432926C58.1802 0.0769992 59.092 -0.106293 60.013 -0.106293C60.9341 -0.106293 61.8459 0.0769992 62.6955 0.432926C63.545 0.788852 64.3154 1.3103 64.9616 1.96692C65.6079 2.62354 66.1171 3.4022 66.4598 4.25762C66.8025 5.11304 66.9717 6.02812 66.9576 6.94959V60.0504C66.9576 61.8933 66.2261 63.6607 64.9239 64.9639C63.6218 66.2672 61.8556 66.9996 60.0138 67Z" fill="white"/>
<path d="M6.94373 67C5.56881 67.0012 4.22447 66.594 3.08102 65.83C1.93757 65.0661 1.04639 63.9797 0.520493 62.7086C-0.00540411 61.4375 -0.142393 60.0387 0.126833 58.6896C0.396059 57.3405 1.0594 56.1016 2.03285 55.1301L28.5663 28.5789C29.8735 27.2987 31.6326 26.5862 33.4617 26.596C35.2907 26.6058 37.0421 27.3372 38.3355 28.6314C39.6288 29.9255 40.3598 31.678 40.3696 33.5081C40.3794 35.3383 39.6673 37.0985 38.3879 38.4065L11.8545 64.9642C11.2104 65.6106 10.4449 66.1232 9.60215 66.4725C8.75938 66.8219 7.85596 67.0012 6.94373 67Z" fill="white"/>
<path d="M33.4804 40.4488C32.1055 40.45 30.7611 40.0428 29.6177 39.2788C28.4742 38.5149 27.5831 37.4285 27.0572 36.1574C26.5313 34.8862 26.3943 33.4875 26.6636 32.1384C26.9328 30.7892 27.5961 29.5504 28.5696 28.5789L55.1046 2.04228C55.747 1.38557 56.5131 0.86285 57.3586 0.504368C58.2042 0.145885 59.1125 -0.0412286 60.0308 -0.0461644C60.9492 -0.0511001 61.8594 0.126239 62.7088 0.475612C63.5582 0.824984 64.3299 1.33944 64.9793 1.98921C65.6287 2.63898 66.1428 3.41117 66.492 4.26108C66.8411 5.11099 67.0184 6.02175 67.0135 6.94065C67.0085 7.85955 66.8215 8.76835 66.4632 9.61446C66.1049 10.4606 65.5826 11.2272 64.9263 11.8699L38.3913 38.4211C37.7465 39.0661 36.9808 39.5772 36.138 39.9252C35.2952 40.2732 34.392 40.4511 33.4804 40.4488Z" fill="white"/>
<path d="M60.0123 67C59.1 67.0012 58.1965 66.8219 57.3537 66.4725C56.511 66.1232 55.7455 65.6106 55.1014 64.9642L2.03295 11.8634C1.35866 11.2249 0.819152 10.4576 0.446308 9.60685C0.0734633 8.75612 -0.125153 7.83924 -0.137785 6.91039C-0.150417 5.98154 0.0232417 5.05958 0.372813 4.19902C0.722384 3.33845 1.24079 2.55674 1.89746 1.9001C2.55414 1.24346 3.33567 0.725196 4.19595 0.375982C5.05622 0.0267676 5.97777 -0.146321 6.90604 -0.133066C7.83432 -0.119811 8.7505 0.079534 9.60047 0.453169C10.4504 0.826804 11.2169 1.36714 11.8546 2.04227L64.923 55.1431C65.8965 56.1146 66.5598 57.3535 66.8291 58.7026C67.0983 60.0517 66.9613 61.4504 66.4354 62.7216C65.9095 63.9927 65.0184 65.0791 63.875 65.843C62.7315 66.607 61.3872 67.0142 60.0123 67.013V67Z" fill="white"/>
<path d="M112.444 19.6277V47.0455H107.244L93.582 30.3984V47.0455H87.3192V19.6277H92.5647L106.187 36.2732V19.6277H112.444Z" fill="white"/>
<path d="M137.651 38.2374H121.726C121.98 39.4912 122.709 40.5981 123.76 41.3268C124.938 42.1173 126.336 42.5156 127.753 42.465C128.746 42.4832 129.735 42.3178 130.668 41.9772C131.554 41.6263 132.36 41.0998 133.038 40.4293L136.288 43.9545C135.181 45.1308 133.829 46.0472 132.326 46.6376C130.824 47.2281 129.209 47.4779 127.599 47.3691C125.417 47.4129 123.257 46.9364 121.297 45.9788C119.549 45.1235 118.083 43.7851 117.072 42.1219C116.067 40.4286 115.552 38.4893 115.585 36.5203C115.556 34.5612 116.062 32.6312 117.047 30.9382C118.008 29.2983 119.403 27.9565 121.079 27.0618C122.829 26.1582 124.769 25.6819 126.738 25.6717C128.708 25.6615 130.652 26.1178 132.412 27.0032C134.062 27.8728 135.428 29.1986 136.346 30.8228C137.325 32.5879 137.818 34.5817 137.775 36.6C137.77 36.6737 137.729 37.2195 137.651 38.2374ZM123.364 31.4618C122.406 32.2774 121.791 33.424 121.641 34.6732H132.014C131.854 33.4325 131.241 32.2952 130.291 31.4813C129.327 30.6757 128.102 30.2507 126.846 30.2862C125.582 30.2463 124.346 30.6637 123.364 31.4618Z" fill="white"/>
<path d="M153.269 47.052L148.649 40.5886L143.875 47.052H137.22L145.323 36.4374L137.493 25.9789H144.343L148.805 32.1285L153.384 25.9789H159.885L152.055 36.2797L160.197 47.0504L153.269 47.052Z" fill="white"/>
<path d="M177.422 27.9951C178.343 28.906 179.055 30.0069 179.508 31.2211C179.961 32.4354 180.144 33.7338 180.045 35.026V47.0585H174.329V44.4342C173.181 46.3919 171.041 47.3712 167.909 47.3723C166.464 47.4071 165.028 47.1264 163.702 46.5496C162.595 46.0686 161.65 45.2782 160.981 44.2732C160.351 43.2933 160.024 42.1489 160.042 40.9837C160.007 40.0916 160.191 39.2044 160.576 38.3991C160.962 37.5939 161.538 36.8948 162.254 36.3626C164.291 35.0874 166.683 34.4972 169.079 34.678H173.933C173.968 34.1079 173.877 33.537 173.667 33.0057C173.458 32.4744 173.134 31.9956 172.719 31.6033C171.678 30.811 170.383 30.4281 169.079 30.5268C167.955 30.5269 166.838 30.7053 165.77 31.0553C164.772 31.3627 163.836 31.8468 163.008 32.4845L160.816 28.2146C162.074 27.3551 163.471 26.7192 164.945 26.335C166.558 25.8897 168.223 25.6654 169.896 25.6683C172.606 25.4842 175.288 26.3134 177.422 27.9951ZM172.222 42.5268C173.031 42.0428 173.642 41.2859 173.944 40.3919V38.2374H169.757C167.252 38.2374 166 39.0601 166 40.7057C165.988 41.0676 166.066 41.4268 166.226 41.7513C166.387 42.0758 166.625 42.3556 166.919 42.5658C167.665 43.0611 168.551 43.3013 169.445 43.2504C170.417 43.2676 171.375 43.0173 172.215 42.5268H172.222Z" fill="white"/>
<path d="M200.203 27.9951C201.125 28.906 201.837 30.0069 202.29 31.2211C202.743 32.4354 202.926 33.7338 202.826 35.026V47.0585H197.111V44.4342C195.962 46.3919 193.822 47.3713 190.69 47.3723C189.245 47.407 187.809 47.1263 186.483 46.5496C185.376 46.0686 184.432 45.2782 183.763 44.2732C183.132 43.2933 182.806 42.1489 182.823 40.9838C182.789 40.0917 182.972 39.2046 183.357 38.3994C183.742 37.5941 184.317 36.895 185.033 36.3626C187.071 35.0875 189.462 34.4973 191.859 34.6781H196.713C196.748 34.1078 196.658 33.5367 196.448 33.0053C196.238 32.4739 195.914 31.9952 195.499 31.6033C194.458 30.8106 193.163 30.4276 191.859 30.5268C190.735 30.5271 189.619 30.7055 188.552 31.0553C187.553 31.3633 186.618 31.8474 185.789 32.4846L183.599 28.2147C184.857 27.3549 186.254 26.719 187.728 26.335C189.341 25.8897 191.006 25.6655 192.679 25.6683C195.389 25.4847 198.07 26.3138 200.203 27.9951ZM195.003 42.5269C195.813 42.0429 196.424 41.286 196.726 40.3919V38.2374H192.536C190.032 38.2374 188.779 39.0602 188.779 40.7057C188.768 41.0676 188.846 41.4267 189.006 41.7512C189.166 42.0757 189.405 42.3556 189.699 42.5659C190.445 43.061 191.331 43.3012 192.224 43.2504C193.197 43.2679 194.156 43.0175 194.996 42.5269H195.003Z" fill="white"/>
<path d="M208.931 46.7187C207.521 46.396 206.173 45.8469 204.938 45.0927L206.973 40.7024C208.033 41.3536 209.183 41.8466 210.386 42.1659C211.658 42.5362 212.975 42.7272 214.3 42.7333C216.884 42.7333 218.176 42.0938 218.176 40.8146C218.169 40.5122 218.061 40.2208 217.87 39.9866C217.678 39.7524 217.415 39.5889 217.12 39.522C216.063 39.1859 214.973 38.963 213.87 38.8569C212.428 38.6564 211.002 38.3554 209.602 37.9561C208.489 37.622 207.484 37.0006 206.687 36.1545C205.809 35.1369 205.366 33.8147 205.454 32.4732C205.436 31.1962 205.842 29.9494 206.609 28.9285C207.48 27.8231 208.647 26.988 209.974 26.5203C211.648 25.9119 213.42 25.6197 215.201 25.6585C216.695 25.6589 218.185 25.8225 219.643 26.1463C220.927 26.4014 222.162 26.8574 223.303 27.4976L221.268 31.8455C219.417 30.8016 217.325 30.2612 215.201 30.2781C214.192 30.2175 213.183 30.4057 212.264 30.826C211.985 30.9454 211.746 31.141 211.574 31.3904C211.401 31.6398 211.303 31.9328 211.289 32.2358C211.286 32.5499 211.388 32.8561 211.58 33.1047C211.772 33.3534 212.042 33.5302 212.347 33.6065C213.444 33.9582 214.571 34.2075 215.714 34.3512C217.139 34.5732 218.55 34.8805 219.939 35.2715C221.036 35.5992 222.023 36.2172 222.797 37.0602C223.655 38.0577 224.09 39.3501 224.011 40.6634C224.026 41.9252 223.612 43.1545 222.836 44.1496C221.941 45.247 220.753 46.0684 219.411 46.5187C217.694 47.1153 215.885 47.4005 214.068 47.361C212.335 47.3652 210.609 47.1494 208.931 46.7187Z" fill="white"/>
</g>
<defs>
<clipPath id="clip0_1_72">
<rect width="224" height="67" fill="white"/>
</clipPath>
</defs>
</svg>
