<svg width="236" height="61" viewBox="0 0 236 61" fill="none" xmlns="http://www.w3.org/2000/svg">
<path d="M51.6475 0.986984H44.2689V8.36555H51.6475V0.986984Z" fill="white"/>
<path d="M7.37856 8.36555H14.7571H22.1357H29.5118H36.8903V0.986984H29.5118H22.1357H14.7571H7.37856H0V8.36555V15.7441V23.1227H7.37856V15.7441V8.36555Z" fill="white"/>
<path d="M51.6474 8.36555V15.7441V23.1227H44.2689H36.8903V30.4988V37.8773V45.2559V52.6344H44.2689V45.2559V37.8773V30.4988H51.6474H59.026V23.1227V15.7441V8.36555H51.6474Z" fill="white"/>
<path d="M22.1357 52.6344V45.2559V37.8773V30.4988V23.1227H14.7571H7.37857V30.4988H14.7571V37.8773V45.2559V52.6344V60.013H22.1357H29.5118H36.8903V52.6344H29.5118H22.1357Z" fill="white"/>
<path d="M44.2689 8.36555H36.8903V15.7441H44.2689V8.36555Z" fill="white"/>
<path d="M74.2811 21.9061C74.0036 21.9061 73.6344 21.5369 73.6344 21.2594V17.2852C73.6344 17.0077 74.0036 16.6385 74.2811 16.6385H100.525C100.802 16.6385 101.171 17.0077 101.171 17.2852V21.2594C101.171 21.5369 100.802 21.9061 100.525 21.9061H90.5447V43.8064C90.5447 44.0839 90.2672 44.3614 89.9897 44.3614H84.8138C84.5363 44.3614 84.2588 44.0839 84.2588 43.8064V21.9061H74.2786H74.2811Z" fill="white"/>
<path d="M111.754 42.466C109.858 43.8981 107.41 44.8223 104.546 44.8223C99.7418 44.8223 97.4302 42.1414 97.4302 38.9551C97.4302 35.7688 99.6948 33.1796 105.47 33.1796C108.196 33.1796 111.432 33.5042 111.432 33.5042L111.523 33.4571V32.9492C111.523 31.0091 110.277 29.6687 107.272 29.6687C105.054 29.6687 104.13 30.4071 104.083 31.6087V31.7004C104.036 31.9779 103.667 32.1167 103.297 32.1167H98.9539C98.6764 32.1167 98.1685 31.6088 98.1685 31.3312V31.1454C98.1685 27.7262 100.802 24.9537 107.316 24.9537C114.477 24.9537 117.435 28.7421 117.435 33.6405V43.5735C117.435 43.851 116.927 44.3589 116.65 44.3589H113.23C112.908 44.3589 112.631 44.1731 112.445 43.7593L111.89 42.466H111.751H111.754ZM111.523 38.6776V37.2455H105.934C103.899 37.2455 103.347 37.9838 103.347 38.8163C103.347 39.6018 103.994 40.2955 105.564 40.2955C107.782 40.2955 110.23 39.5572 111.526 38.6776H111.523Z" fill="white"/>
<path d="M120.024 43.2985L126.724 34.473L120.393 26.4799C120.116 26.1108 120.069 25.972 120.069 25.8333C120.069 25.5558 120.299 25.417 120.485 25.417H125.983C126.63 25.417 126.816 25.5087 127.138 25.9249L130.834 30.5458H130.926C130.926 30.5458 131.204 30.0379 131.897 29.1137L134.301 25.9249C134.623 25.5087 134.809 25.417 135.455 25.417H140.676C140.862 25.417 141.092 25.5087 141.092 25.7862C141.092 25.972 140.953 26.1554 140.723 26.4799L134.348 34.8421L141.047 43.296C141.325 43.6652 141.417 43.851 141.417 43.9898C141.417 44.2673 141.186 44.359 141 44.359H135.455C134.809 44.359 134.578 44.2673 134.209 43.8039L130.19 38.7668H130.099C130.099 38.7668 129.682 39.5522 129.036 40.4764L126.541 43.8039C126.216 44.2202 125.986 44.359 125.339 44.359H120.071C119.885 44.359 119.655 44.2673 119.655 43.9898C119.655 43.851 119.747 43.6652 120.024 43.296V43.2985Z" fill="white"/>
<path d="M149.734 43.576C149.734 43.8535 149.226 44.3614 148.949 44.3614H144.605C144.328 44.3614 143.82 43.8535 143.82 43.576V26.2024C143.82 25.9249 144.328 25.417 144.605 25.417H148.949C149.226 25.417 149.734 25.9249 149.734 26.2024V43.576ZM149.239 22.3744H144.315C144.043 22.3744 143.82 22.1514 143.82 21.8789V17.756C143.82 17.4834 144.043 17.2605 144.315 17.2605H149.239C149.511 17.2605 149.734 17.4834 149.734 17.756V21.8789C149.734 22.1514 149.511 22.3744 149.239 22.3744Z" fill="white"/>
<path d="M153.339 40.6176L166.461 31.7921C169.234 29.9437 170.527 28.2812 170.527 25.8779C170.527 23.3357 168.679 21.4428 165.351 21.4428C161.654 21.4428 160.083 23.5216 160.083 26.9408C160.083 27.5875 159.806 27.8179 159.345 27.8179H154.585C154.078 27.8179 153.8 27.4933 153.8 27.1712C153.8 21.1653 157.128 16.1752 165.351 16.1752C173.02 16.1752 176.81 20.9795 176.81 25.8779C176.81 29.6662 174.732 32.5775 170.341 35.5334L166.644 38.0284C166.137 38.3505 164.888 38.9055 164.888 38.9055V39.0914H176.577C176.855 39.0914 177.224 39.4605 177.224 39.7381V43.7123C177.224 43.9898 176.855 44.3589 176.577 44.3589H153.337V40.6176H153.339Z" fill="white"/>
<path d="M210.864 31.8863C210.864 39.0022 205.827 44.8223 196.263 44.8223C187.901 44.8223 180.97 39.2772 180.97 30.4987C180.97 21.7203 187.623 16.1752 196.263 16.1752C205.827 16.1752 209.848 22.0424 209.94 26.1554C209.94 26.4329 209.754 26.755 209.201 26.755H204.442C204.164 26.755 203.842 26.6633 203.748 26.2916C203.24 24.0741 201.067 21.4403 196.263 21.4403C191.458 21.4403 187.254 25.1816 187.254 30.4963C187.254 36.3634 191.506 39.5522 196.263 39.5522C201.02 39.5522 204.256 37.0572 204.442 34.3763H194.231C193.954 34.3763 193.584 34.0072 193.584 33.7297V30.2188C193.584 29.9413 193.954 29.5721 194.231 29.5721H210.864V31.8813V31.8863Z" fill="white"/>
<path d="M236 34.8892C236 41.2643 231.01 44.8223 225.096 44.8223C219.181 44.8223 214.191 41.2643 214.191 34.8892C214.191 28.5141 219.181 24.9562 225.096 24.9562C231.01 24.9562 236 28.5141 236 34.8892ZM225.096 29.9462C222.14 29.9462 220.106 32.025 220.106 34.8892C220.106 37.7534 222.137 39.8322 225.096 39.8322C228.054 39.8322 230.086 37.8005 230.086 34.8892C230.086 31.9779 228.052 29.9462 225.096 29.9462Z" fill="white"/>
</svg>
