<svg width="237" height="62" viewBox="0 0 237 62" fill="none" xmlns="http://www.w3.org/2000/svg">
<path d="M27.0239 0.932251C27.2458 1.69162 27.2664 2.48745 27.3631 3.26743C28.0099 8.51486 28.8359 13.7322 30.223 18.8417C31.2947 22.7907 32.6201 26.6446 34.8554 30.1213C35.0028 30.3495 35.025 30.5858 35.025 30.8442C35.0218 40.2499 35.0187 49.6556 35.0282 59.0614C35.0282 59.4514 34.8966 59.6146 34.5367 59.7526C32.2887 60.6166 29.9567 60.9907 27.5597 61.0668C26.9002 61.0874 26.8923 60.7608 26.8923 60.263C26.8923 49.356 26.878 38.449 26.8637 27.5419C26.8526 18.8987 26.8352 10.2555 26.8225 1.61394C26.8225 1.39041 26.8225 1.16688 26.8225 0.941763L27.0254 0.932251H27.0239Z" fill="white"/>
<path d="M24.5555 23.1316C24.5555 23.8735 24.5555 24.617 24.5555 25.3589C24.5809 37.0238 24.6015 48.6886 24.6427 60.3518C24.6443 60.8734 24.5206 60.9955 23.9975 60.9955C21.6116 60.9986 19.3239 60.5547 17.1188 59.6495C16.6368 59.4513 16.4117 59.2088 16.4149 58.6428C16.4529 51.967 16.4672 45.2928 16.4672 38.617C16.4672 38.1525 16.7161 37.9036 16.9888 37.6246C20.7698 33.7612 23.2175 29.1954 24.2527 23.8846C24.3019 23.6309 24.3447 23.3741 24.3906 23.1189L24.5555 23.1284V23.1316Z" fill="white"/>
<path d="M5.72978 50.6211C3.95105 48.3858 2.67961 45.9254 1.83939 43.243C-2.1049 30.6444 5.10833 18.1267 15.7395 13.4658C18.9593 12.0549 22.3075 11.3463 25.8095 11.2638C26.3755 11.2511 26.6006 11.3875 26.5467 11.9836C26.4928 12.5796 26.5023 13.1868 26.5419 13.7845C26.5736 14.2696 26.4167 14.4043 25.9268 14.4012C23.3649 14.3774 20.8411 14.7008 18.433 15.5918C10.1925 18.6387 5.30491 24.4949 3.97482 33.1825C3.37874 37.0777 4.05092 40.8634 5.52052 44.5065C5.66161 44.8569 5.73612 45.2025 5.73454 45.5798C5.72502 47.2602 5.72978 48.9407 5.72978 50.6211Z" fill="white"/>
<path d="M45.737 50.7812C45.737 49.0104 45.7212 47.238 45.7529 45.4672C45.7576 45.1644 45.9558 44.8632 46.0779 44.5652C50.7831 33.1255 45.1838 20.148 33.6648 15.8074C32.5836 15.3999 31.485 15.048 30.3451 14.8514C29.9377 14.7817 29.7078 14.6358 29.6618 14.1697C29.5921 13.4849 29.4399 12.8063 29.2972 12.1294C29.2227 11.7759 29.2592 11.7188 29.6587 11.7775C37.2032 12.865 43.0642 16.6333 46.861 23.187C52.1877 32.3788 51.7518 41.5705 46.127 50.5466C46.07 50.6385 45.9907 50.7162 45.9225 50.8018L45.7402 50.7796L45.737 50.7812Z" fill="white"/>
<path d="M37.4077 58.1244V34.6014C37.6757 34.6727 37.7169 34.901 37.8199 35.0595C39.5955 37.753 41.7817 39.982 44.8255 41.2328C45.1314 41.358 45.2377 41.5229 45.2377 41.8479C45.2488 45.0138 45.2725 48.1781 45.2995 51.344C45.3011 51.585 45.2488 51.7816 45.0871 51.9734C42.9358 54.4972 40.3168 56.4472 37.506 58.1625C37.4933 58.1704 37.4648 58.1482 37.4077 58.126V58.1244Z" fill="white"/>
<path d="M84.6663 21.337C85.6851 21.3571 86.3489 21.8496 86.6575 22.8145C88.2539 27.7829 89.8392 32.7561 91.4626 37.7166C91.6512 38.2936 91.5561 38.5235 90.987 38.7216C89.1829 39.3479 89.1908 39.3685 88.6455 37.5501C88.3569 36.5878 88.0605 35.6271 87.7767 34.6632C87.6768 34.3271 87.5405 34.1417 87.1188 34.1496C85.4764 34.1813 83.834 34.1813 82.1916 34.1512C81.7493 34.1432 81.605 34.3145 81.4877 34.7044C81.0866 36.0504 80.6253 37.3805 80.2242 38.7264C80.0815 39.2068 79.8707 39.3558 79.3998 39.1465C78.9829 38.9595 78.5564 38.7803 78.1173 38.6582C77.629 38.5219 77.6021 38.2904 77.7464 37.8434C79.4601 32.5643 81.1611 27.2788 82.8416 21.9885C83.0033 21.4797 83.2379 21.2688 83.7642 21.3322C84.0607 21.3687 84.3651 21.3386 84.6647 21.3386L84.6663 21.337ZM84.6171 24.5187C83.8578 26.9823 83.1682 29.2414 82.4611 31.4957C82.3581 31.8223 82.4421 31.9048 82.7592 31.9032C84.0306 31.8952 85.302 31.8952 86.575 31.9032C86.8445 31.9048 86.8794 31.8239 86.8017 31.5782C86.0867 29.2906 85.3829 27.0013 84.6171 24.5187Z" fill="white"/>
<path d="M104.511 31.8905C103.127 34.1797 101.745 36.4403 100.394 38.72C100.101 39.2147 99.8727 39.3431 99.3337 39.007C97.7864 38.0447 97.7674 38.0669 98.7376 36.5244C100.087 34.3794 101.431 32.2297 102.807 30.1006C103.058 29.7138 103.073 29.4538 102.812 29.0638C101.393 26.9617 100.026 24.8247 98.5965 22.7304C98.2382 22.2073 98.3508 21.9695 98.8645 21.7586C99.4241 21.5272 99.9028 20.8312 100.475 21.0104C101 21.1752 101.176 21.9346 101.496 22.4356C102.514 24.0288 103.513 25.6332 104.561 27.2978C105.233 26.2372 105.883 25.2147 106.53 24.1905C107.145 23.2156 107.763 22.2422 108.361 21.2561C108.557 20.9311 108.736 20.8566 109.072 21.0754C109.516 21.3639 109.981 21.6255 110.456 21.8585C110.859 22.0551 110.846 22.2469 110.613 22.5941C109.201 24.701 107.833 26.8396 106.395 28.9307C106.043 29.4427 106.098 29.7677 106.409 30.2481C107.972 32.6704 109.486 35.1229 111.048 37.5469C111.319 37.967 111.293 38.1731 110.85 38.3871C110.293 38.6566 109.726 39.24 109.22 39.183C108.66 39.1211 108.497 38.2571 108.173 37.7387C106.981 35.8205 105.815 33.8864 104.638 31.9602C104.627 31.9428 104.599 31.938 104.513 31.892L104.511 31.8905Z" fill="white"/>
<path d="M14.094 40.865C14.094 45.0709 14.094 49.1119 14.094 53.1513C14.094 54.6066 14.0829 56.0619 14.1003 57.5188C14.1051 57.9738 14.0623 58.1672 13.5486 57.893C10.7172 56.3853 8.30436 54.3767 6.23868 51.9337C6.04369 51.7023 5.98027 51.4692 5.98503 51.1775C6.01515 49.4226 6.02942 47.666 6.05795 45.9111C6.06112 45.7066 5.95491 45.4371 6.34014 45.4054C8.3107 45.2468 9.90237 44.2322 11.4433 43.1162C12.3374 42.4693 13.1475 41.7179 14.0924 40.8634L14.094 40.865Z" fill="white"/>
<path d="M118.386 30.1244C118.386 27.4214 118.404 24.7169 118.373 22.0139C118.367 21.4527 118.538 21.3068 119.081 21.3243C120.306 21.3623 121.533 21.3354 122.758 21.337C125.149 21.3385 126.795 22.7923 127.153 25.1512C127.43 26.9791 127.102 28.6231 125.855 30.0325C125.561 30.3638 125.222 30.6682 124.811 30.8156C124.299 30.9995 124.377 31.2341 124.571 31.6257C125.59 33.6898 126.566 35.7745 127.595 37.8338C127.844 38.3316 127.824 38.5742 127.28 38.8215C126.035 39.389 126.051 39.416 125.449 38.1683C124.409 36.0171 123.367 33.8658 122.324 31.7161C122.145 31.3483 120.775 31.0534 120.498 31.3277C120.349 31.4751 120.426 31.6796 120.426 31.8556C120.422 33.9577 120.404 36.0615 120.434 38.1636C120.444 38.7946 120.319 39.0752 119.596 39.0355C118.391 38.9705 118.388 39.0197 118.388 37.818C118.388 35.2529 118.388 32.6879 118.388 30.1244H118.386ZM120.417 26.2768C120.417 27.1551 120.433 28.0334 120.409 28.9101C120.398 29.2937 120.499 29.4443 120.91 29.4205C121.509 29.3856 122.115 29.3761 122.713 29.4173C123.83 29.495 124.605 28.6865 124.835 27.8812C125.081 27.0203 125.184 26.1484 125.022 25.2368C124.848 24.2492 124.347 23.6008 123.378 23.3376C122.557 23.1141 121.72 23.2711 120.896 23.2045C120.476 23.1712 120.398 23.3392 120.409 23.7134C120.433 24.5678 120.417 25.4223 120.417 26.2768Z" fill="white"/>
<path d="M211.792 32.0522C211.792 29.95 211.808 27.8479 211.781 25.7473C211.775 25.2622 211.904 25.1195 212.394 25.1306C213.873 25.1639 215.357 25.0831 216.833 25.1608C219.05 25.2781 220.625 26.2879 220.77 28.7246C220.87 30.4129 220.109 31.7319 218.652 32.569C218.124 32.8718 218.187 33.0589 218.45 33.4774C219.344 34.901 220.186 36.3579 221.082 37.7799C221.342 38.1921 221.309 38.4157 220.885 38.6519C219.384 39.4905 219.755 39.6554 218.912 38.1763C218.114 36.7764 217.29 35.3893 216.543 33.9625C216.248 33.3981 215.904 33.173 215.272 33.1793C213.881 33.1936 213.88 33.1635 213.878 34.5443C213.877 35.7682 213.85 36.9936 213.889 38.2159C213.91 38.8611 213.683 39.0561 213.044 39.0339C211.789 38.9927 211.787 39.0276 211.787 37.8037C211.787 35.8871 211.787 33.9688 211.787 32.0522H211.79H211.792ZM215.459 27.0108V26.9997C215.135 26.9997 214.809 27.0283 214.489 26.9934C214.005 26.9395 213.843 27.1091 213.867 27.6006C213.905 28.4297 213.878 29.262 213.878 30.0927C213.878 31.3197 213.878 31.3308 215.093 31.3166C215.915 31.3071 216.754 31.4054 217.52 30.963C218.284 30.5223 218.777 29.4982 218.596 28.6834C218.352 27.5831 217.819 27.1012 216.708 27.0172C216.294 26.9855 215.877 27.0124 215.46 27.0124L215.459 27.0108Z" fill="white"/>
<path d="M169.042 24.9864C171.415 24.9024 172.986 26.5876 173.587 28.788C174.213 31.082 174.232 33.4235 173.473 35.7127C173.074 36.916 172.452 37.9876 171.271 38.6107C168.75 39.9408 166.106 39.0419 164.927 36.5846C164.118 34.8978 163.974 33.0826 164.107 31.2167C164.189 30.061 164.338 28.9434 164.781 27.8717C165.397 26.3799 166.853 24.8501 169.042 24.9864ZM166.144 32.0997C166.307 33.3109 166.263 34.5871 166.837 35.7603C167.276 36.6575 167.907 37.2584 168.947 37.2838C170.014 37.3091 170.694 36.7368 171.165 35.8173C171.731 34.7155 171.832 33.5123 171.856 32.328C171.885 30.9551 171.786 29.5664 171.149 28.2918C170.7 27.3945 169.992 26.8571 168.966 26.8682C167.962 26.8777 167.301 27.4436 166.864 28.3092C166.266 29.4935 166.295 30.795 166.141 32.0997H166.144Z" fill="white"/>
<path d="M133.802 32.0347C133.802 29.977 133.821 27.9208 133.789 25.8631C133.781 25.2797 133.968 25.1211 134.542 25.1275C136.995 25.1576 139.449 25.1608 141.903 25.1275C142.501 25.1196 142.781 25.2591 142.68 25.8884C142.654 26.047 142.661 26.2134 142.68 26.3736C142.737 26.865 142.523 27.0093 142.041 27.0045C140.213 26.9839 138.383 27.0172 136.556 26.9902C136.072 26.9839 135.914 27.1155 135.934 27.6006C135.969 28.4773 135.963 29.3571 135.934 30.2354C135.921 30.6523 136.037 30.7903 136.476 30.7808C137.911 30.7506 139.347 30.8109 140.78 30.7522C141.687 30.7142 141.481 31.2928 141.518 31.8017C141.556 32.3455 141.468 32.672 140.788 32.6514C139.331 32.6086 137.873 32.6514 136.416 32.634C136.063 32.6292 135.931 32.7149 135.937 33.089C135.959 34.2907 135.959 35.4923 135.94 36.694C135.934 37.0666 136.059 37.1538 136.418 37.1506C138.246 37.1316 140.075 37.1633 141.903 37.1268C142.501 37.1141 142.778 37.2663 142.683 37.8941C142.653 38.097 142.673 38.3095 142.678 38.5171C142.688 38.8564 142.55 39.026 142.187 39.0244C139.571 39.0181 136.955 39.0165 134.341 39.0276C133.821 39.0308 133.807 38.7169 133.808 38.3428C133.811 36.239 133.81 34.1353 133.81 32.0332H133.803L133.802 32.0347Z" fill="white"/>
<path d="M196.4 32.0664C196.4 29.9643 196.413 27.8622 196.391 25.76C196.386 25.2892 196.497 25.1259 196.999 25.1307C199.498 25.156 201.996 25.1576 204.493 25.1307C205.031 25.1243 205.208 25.3082 205.145 25.8076C205.134 25.898 205.143 25.9915 205.143 26.085C205.143 26.697 204.844 27.0024 204.246 27.0013C202.511 27.0013 200.776 27.0156 199.041 26.9902C198.61 26.9839 198.482 27.1044 198.496 27.5324C198.526 28.4551 198.515 29.3809 198.501 30.3036C198.496 30.6476 198.572 30.776 198.965 30.7697C200.422 30.7443 201.88 30.8061 203.336 30.7617C204.146 30.7364 204.071 31.2104 204.079 31.7415C204.087 32.2805 204.076 32.6768 203.333 32.6514C201.923 32.6007 200.511 32.6562 199.101 32.6292C198.67 32.6213 198.485 32.6895 198.499 33.1762C198.534 34.3303 198.534 35.486 198.499 36.6401C198.485 37.1014 198.665 37.1585 199.063 37.1538C200.844 37.1347 202.626 37.168 204.406 37.1347C204.977 37.1236 205.232 37.279 205.149 37.8672C205.124 38.0479 205.137 38.2365 205.149 38.4204C205.178 38.8532 205.018 39.0355 204.55 39.0324C202.03 39.0133 199.507 39.0133 196.987 39.0324C196.528 39.0355 196.391 38.8944 196.394 38.4426C196.413 36.3183 196.402 34.1924 196.403 32.0664H196.4Z" fill="white"/>
<path d="M63.4594 31.1882C63.4594 28.8562 63.4419 26.5226 63.4721 24.1905C63.4784 23.642 63.3246 23.4882 62.7745 23.5089C61.5966 23.5532 60.4156 23.4993 59.2377 23.5263C58.7827 23.5358 58.6273 23.3979 58.6384 22.9381C58.6828 21.1039 58.4022 21.356 60.2047 21.3512C63.4419 21.3433 66.6808 21.3576 69.918 21.3322C70.4966 21.3274 70.7329 21.4463 70.7123 22.09C70.6679 23.5231 70.7043 23.5231 69.2807 23.5215C68.4024 23.5215 67.521 23.5548 66.6443 23.512C66.1338 23.4867 65.9832 23.6119 65.9864 24.1493C66.0133 28.1681 66.0007 32.1869 66.0007 36.2041C66.0007 36.8969 65.9848 37.5897 66.0038 38.2825C66.0149 38.7248 65.8501 38.9166 65.3935 38.8849C64.9797 38.8564 64.558 38.8437 64.1458 38.8881C63.583 38.9483 63.4356 38.7201 63.4419 38.1858C63.4657 35.8538 63.4515 33.5202 63.4515 31.1882H63.4594Z" fill="white"/>
<path d="M153.753 24.9816C155.637 24.8849 156.913 25.9661 157.866 27.5721C157.913 27.6513 158.01 27.7512 157.991 27.8114C157.786 28.4519 157.093 28.4123 156.658 28.7388C156.45 28.8942 156.196 28.9481 156.028 28.6263C155.836 28.2569 155.606 27.9129 155.307 27.6164C154.138 26.4576 152.325 26.6684 151.45 28.0683C151.017 28.761 150.746 29.5268 150.673 30.3258C150.505 32.16 150.361 34.0148 151.255 35.7301C152.207 37.558 154.297 37.8481 155.752 36.3833C155.866 36.2691 155.965 36.1391 156.076 36.0218C156.337 35.7428 156.483 35.1531 156.824 35.199C157.379 35.2736 157.807 35.7571 158.267 36.0979C158.471 36.2501 158.336 36.4229 158.232 36.5814C156.968 38.4965 155.267 39.4763 152.905 39.1671C151.036 38.923 149.487 37.5437 148.889 35.4606C148.147 32.8781 148.144 30.3099 149.229 27.8162C149.893 26.2911 151.44 24.8707 153.755 24.9816H153.753Z" fill="white"/>
<path d="M184.68 34.3319C185.815 31.296 186.92 28.3806 187.985 25.4509C188.177 24.9246 188.369 24.7819 188.919 24.9943C190.238 25.5048 190.251 25.4794 189.743 26.7968C188.226 30.7459 186.711 34.6949 185.187 38.6424C185.081 38.915 185.106 39.3256 184.637 39.3161C184.209 39.3082 184.22 38.9277 184.123 38.6741C182.517 34.4983 180.938 30.3131 179.312 26.1453C179.093 25.5825 179.22 25.4287 179.74 25.24C181.346 24.6535 180.999 24.636 181.549 26.0961C182.538 28.7182 183.507 31.3467 184.486 33.972C184.516 34.0544 184.569 34.1274 184.678 34.3303L184.68 34.3319Z" fill="white"/>
<path d="M231.499 31.5528C232.236 30.1435 232.929 28.8213 233.619 27.4991C234.001 26.7651 234.402 26.039 234.749 25.2892C234.96 24.8326 235.199 24.8168 235.611 25.0292C236.994 25.7426 237.002 25.7315 236.233 27.098C235.09 29.1257 233.95 31.1549 232.794 33.1746C232.615 33.4869 232.53 33.7913 232.534 34.1512C232.549 35.5605 232.526 36.9714 232.547 38.3808C232.553 38.8501 232.414 39.0451 231.914 39.0324C230.169 38.9864 230.446 39.2543 230.424 37.5834C230.415 36.9128 230.361 36.2359 230.435 35.5748C230.594 34.1749 230.161 32.9844 229.438 31.8049C228.346 30.0166 227.373 28.157 226.325 26.3418C226.074 25.909 226.088 25.6823 226.58 25.4398C227.975 24.7533 227.956 24.7343 228.684 26.1453C229.598 27.9208 230.527 29.6885 231.501 31.5576L231.499 31.5528Z" fill="white"/>
<path d="M65.0637 51.5216C63.4959 53.2052 60.3601 52.7962 59.8116 49.8982C59.4454 47.9625 59.4311 46.011 59.9431 44.0927C60.3109 42.7151 61.3953 41.8463 62.6525 41.8178C64.4058 41.7766 65.4236 42.3647 65.8976 43.7012C65.9499 43.8502 65.9816 44.0087 66.0134 44.1657C66.2068 45.1232 65.9135 45.3863 64.9353 45.1723C64.6183 45.1026 64.6294 44.8901 64.6024 44.6571C64.4914 43.6869 63.9984 43.1526 63.1709 43.0876C62.2197 43.0131 61.5491 43.4316 61.324 44.3828C60.8848 46.2424 60.8468 48.1226 61.297 49.987C61.5031 50.8446 62.1515 51.3345 62.9188 51.3282C63.6734 51.3218 64.2093 50.8827 64.4978 50.0345C64.5263 49.9489 64.577 49.8681 64.5961 49.7809C64.9623 48.1765 64.9623 48.1575 63.3437 48.1575C62.765 48.1575 62.4844 48.0117 62.5415 47.3759C62.5748 47.0002 62.727 46.9146 63.0615 46.9194C63.8938 46.9336 64.7277 46.9479 65.5584 46.9114C66.034 46.8908 66.202 47.024 66.1877 47.5234C66.1529 48.8852 66.1798 50.2485 66.164 51.6103C66.1608 51.9306 66.3574 52.3634 65.6995 52.3776C65.124 52.3903 64.9496 52.1763 65.0622 51.5231L65.0637 51.5216Z" fill="white"/>
<path d="M169.635 44.9535C171.908 43.6187 173.381 45.1755 173.581 47.3838C173.692 48.6077 173.592 49.83 173.162 50.9952C172.628 52.4458 171.162 52.9198 169.859 52.0669C169.664 51.9385 169.621 51.8339 169.43 52.124C169.229 52.4299 168.804 52.338 168.47 52.2349C168.126 52.1271 168.24 51.8212 168.24 51.5865C168.234 48.6331 168.249 45.6812 168.224 42.7277C168.219 42.1887 168.405 42.0651 168.904 42.0778C169.381 42.0904 169.698 42.111 169.648 42.7357C169.589 43.4602 169.633 44.1926 169.633 44.952L169.635 44.9535ZM169.63 48.7631C169.616 49.1959 169.602 49.8427 169.792 50.4673C169.946 50.9746 170.293 51.2964 170.832 51.3376C171.36 51.3773 171.742 51.0903 171.888 50.6163C172.308 49.2498 172.366 47.8626 171.929 46.485C171.753 45.9285 171.361 45.556 170.751 45.6114C170.133 45.6685 169.893 46.1409 169.763 46.6974C169.619 47.3109 169.633 47.9308 169.63 48.7631Z" fill="white"/>
<path d="M108.513 51.6008C108.07 52.0764 107.646 52.4173 107.059 52.4712C106 52.5695 105.161 52.0416 104.922 51.1268C104.58 49.8205 104.955 48.7758 105.975 48.2986C106.58 48.0148 107.199 47.7517 107.828 47.5329C108.522 47.2903 108.361 46.7608 108.307 46.271C108.238 45.6464 107.742 45.6067 107.27 45.6036C106.767 45.5988 106.423 45.8207 106.415 46.3788C106.406 47.1049 105.856 46.9321 105.461 46.9114C104.962 46.8861 105.076 46.5151 105.141 46.1854C105.396 44.8917 106.281 44.3131 107.812 44.4494C108.992 44.5541 109.672 45.3356 109.675 46.5991C109.678 47.915 109.672 49.2308 109.675 50.5482C109.675 50.8605 109.603 51.1728 110.085 51.2679C110.385 51.3266 110.298 51.6896 110.288 51.9322C110.277 52.2096 110.089 52.3253 109.824 52.3428C109.264 52.3776 108.757 52.3079 108.514 51.6008H108.513ZM108.294 48.4096C107.809 48.6299 107.451 48.8519 107.059 48.9581C106.212 49.1864 106.086 50.2232 106.342 50.8415C106.531 51.2949 106.929 51.4661 107.422 51.2758C107.975 51.0618 108.254 50.6338 108.288 50.0662C108.319 49.5462 108.294 49.0231 108.294 48.4112V48.4096Z" fill="white"/>
<path d="M235.662 48.4571C235.662 49.0802 235.653 49.7032 235.665 50.3262C235.673 50.713 235.551 51.1538 236.152 51.2885C236.409 51.3456 236.333 51.6769 236.33 51.902C236.326 52.1478 236.174 52.2968 235.952 52.3253C235.486 52.384 234.99 52.4014 234.705 51.9528C234.516 51.6547 234.432 51.7118 234.224 51.91C233.688 52.4252 233.048 52.5822 232.314 52.4236C231.382 52.2223 231.012 51.5517 230.86 50.7146C230.683 49.7397 231.027 48.8376 231.775 48.4413C232.446 48.0877 233.148 47.7802 233.863 47.5313C234.63 47.265 234.354 46.6657 234.315 46.2012C234.272 45.6939 233.795 45.6083 233.362 45.6067C232.848 45.6051 232.412 45.789 232.414 46.3724C232.415 47.1413 231.873 46.9146 231.49 46.9114C230.947 46.9067 231.122 46.4517 231.149 46.1822C231.261 45.0281 232.143 44.4241 233.616 44.4479C234.814 44.4669 235.575 45.1184 235.637 46.2424C235.678 46.978 235.645 47.7184 235.645 48.4555H235.662V48.4571ZM234.356 48.4032C233.83 48.6363 233.414 48.8186 232.999 49.0009C232.958 49.0199 232.912 49.031 232.872 49.0516C232.379 49.31 232.117 49.9679 232.274 50.5973C232.384 51.0349 232.633 51.3599 233.127 51.3345C233.72 51.3044 234.058 50.9588 234.239 50.3912C234.441 49.7555 234.292 49.123 234.357 48.4016L234.356 48.4032Z" fill="white"/>
<path d="M204.74 51.5691C204.173 52.3856 203.472 52.6234 202.629 52.4204C201.654 52.1858 201.273 51.65 201.14 50.3738C201.048 49.4923 201.498 48.6727 202.318 48.297C202.905 48.0275 203.513 47.8087 204.102 47.5456C204.602 47.3204 204.797 46.5373 204.506 46.0189C204.262 45.5861 203.48 45.4545 203.023 45.7557C202.824 45.8889 202.798 46.0807 202.762 46.29C202.659 46.867 202.221 47.1159 201.678 46.9209C201.437 46.8337 201.403 46.6467 201.422 46.4184C201.53 45.1866 202.232 44.5144 203.483 44.4526C205.146 44.3701 205.917 45.1073 205.909 46.7624C205.902 47.9847 205.898 49.2086 205.906 50.4309C205.907 50.7812 205.831 51.1585 206.37 51.2711C206.681 51.3361 206.57 51.6959 206.568 51.9353C206.568 52.1826 206.383 52.3063 206.162 52.3301C205.582 52.3935 205.05 52.3301 204.744 51.5675L204.74 51.5691ZM204.593 48.3874C204.284 48.5411 204.086 48.6474 203.883 48.7409C203.654 48.8455 203.413 48.928 203.19 49.0405C202.667 49.3021 202.454 49.922 202.607 50.6496C202.7 51.0967 202.971 51.344 203.413 51.3377C204.037 51.3297 204.312 50.9207 204.487 50.3674C204.686 49.7349 204.553 49.1087 204.595 48.3874H204.593Z" fill="white"/>
<path d="M76.1753 48.6838C76.0595 48.6838 75.9422 48.6727 75.8281 48.6854C75.362 48.7409 74.6692 48.4429 74.4742 48.8376C74.2142 49.3639 74.4235 50.0583 74.6439 50.6433C74.8087 51.0808 75.1543 51.3694 75.6521 51.3345C76.1626 51.2996 76.4923 51.0016 76.635 50.5069C76.6794 50.3532 76.7555 50.1962 76.7555 50.0409C76.7571 49.2292 77.3722 49.5922 77.7083 49.5938C78.1744 49.5938 78.0174 50.0234 77.9873 50.2866C77.8462 51.4898 77.0298 52.3428 75.9311 52.4712C74.7231 52.6123 73.7846 52.0526 73.374 50.8351C72.8382 49.2466 72.8207 47.628 73.4136 46.0506C73.9336 44.6682 75.1099 44.145 76.4701 44.5921C77.0821 44.7934 77.5006 45.1866 77.7099 45.7969C77.9746 46.5706 78.0587 47.368 78.0539 48.1829C78.0507 48.5776 77.87 48.7076 77.4927 48.6886C77.0551 48.6664 76.6144 48.6838 76.1753 48.6838ZM75.4793 47.5234C76.2498 47.5234 76.6366 47.3791 76.6398 47.0906C76.6493 46.2313 76.188 45.6004 75.5475 45.5988C74.8817 45.5972 74.4219 46.206 74.4885 47.1556C74.544 47.9577 75.2273 47.2713 75.4793 47.5234Z" fill="white"/>
<path d="M122.002 48.3921C122.028 49.1563 121.966 49.9045 121.717 50.637C121.265 51.9607 120.528 52.4997 119.147 52.4759C117.901 52.4553 117.151 51.8703 116.777 50.5751C116.392 49.2435 116.37 47.8896 116.677 46.5437C116.988 45.185 117.939 44.4494 119.285 44.451C120.55 44.451 121.503 45.2437 121.855 46.5389C122.021 47.1524 121.999 47.7707 122.004 48.3906L122.002 48.3921ZM120.65 48.5253C120.612 47.8595 120.669 47.1825 120.444 46.5389C120.258 46.0094 119.967 45.5988 119.331 45.5687C118.672 45.537 118.267 45.8857 118.096 46.466C117.701 47.8008 117.689 49.1547 118.096 50.4895C118.266 51.0428 118.654 51.3694 119.28 51.3599C119.913 51.3504 120.239 50.9746 120.434 50.442C120.661 49.8237 120.623 49.1705 120.65 48.5269V48.5253Z" fill="white"/>
<path d="M183.866 51.8101C183.54 52.1652 183.148 52.3554 182.716 52.449C181.431 52.7232 180.453 51.9448 180.429 50.5719C180.398 48.7694 180.437 46.9669 180.409 45.1644C180.399 44.5842 180.727 44.6238 181.121 44.6127C181.552 44.6 181.834 44.6666 181.828 45.1993C181.809 46.7941 181.82 48.3889 181.82 49.9838C181.82 51.0808 181.953 51.3265 182.549 51.3376C183.283 51.3503 183.908 50.7305 183.922 49.9013C183.947 48.4 183.96 46.8956 183.922 45.3943C183.906 44.7807 184.099 44.5857 184.708 44.6016C185.212 44.6143 185.339 44.7982 185.334 45.2627C185.319 47.3426 185.331 49.4226 185.323 51.5025C185.323 51.8021 185.463 52.2222 184.986 52.2809C184.558 52.3332 184.042 52.4807 183.868 51.8116L183.866 51.8101Z" fill="white"/>
<path d="M89.4778 50.1074C89.4651 51.7229 87.9543 52.793 86.2881 52.4458C85.2037 52.2207 84.6251 51.6848 84.457 50.6607C84.4126 50.3864 84.1622 49.8855 84.7551 49.8712C85.1578 49.8617 85.7602 49.5653 85.8125 50.4197C85.8585 51.1569 86.3816 51.4708 87.1267 51.3376C87.7973 51.2187 88.1619 50.7067 88.0652 50.0424C88.0034 49.616 87.6959 49.4289 87.3503 49.2783C86.7811 49.0294 86.193 48.8186 85.6381 48.5411C84.6267 48.0354 84.3191 47.2935 84.5522 46.0617C84.717 45.1913 85.4923 44.5414 86.4704 44.451C88.0129 44.3099 89.1242 45.0756 89.1924 46.328C89.2083 46.6055 89.2733 46.9526 88.8405 46.9082C88.4996 46.8734 87.9495 47.2126 87.9099 46.4659C87.8782 45.8825 87.5104 45.6004 86.9444 45.6067C86.4894 45.6115 86.0566 45.705 85.9235 46.2424C85.784 46.8084 85.9472 47.2428 86.4989 47.4964C87.1473 47.7944 87.8052 48.0766 88.4441 48.3953C89.1718 48.7583 89.5586 49.3417 89.4778 50.1058V50.1074Z" fill="white"/>
<path d="M139.531 47.7675C139.531 46.4517 139.517 45.1374 139.539 43.8232C139.546 43.4316 139.433 43.2969 139.035 43.3207C138.506 43.3524 137.973 43.3222 137.442 43.327C136.862 43.3318 137.031 42.9005 137.003 42.5851C136.973 42.2585 137.058 42.0809 137.454 42.0857C139.325 42.1047 141.197 42.1079 143.068 42.0841C143.552 42.0778 143.577 42.3282 143.585 42.6865C143.593 43.0844 143.534 43.3698 143.03 43.3413C142.547 43.3127 142.057 43.365 141.576 43.3207C141.098 43.2779 141.002 43.4713 141.006 43.9088C141.023 46.4231 141.015 48.9375 141.015 51.4534C141.015 52.2318 140.639 52.5044 139.883 52.2968C139.523 52.1985 139.53 51.9353 139.531 51.6452C139.538 50.3532 139.534 49.0611 139.534 47.7691L139.531 47.7675Z" fill="white"/>
<path d="M192.701 48.7345C192.701 47.9276 192.684 47.1191 192.709 46.3122C192.72 45.9444 192.644 45.7399 192.229 45.8033C191.715 45.8825 191.692 45.5639 191.684 45.1723C191.676 44.7633 191.798 44.5445 192.234 44.6143C192.663 44.6825 192.74 44.4573 192.706 44.1006C192.686 43.8946 192.73 43.6821 192.698 43.4792C192.6 42.8387 192.854 42.6263 193.497 42.6739C193.929 42.7071 194.152 42.7943 194.095 43.2652C194.07 43.4697 194.114 43.6837 194.085 43.8866C194.008 44.4272 194.15 44.7205 194.77 44.619C195.205 44.5493 195.317 44.8045 195.324 45.1993C195.332 45.6305 195.205 45.8794 194.734 45.8049C194.225 45.724 194.058 45.8968 194.076 46.4327C194.117 47.7691 194.108 49.1087 194.081 50.4467C194.071 50.973 194.231 51.2457 194.786 51.1823C195.163 51.1379 195.322 51.2695 195.316 51.6785C195.309 52.0748 195.192 52.3174 194.778 52.3047C194.296 52.2904 193.802 52.2936 193.336 52.1874C192.831 52.0732 192.709 51.6214 192.705 51.1569C192.697 50.35 192.703 49.5415 192.703 48.7345H192.7H192.701Z" fill="white"/>
<path d="M96.4025 48.7345C96.4025 47.926 96.3834 47.1191 96.4088 46.3122C96.4199 45.9412 96.3438 45.7383 95.9269 45.8064C95.483 45.8794 95.3752 45.6511 95.3863 45.2484C95.3958 44.8632 95.4021 44.5318 95.9269 44.619C96.3486 44.6888 96.4437 44.4764 96.4056 44.1086C96.3834 43.9025 96.4294 43.6885 96.3961 43.4871C96.2804 42.7896 96.5975 42.6136 97.2411 42.6834C97.6121 42.723 97.8007 42.8276 97.7849 43.216C97.7738 43.4697 97.8134 43.7281 97.7817 43.977C97.7167 44.47 97.853 44.7268 98.4031 44.6254C98.8787 44.5382 98.9929 44.8061 99.0087 45.2262C99.0278 45.6986 98.8058 45.8651 98.3825 45.8049C97.8863 45.7335 97.7658 45.9317 97.7769 46.4105C97.8102 47.7707 97.8055 49.134 97.7785 50.4958C97.769 50.9984 97.9228 51.2489 98.4444 51.187C98.8153 51.1427 99.0024 51.2631 98.9976 51.6706C98.9929 52.0511 98.8883 52.2888 98.4634 52.3095C97.9751 52.3332 97.4868 52.3095 97.0192 52.1906C96.5483 52.0717 96.4041 51.6801 96.4041 51.2283C96.4041 50.3976 96.4041 49.5668 96.4041 48.7361L96.4025 48.7345Z" fill="white"/>
<path d="M214.539 45.2119C215.036 44.7554 215.533 44.4684 216.164 44.4399C216.61 44.4209 216.744 44.6111 216.71 45.0122C216.679 45.3546 216.84 45.7573 216.217 45.7779C215.047 45.8175 214.527 46.4025 214.511 47.6423C214.493 48.9803 214.482 50.3199 214.522 51.6563C214.539 52.2207 214.275 52.3126 213.813 52.3158C213.338 52.3174 213.097 52.181 213.101 51.642C213.124 49.5431 213.111 47.4425 213.113 45.3435C213.113 45.0265 213.043 44.627 213.523 44.6206C213.935 44.6143 214.5 44.4034 214.542 45.2119H214.539Z" fill="white"/>
<path d="M151.363 45.2643C151.909 44.6936 152.448 44.4415 153.111 44.4447C153.598 44.4463 153.533 44.7792 153.52 45.0677C153.507 45.3578 153.66 45.7272 153.127 45.7811C151.772 45.919 151.378 46.3375 151.348 47.7009C151.32 48.9914 151.328 50.2834 151.355 51.5739C151.364 52.0812 151.256 52.3348 150.67 52.3222C150.121 52.3095 149.955 52.1224 149.961 51.585C149.985 49.5098 149.966 47.4346 149.972 45.361C149.972 45.0614 149.856 44.6428 150.356 44.6254C150.773 44.6111 151.336 44.4019 151.364 45.2627L151.363 45.2643Z" fill="white"/>
<path d="M222.93 48.4587C222.93 47.3965 222.956 46.3344 222.919 45.2722C222.902 44.7443 223.083 44.5889 223.596 44.6095C224.048 44.627 224.345 44.6618 224.338 45.2357C224.316 47.3823 224.316 49.5304 224.338 51.6769C224.345 52.2445 224.053 52.3015 223.601 52.3158C223.098 52.3316 222.902 52.1731 222.919 51.6452C222.956 50.5846 222.93 49.5209 222.93 48.4587Z" fill="white"/>
<path d="M161.144 48.5269C161.144 49.5875 161.125 50.6496 161.152 51.7102C161.166 52.2476 160.874 52.3047 160.453 52.3031C160.045 52.3031 159.733 52.2857 159.738 51.734C159.755 49.5431 159.755 47.3522 159.736 45.1612C159.731 44.5842 160.079 44.6286 160.465 44.6127C160.905 44.5937 161.168 44.6809 161.155 45.2072C161.13 46.3138 161.147 47.4219 161.147 48.5285H161.142L161.144 48.5269Z" fill="white"/>
<path d="M108.212 43.7614C107.779 43.7963 107.325 43.5395 106.847 43.3936C106.491 43.2842 106.187 43.2287 105.965 43.6425C105.77 44.0071 105.375 43.9405 105.115 43.8105C104.835 43.671 105.028 43.3413 105.103 43.1289C105.385 42.3267 106.203 42.0017 107.154 42.2855C107.439 42.3711 107.726 42.4646 107.994 42.593C108.346 42.7611 108.621 42.7056 108.811 42.3679C109.039 41.9652 109.426 42.0096 109.703 42.165C110.033 42.3489 109.757 42.6675 109.654 42.8926C109.396 43.457 108.965 43.8026 108.212 43.7614Z" fill="white"/>
<path d="M204.945 41.8257C205.084 41.8257 205.222 41.8257 205.36 41.8257C205.723 41.8257 205.861 41.97 205.601 42.2775C205.141 42.8213 204.679 43.3635 204.179 43.8692C203.91 44.1434 203.518 44.0182 203.188 43.9738C202.957 43.9437 203.038 43.7265 203.122 43.5886C203.433 43.0765 203.757 42.574 204.068 42.0635C204.289 41.702 204.642 41.8637 204.945 41.8257Z" fill="white"/>
<path d="M161.131 42.8403C161.226 43.4301 161.112 43.7328 160.434 43.736C159.719 43.7392 159.744 43.3571 159.733 42.8562C159.72 42.3441 159.771 42.0556 160.423 42.073C161.047 42.0889 161.287 42.2696 161.131 42.8403Z" fill="white"/>
<path d="M222.943 42.8879C222.843 42.3505 222.949 42.0699 223.628 42.0699C224.322 42.0699 224.349 42.3901 224.343 42.9132C224.337 43.4174 224.287 43.7202 223.642 43.7313C222.962 43.744 222.85 43.4443 222.943 42.8895V42.8879Z" fill="white"/>
<path d="M84.6171 24.5203C85.3844 27.0029 86.0883 29.2937 86.8017 31.5798C86.8778 31.8255 86.8445 31.9063 86.575 31.9048C85.3036 31.8953 84.0322 31.8953 82.7591 31.9048C82.4421 31.9063 82.3581 31.8239 82.4611 31.4973C83.1682 29.243 83.8578 26.9839 84.6171 24.5203Z" fill="#3A4388"/>
<path d="M120.417 26.2768C120.417 25.4223 120.434 24.5678 120.409 23.7134C120.398 23.3392 120.476 23.1712 120.896 23.2045C121.722 23.2711 122.559 23.1141 123.378 23.3376C124.347 23.6008 124.848 24.2492 125.022 25.2369C125.182 26.1484 125.081 27.0204 124.835 27.8812C124.605 28.6865 123.83 29.495 122.713 29.4174C122.115 29.3761 121.509 29.3857 120.91 29.4205C120.501 29.4443 120.4 29.2937 120.409 28.9101C120.433 28.0334 120.417 27.1551 120.417 26.2768Z" fill="#3A4388"/>
<path d="M215.457 27.0093C215.873 27.0093 216.291 26.9839 216.705 27.014C217.818 27.098 218.349 27.58 218.593 28.6802C218.774 29.4951 218.281 30.5192 217.517 30.9599C216.751 31.4022 215.912 31.3039 215.089 31.3134C213.877 31.3277 213.877 31.315 213.875 30.0896C213.875 29.2588 213.904 28.4265 213.864 27.5974C213.842 27.106 214.003 26.9363 214.485 26.9902C214.804 27.0267 215.132 26.9966 215.456 26.9966V27.0077L215.457 27.0093Z" fill="#3A4388"/>
<path d="M166.144 32.0982C166.296 30.7934 166.269 29.4919 166.867 28.3076C167.303 27.442 167.966 26.8761 168.969 26.8666C169.993 26.8571 170.702 27.3929 171.152 28.2902C171.789 29.5648 171.886 30.952 171.859 32.3264C171.835 33.5107 171.734 34.7139 171.168 35.8157C170.697 36.7336 170.017 37.3059 168.95 37.2822C167.91 37.2584 167.279 36.6575 166.84 35.7587C166.266 34.5839 166.311 33.3078 166.147 32.0982H166.144Z" fill="#3A4388"/>
<path d="M169.63 48.7631C169.633 47.9308 169.619 47.3109 169.763 46.6974C169.895 46.1394 170.134 45.6669 170.751 45.6115C171.361 45.556 171.751 45.9285 171.929 46.485C172.366 47.8626 172.308 49.2498 171.888 50.6163C171.742 51.0919 171.36 51.3789 170.832 51.3376C170.293 51.2964 169.946 50.9762 169.792 50.4673C169.602 49.8427 169.616 49.1959 169.63 48.7631Z" fill="#3A4388"/>
<path d="M108.294 48.4096C108.294 49.0231 108.319 49.5463 108.288 50.0647C108.253 50.6322 107.974 51.0618 107.422 51.2743C106.929 51.4645 106.531 51.2933 106.342 50.8399C106.086 50.22 106.212 49.1848 107.059 48.9565C107.451 48.8519 107.81 48.6283 108.294 48.408V48.4096Z" fill="#3A4388"/>
<path d="M234.356 48.4032C234.291 49.123 234.44 49.7571 234.237 50.3928C234.056 50.9604 233.719 51.306 233.126 51.3361C232.633 51.3614 232.382 51.0365 232.273 50.5989C232.116 49.9695 232.377 49.3116 232.87 49.0532C232.91 49.0326 232.956 49.0199 232.997 49.0025C233.413 48.8202 233.828 48.6363 234.354 48.4048L234.356 48.4032Z" fill="#3A4388"/>
<path d="M204.593 48.3874C204.552 49.1071 204.685 49.7349 204.485 50.3674C204.311 50.9207 204.035 51.3297 203.412 51.3376C202.97 51.344 202.699 51.0967 202.605 50.6496C202.453 49.922 202.665 49.3021 203.188 49.0405C203.413 48.928 203.653 48.8455 203.881 48.7409C204.086 48.6473 204.284 48.5411 204.591 48.3874H204.593Z" fill="#3A4388"/>
<path d="M75.4793 47.5234C75.2273 47.2713 74.544 47.9593 74.4885 47.1556C74.4219 46.2044 74.8817 45.5956 75.5475 45.5988C76.188 45.6004 76.6493 46.2313 76.6398 47.0906C76.6366 47.3791 76.2498 47.5234 75.4793 47.5234Z" fill="#3A4388"/>
<path d="M120.65 48.5253C120.623 49.1689 120.661 49.8221 120.434 50.4404C120.239 50.973 119.911 51.3488 119.28 51.3583C118.654 51.3678 118.266 51.0428 118.096 50.4879C117.689 49.1515 117.701 47.7992 118.096 46.4644C118.267 45.8842 118.672 45.537 119.331 45.5671C119.967 45.5972 120.258 46.0078 120.444 46.5373C120.669 47.1825 120.612 47.8579 120.648 48.5237L120.65 48.5253Z" fill="#3A4388"/>
</svg>
