<svg width="41" height="41" viewBox="0 0 41 41" fill="none" xmlns="http://www.w3.org/2000/svg">
<path d="M39.7186 10.7838V29.9711C39.7186 35.5132 35.2542 40.0007 29.7535 40.0007H10.6837C5.18303 40.0007 0.718597 35.5132 0.718597 29.9711V10.7838C0.718597 5.24168 5.18303 0.75415 10.6837 0.75415L29.7535 0.75415C35.2542 0.75415 39.7186 5.24168 39.7186 10.7838Z" stroke="white"/>
<path d="M11.8333 16.6197H15.7184V29.1452H11.8333V16.6197ZM13.7758 10.3983C14.2184 10.4037 14.6494 10.5407 15.0147 10.7921C15.38 11.0434 15.6633 11.3978 15.8289 11.8107C15.9946 12.2236 16.0351 12.6766 15.9455 13.1127C15.8558 13.5487 15.64 13.9484 15.3252 14.2613C15.0104 14.5742 14.6106 14.7865 14.1762 14.8714C13.7418 14.9563 13.2921 14.91 12.8837 14.7384C12.4754 14.5668 12.1266 14.2774 11.8812 13.9068C11.6359 13.5363 11.505 13.1009 11.505 12.6556C11.505 12.057 11.7413 11.4828 12.1621 11.0595C12.5828 10.6361 13.1535 10.3983 13.7485 10.3983" fill="white"/>
<path d="M18.1398 16.6201H21.8471V18.3406C22.2219 17.7037 22.7599 17.1799 23.4049 16.8239C24.0498 16.468 24.7781 16.293 25.5133 16.3173C29.4257 16.3173 30.1508 18.905 30.1508 22.2772V29.1593H26.2794V23.0755C26.2794 21.6165 26.2794 19.7583 24.2684 19.7583C22.2575 19.7583 21.9566 21.3412 21.9566 22.9654V29.1593H18.0851L18.1398 16.6201Z" fill="white"/>
</svg>
