<svg width="37" height="27" viewBox="0 0 37 27" fill="none" xmlns="http://www.w3.org/2000/svg">
<path d="M35.4181 21.0556H35.4335L33.6524 20.4444V2.3019C33.6524 1.40604 32.9263 0.679993 32.0305 0.679993H4.46048C3.56511 0.679993 2.83857 1.40604 2.83857 2.3019V20.4439L1.05457 21.0556H1.07243C0.448653 21.2814 0 21.8733 0 22.5753V25.0062C0 25.9016 0.726041 26.6281 1.6219 26.6281H34.8681C35.7635 26.6281 36.49 25.902 36.49 25.0062V22.5753C36.49 21.8733 36.0414 21.2814 35.4176 21.0556H35.4181ZM20.2729 24.146H16.2186C15.547 24.146 15.0024 23.6014 15.0024 22.9298C15.0024 22.2583 15.547 21.7136 16.2186 21.7136H20.2729C20.9444 21.7136 21.4891 22.2583 21.4891 22.9298C21.4891 23.6014 20.9444 24.146 20.2729 24.146ZM30.4091 19.33H6.08287V3.92381H30.4091V19.3305V19.33Z" fill="#3A4388"/>
<path d="M21.7723 16.0095C21.3526 16.0095 21.013 16.3496 21.013 16.7688C21.013 17.188 21.3531 17.5286 21.7723 17.5286C22.1916 17.5286 22.5317 17.1885 22.5317 16.7688C22.5317 16.3491 22.1916 16.0095 21.7723 16.0095ZM16.9172 12.7328H22.0275C22.2895 12.7328 22.5172 12.5524 22.577 12.2977L23.4405 8.62743C23.524 8.27285 23.2548 7.93371 22.8911 7.93371H15.6909L15.5611 7.43488C15.4868 7.04894 15.1443 6.76286 14.7483 6.76286H13.5813C13.2802 6.76286 13.0361 7.00697 13.0361 7.308C13.0361 7.60903 13.2802 7.85314 13.5813 7.85314H14.5427L15.8057 12.715L15.3214 14.196C15.2669 14.362 15.2958 14.5443 15.3981 14.6857C15.5008 14.827 15.6649 14.911 15.8395 14.911H22.0507C22.3517 14.911 22.5958 14.6669 22.5958 14.3659C22.5958 14.0648 22.3517 13.8207 22.0507 13.8207H16.5916L16.8917 12.9027C16.9095 12.8477 16.9167 12.7907 16.9167 12.7333L16.9172 12.7328ZM19.942 9.78524C19.942 9.48421 20.1861 9.2401 20.4872 9.2401C20.7882 9.2401 21.0323 9.48421 21.0323 9.78524V11.0941C21.0323 11.3951 20.7882 11.6392 20.4872 11.6392C20.1861 11.6392 19.942 11.3951 19.942 11.0941V9.78524ZM17.7605 9.78524C17.7605 9.48421 18.0046 9.2401 18.3056 9.2401C18.6067 9.2401 18.8508 9.48421 18.8508 9.78524V11.0941C18.8508 11.3951 18.6067 11.6392 18.3056 11.6392C18.0046 11.6392 17.7605 11.3951 17.7605 11.0941V9.78524Z" fill="#3A4388"/>
</svg>
