<svg width="37" height="35" viewBox="0 0 37 35" fill="none" xmlns="http://www.w3.org/2000/svg">
<path d="M28 16.04C23.03 16.04 19 20.07 19 25.04C19 30.01 23.03 34.04 28 34.04C32.97 34.04 37 30.01 37 25.04C37 20.07 32.97 16.04 28 16.04ZM27.56 23.32L29.59 24.37C30.8 24.99 31.45 26.28 31.23 27.64C31.06 28.7 30.4 29.53 29.47 29.94V30.21C29.47 30.9 28.91 31.46 28.22 31.46C27.53 31.46 26.97 30.9 26.97 30.21V30.02C25.99 29.7 25.17 28.98 24.74 27.99C24.46 27.36 24.75 26.62 25.39 26.34C26.03 26.07 26.76 26.35 27.04 26.99C27.25 27.47 27.74 27.75 28.25 27.71C28.64 27.65 28.74 27.43 28.77 27.25C28.79 27.14 28.81 26.79 28.45 26.6L26.42 25.55C25.19 24.92 24.54 23.58 24.8 22.22C25.02 21.03 25.86 20.13 26.98 19.83V19.64C26.98 18.95 27.54 18.39 28.23 18.39C28.92 18.39 29.48 18.95 29.48 19.64V20.1C30.26 20.48 30.9 21.11 31.26 21.94C31.54 22.57 31.24 23.31 30.61 23.58C29.98 23.85 29.24 23.56 28.97 22.93C28.76 22.45 28.27 22.17 27.76 22.21C27.38 22.25 27.28 22.52 27.25 22.67C27.22 22.8 27.2 23.14 27.56 23.32Z" fill="#3A4388"/>
<path d="M31 0.359985H27C25.9 0.359985 25 1.25999 25 2.35999C25 3.45999 24.1 4.35999 23 4.35999C21.9 4.35999 21 3.45999 21 2.35999C21 1.25999 20.1 0.359985 19 0.359985H14C12.9 0.359985 12 1.25999 12 2.35999C12 3.45999 11.1 4.35999 10 4.35999C8.9 4.35999 8 3.45999 8 2.35999C8 1.25999 7.1 0.359985 6 0.359985H2C0.9 0.359985 0 1.25999 0 2.35999V27.36C0 28.46 0.9 29.36 2 29.36H17.35C16.81 28.02 16.5 26.57 16.5 25.04C16.5 18.7 21.66 13.54 28 13.54C29.79 13.54 31.49 13.96 33 14.7V2.35999C33 1.25999 32.1 0.359985 31 0.359985ZM6 24.54C4.9 24.54 4 23.64 4 22.54C4 21.44 4.9 20.54 6 20.54C7.1 20.54 8 21.44 8 22.54C8 23.64 7.1 24.54 6 24.54ZM6 18.54C4.9 18.54 4 17.64 4 16.54C4 15.44 4.9 14.54 6 14.54C7.1 14.54 8 15.44 8 16.54C8 17.64 7.1 18.54 6 18.54ZM12 24.54C10.9 24.54 10 23.64 10 22.54C10 21.44 10.9 20.54 12 20.54C13.1 20.54 14 21.44 14 22.54C14 23.64 13.1 24.54 12 24.54ZM12 18.54C10.9 18.54 10 17.64 10 16.54C10 15.44 10.9 14.54 12 14.54C13.1 14.54 14 15.44 14 16.54C14 17.64 13.1 18.54 12 18.54ZM12 12.54C10.9 12.54 10 11.64 10 10.54C10 9.43998 10.9 8.53998 12 8.53998C13.1 8.53998 14 9.43998 14 10.54C14 11.64 13.1 12.54 12 12.54ZM18 12.54C16.9 12.54 16 11.64 16 10.54C16 9.43998 16.9 8.53998 18 8.53998C19.1 8.53998 20 9.43998 20 10.54C20 11.64 19.1 12.54 18 12.54Z" fill="#3A4388"/>
</svg>
