<svg width="43" height="38" viewBox="0 0 43 38" fill="none" xmlns="http://www.w3.org/2000/svg">
<path d="M30.75 20.1788C30.75 19.4888 30.19 18.9288 29.5 18.9288H17.5C16.81 18.9288 16.25 19.4888 16.25 20.1788C16.25 20.8688 16.81 21.4288 17.5 21.4288H29.5C30.19 21.4288 30.75 20.8688 30.75 20.1788ZM5 29.6788C4.45 29.6788 4 29.2288 4 28.6788V11.6788C4 11.1288 4.45 10.6788 5 10.6788H31C31.55 10.6788 32 11.1288 32 11.6788V21.0988L36 17.0988V4.67883C36 2.46883 34.21 0.678833 32 0.678833H4C1.79 0.678833 0 2.46883 0 4.67883V29.6788C0 31.8888 1.79 33.6788 4 33.6788H20.32C20.4 33.0288 20.69 32.4188 21.15 31.9488C21.51 31.5888 22.52 30.5788 22.52 30.5788L23.42 29.6788H5ZM12 4.17883H16C16.83 4.17883 17.5 4.84883 17.5 5.67883C17.5 6.50883 16.83 7.17883 16 7.17883H12C11.17 7.17883 10.5 6.50883 10.5 5.67883C10.5 4.84883 11.17 4.17883 12 4.17883ZM6 3.67883C7.1 3.67883 8 4.57883 8 5.67883C8 6.77883 7.1 7.67883 6 7.67883C4.9 7.67883 4 6.77883 4 5.67883C4 4.57883 4.9 3.67883 6 3.67883ZM38.07 25.0188L35.2 22.1488C35 21.9488 34.69 21.9488 34.49 22.1488L26.45 30.1888C26.25 30.3888 26.25 30.6988 26.45 30.8988L29.32 33.7688C29.52 33.9688 29.83 33.9688 30.03 33.7688L38.07 25.7288C38.27 25.5288 38.27 25.2188 38.07 25.0188ZM24.65 32.6988C24.46 32.5088 24.14 32.4988 23.95 32.6988C23.62 33.0188 23.16 33.4888 22.93 33.7088C22.85 33.7888 22.8 33.8988 22.79 34.0188L22.54 37.2588C22.52 37.5688 22.78 37.8288 23.1 37.7988L26.21 37.4388C26.32 37.4288 26.43 37.3788 26.51 37.2988L27.53 36.2788C27.73 36.0788 27.73 35.7688 27.53 35.5688L24.66 32.6988H24.65ZM7.50999 23.9288C6.81999 23.9288 6.25999 24.4888 6.25999 25.1788C6.25999 25.8688 6.81999 26.4288 7.50999 26.4288H25.51C26.2 26.4288 26.76 25.8688 26.76 25.1788C26.76 24.4888 26.2 23.9288 25.51 23.9288H7.50999ZM29.51 13.9288H17.51C16.82 13.9288 16.26 14.4888 16.26 15.1788C16.26 15.8688 16.82 16.4288 17.51 16.4288H29.51C30.2 16.4288 30.76 15.8688 30.76 15.1788C30.76 14.4888 30.2 13.9288 29.51 13.9288Z" fill="#3A4388"/>
<path d="M12 13.6788H8C7.45 13.6788 7 14.1288 7 14.6788V19.6788C7 20.2288 7.45 20.6788 8 20.6788H12C12.55 20.6788 13 20.2288 13 19.6788V14.6788C13 14.1288 12.55 13.6788 12 13.6788ZM42.02 21.0588L39.15 18.1888C38.95 17.9888 38.64 17.9888 38.44 18.1888L36.93 19.6988C36.73 19.8988 36.73 20.2088 36.93 20.4088L39.8 23.2788C40 23.4788 40.31 23.4788 40.51 23.2788L42.02 21.7688C42.22 21.5688 42.22 21.2588 42.02 21.0588Z" fill="#3A4388"/>
</svg>
