<svg width="37" height="43" viewBox="0 0 37 43" fill="none" xmlns="http://www.w3.org/2000/svg">
<path d="M5.53255 7.4546H26.5569V5.2418C26.5569 2.79748 24.5751 0.815651 22.1307 0.815651H4.42615C1.98128 0.815651 0 2.79748 0 5.2418V38.4382C0 40.8825 1.98128 42.8643 4.42615 42.8643H22.1307C24.5751 42.8643 26.5569 40.8825 26.5569 38.4382V32.9056H5.53255C4.92134 32.9056 4.42615 32.4105 4.42615 31.7992V8.5621C4.42615 7.95088 4.92134 7.45569 5.53255 7.45569V7.4546ZM14.2612 40.0975H12.0484C10.8259 40.0975 9.83559 39.1066 9.83559 37.8847C9.83559 36.6623 10.8265 35.6719 12.0484 35.6719H14.2612C15.4836 35.6719 16.474 36.6628 16.474 37.8847C16.474 39.1072 15.4831 40.0975 14.2612 40.0975Z" fill="#3A4388"/>
<path d="M34.2772 10.1844H9.9838C8.76137 10.1844 7.771 11.1753 7.771 12.3972V27.9271C7.771 29.1495 8.76192 30.1399 9.9838 30.1399H34.2772C35.4997 30.1399 36.49 29.149 36.49 27.9271V12.3972C36.49 11.1747 35.4991 10.1844 34.2772 10.1844ZM14.9057 12.8297C16.1232 12.8297 17.1103 13.8168 17.1103 15.0344C17.1103 16.2519 16.1232 17.239 14.9057 17.239C13.6882 17.239 12.701 16.2519 12.701 15.0344C12.701 13.8168 13.6882 12.8297 14.9057 12.8297ZM16.6691 26.1185H14.0237C13.26 26.1185 12.6406 25.4997 12.6406 24.7354C12.6406 23.9711 13.26 23.3522 14.0237 23.3522H16.6691C17.4328 23.3522 18.0522 23.9716 18.0522 24.7354C18.0522 25.4991 17.4328 26.1185 16.6691 26.1185ZM23.7242 26.1185H21.0789C20.3146 26.1185 19.6957 25.4997 19.6957 24.7354C19.6957 23.9711 20.3146 23.3522 21.0789 23.3522H23.7242C24.488 23.3522 25.1073 23.9716 25.1073 24.7354C25.1073 25.4991 24.488 26.1185 23.7242 26.1185ZM31.5594 26.1185H28.1329C27.3686 26.1185 26.7498 25.4997 26.7498 24.7354C26.7498 23.9711 27.3686 23.3522 28.1329 23.3522H31.5594C32.3237 23.3522 32.9426 23.9716 32.9426 24.7354C32.9426 25.4991 32.3237 26.1185 31.5594 26.1185ZM31.5594 16.4169H21.0789C20.3146 16.4169 19.6957 15.7981 19.6957 15.0338C19.6957 14.2695 20.3146 13.6507 21.0789 13.6507H31.5594C32.3237 13.6507 32.9426 14.2701 32.9426 15.0338C32.9426 15.7976 32.3237 16.4169 31.5594 16.4169Z" fill="#3A4388"/>
</svg>
