<svg width="32" height="36" viewBox="0 0 32 36" fill="none" xmlns="http://www.w3.org/2000/svg">
<path d="M29 10.3398C28.86 10.3398 28.73 10.3599 28.59 10.3799C27.17 4.47985 21.95 0.0898438 15.73 0.0898438C9.51 0.0898438 4.29 4.47985 2.87 10.3799C2.75 10.3599 2.62 10.3398 2.5 10.3398C1.12 10.3398 0 11.4598 0 12.8398V15.8398C0 17.2198 1.12 18.3398 2.5 18.3398C2.8 18.3398 3.09 18.2798 3.36 18.1798C4.09 20.0298 5.89 21.3398 8 21.3398C8.55 21.3398 9 20.8898 9 20.3398C9 19.7898 8.55 19.3398 8 19.3398C6.35 19.3398 5 17.9898 5 16.3398V13.1698C5.22 7.29983 9.94 2.58984 15.73 2.58984C21.52 2.58984 26.48 7.51983 26.48 13.5798C26.48 13.5998 26.49 13.6298 26.49 13.6498V15.8398C26.49 17.2198 27.61 18.3398 28.99 18.3398C30.37 18.3398 31.49 17.2198 31.49 15.8398V12.8398C31.49 11.4598 30.37 10.3398 28.99 10.3398H29Z" fill="#3A4388"/>
<path d="M23.9403 24.3301H21.0103C20.3603 24.3301 19.7403 24.6501 19.3703 25.1801L17.3203 28.1201C16.5203 29.2701 14.8103 29.2601 14.0303 28.1001L12.0703 25.2101C11.7003 24.6601 11.0803 24.3301 10.4203 24.3301H7.54031C3.83031 24.3301 0.820312 27.3401 0.820312 31.0501V34.0301C0.820312 34.5801 1.27031 35.0301 1.82031 35.0301H29.6803C30.2303 35.0301 30.6803 34.5801 30.6803 34.0301V31.0501C30.6803 27.3401 27.6703 24.3301 23.9603 24.3301H23.9403ZM15.7303 21.8301C20.2803 21.8301 23.9703 18.1401 23.9703 13.5901C23.9703 9.04009 20.2803 5.3501 15.7303 5.3501C11.1803 5.3501 7.49031 9.04009 7.49031 13.5901C7.49031 18.1401 11.1803 21.8301 15.7303 21.8301Z" fill="#3A4388"/>
</svg>
