<svg width="37" height="37" viewBox="0 0 37 37" fill="none" xmlns="http://www.w3.org/2000/svg">
<path d="M18.2425 0.272449H16.8387V36.7675H18.2425C28.3037 36.7675 36.49 28.5347 36.49 18.416C36.49 8.29725 28.3037 0.272449 18.2425 0.272449ZM31.9647 11.3976H27.3287C26.7251 8.66862 25.7756 6.29468 24.575 4.44694C27.7546 5.87493 30.3674 8.32992 31.9647 11.3976ZM19.6463 3.43326C21.5999 4.3792 23.4482 7.237 24.4607 11.3976H19.6463V3.43326ZM19.6463 14.2046H24.9814C25.1562 15.5231 25.2609 16.9245 25.2609 18.4153C25.2609 19.9062 25.155 21.3028 24.9778 22.6261H19.6463V14.204V14.2046ZM19.6463 33.5825V25.4337H24.457C23.4373 29.6463 21.5775 32.5924 19.6463 33.5825ZM24.552 32.5846C25.7756 30.6927 26.7372 28.2456 27.3445 25.4337H32.0173C30.4212 28.5957 27.7751 31.1239 24.552 32.5846ZM27.809 22.6261C27.9729 21.2756 28.0685 19.8712 28.0685 18.4153C28.0685 16.9595 27.9705 15.5539 27.8029 14.2046H33.0867C33.4726 15.5437 33.683 16.9553 33.683 18.4153C33.683 19.8754 33.4756 21.2858 33.1 22.6261H27.809Z" fill="#3A4388"/>
<path d="M1.63279 15.2678C1.75859 15.3023 1.88621 15.3193 2.0102 15.3193C2.62409 15.3193 3.189 14.9122 3.36198 14.2911C3.52407 13.7086 3.72306 13.1292 3.9541 12.5691C4.24925 11.8524 3.90813 11.0323 3.19081 10.7365C2.47591 10.4401 1.65395 10.7831 1.3588 11.4992C1.08542 12.1627 0.848934 12.8492 0.657205 13.5393C0.44975 14.2856 0.886434 15.0598 1.63339 15.2678H1.63279ZM5.2085 9.19058C5.61313 9.19058 6.01473 9.01639 6.29234 8.6801C6.67822 8.21258 7.09494 7.76441 7.53223 7.34708C8.09351 6.81241 8.11468 5.92392 7.58002 5.36265C7.04354 4.80137 6.15566 4.78141 5.59499 5.31547C5.07665 5.80901 4.58372 6.34005 4.12647 6.89346C3.63294 7.49163 3.71822 8.37588 4.31639 8.86942C4.57767 9.08534 4.894 9.18997 5.2085 9.18997V9.19058ZM11.8936 23.4324L3.43274 26.1849C2.66704 26.4341 2.55272 27.469 3.24464 27.8796L5.31435 29.1068L0.502366 33.9188C0.137053 34.2841 0.137053 34.8768 0.502366 35.2421L1.21788 35.9583C1.58319 36.3236 2.17592 36.3236 2.54123 35.9583L7.39615 31.1046L8.5937 33.1839C8.99712 33.8843 10.0392 33.7785 10.2933 33.011L13.0718 24.6166C13.3125 23.8884 12.6236 23.1953 11.8936 23.433V23.4324ZM1.45073 21.1776C1.48823 21.1776 1.52694 21.1764 1.56384 21.1733C2.3368 21.1117 2.9138 20.4349 2.85151 19.6625C2.82852 19.38 2.814 19.0958 2.80735 18.8097C2.7892 18.0349 2.14386 17.4113 1.37089 17.4392C0.596113 17.4573 -0.0171729 18.1002 0.000367039 18.875C0.00883457 19.2143 0.0269796 19.5518 0.0535918 19.8863C0.11226 20.6211 0.726759 21.1782 1.45073 21.1782V21.1776ZM13.7607 2.21031C13.4958 1.48149 12.6914 1.1065 11.962 1.3696C11.2888 1.61395 10.6235 1.90063 9.98419 2.2224C9.29167 2.57078 9.01285 3.41451 9.36123 4.10703C9.608 4.59694 10.1021 4.88 10.6156 4.88C10.8279 4.88 11.0432 4.83161 11.2452 4.73C11.786 4.45844 12.3491 4.2153 12.9194 4.00845C13.6476 3.74414 14.0244 2.93851 13.7601 2.2097L13.7607 2.21031Z" fill="#3A4388"/>
</svg>
