<svg width="35" height="36" viewBox="0 0 35 36" fill="none" xmlns="http://www.w3.org/2000/svg">
<path d="M19.8609 17.5446L16.4809 15.8046C15.7109 15.4146 15.5509 14.6646 15.6609 14.1046C15.7109 13.8446 15.9509 12.9846 17.0209 12.8646C18.1109 12.7646 19.1709 13.3846 19.6109 14.4046C19.9409 15.1646 20.8209 15.5146 21.5809 15.1846C22.3409 14.8546 22.6909 13.9746 22.3609 13.2146C21.7709 11.8446 20.6809 10.8246 19.3509 10.2846V9.16461C19.3509 8.33461 18.6809 7.66461 17.8509 7.66461C17.0209 7.66461 16.3509 8.33461 16.3509 9.16461V9.95462C14.4809 10.2746 13.0709 11.6546 12.7109 13.5646C12.3309 15.5746 13.3009 17.5546 15.1109 18.4846L18.4909 20.2246C19.2409 20.6146 19.4109 21.3446 19.3209 21.9046C19.2809 22.1546 19.0809 22.9846 18.1209 23.1346C18.0609 23.1346 18.0009 23.1546 17.9409 23.1546C16.8409 23.2546 15.7909 22.6346 15.3509 21.6146C15.0209 20.8546 14.1409 20.5046 13.3809 20.8346C12.6209 21.1646 12.2709 22.0446 12.6009 22.8046C13.3009 24.4246 14.7109 25.5646 16.3509 25.9746V26.7246C16.3509 27.5546 17.0209 28.2246 17.8509 28.2246C18.6809 28.2246 19.3509 27.5546 19.3509 26.7246V25.8946C20.8909 25.3646 22.0109 24.0546 22.2809 22.3746C22.6009 20.3646 21.6509 18.4746 19.8609 17.5546V17.5446Z" fill="#3A4388"/>
<path d="M29.8509 5.50461C23.6309 -0.715391 13.8609 -1.24539 7.02087 3.88461L5.61088 2.47461C4.82088 1.68461 3.45087 2.15462 3.32087 3.26462L2.55088 9.64461C2.44089 10.5146 3.18088 11.2446 4.05088 11.1446L10.4309 10.3746C11.5509 10.2446 12.0209 8.87461 11.2209 8.08461L9.88087 6.74461C15.5509 2.87461 23.5209 3.78462 28.0809 9.51462C31.9309 14.3646 31.9209 21.4146 28.0609 26.2546C22.9509 32.6546 13.5609 33.0446 7.93087 27.4146C4.64087 24.1246 3.42088 19.5446 4.25088 15.2846C4.31088 14.9746 4.08087 14.6846 3.77087 14.6846H0.720883C0.470883 14.6846 0.260883 14.8646 0.220883 15.1046C-0.759117 21.2446 1.52088 27.7946 7.08088 31.9446C13.3609 36.6346 22.2209 36.4746 28.3509 31.5846C36.6509 24.9646 37.1509 12.7846 29.8509 5.49461V5.50461Z" fill="#3A4388"/>
</svg>
