<svg width="36" height="35" viewBox="0 0 36 35" fill="none" xmlns="http://www.w3.org/2000/svg">
<path d="M35.5 13.275H0.5C0.22 13.275 0 13.495 0 13.775V30.315C0 32.525 1.79 34.315 4 34.315H32C34.21 34.315 36 32.525 36 30.315V13.775C36 13.495 35.78 13.275 35.5 13.275ZM13.82 27.235C13.58 27.445 13.29 27.545 13 27.545C12.65 27.545 12.3 27.395 12.06 27.115L10.06 24.815C9.67 24.375 9.65 23.725 10 23.255L12 20.555C12.41 19.995 13.19 19.885 13.75 20.295C14.31 20.705 14.42 21.485 14.01 22.045L12.61 23.945L13.95 25.485C14.4 26.005 14.35 26.795 13.83 27.245L13.82 27.235ZM20.2 20.625L18.27 27.625C18.12 28.175 17.61 28.545 17.07 28.545C16.96 28.545 16.85 28.535 16.74 28.505C16.08 28.325 15.68 27.635 15.87 26.965L17.8 19.965C17.98 19.295 18.67 18.915 19.34 19.095C20 19.275 20.4 19.965 20.21 20.635L20.2 20.625ZM26 24.335L24 27.035C23.75 27.365 23.38 27.545 22.99 27.545C22.73 27.545 22.47 27.465 22.25 27.295C21.69 26.885 21.58 26.105 21.99 25.545L23.39 23.645L22.05 22.105C21.6 21.585 21.65 20.795 22.17 20.345C22.69 19.895 23.48 19.945 23.93 20.465L25.93 22.765C26.32 23.205 26.34 23.855 25.99 24.325L26 24.335Z" fill="#3A4388"/>
<path d="M32 0.804962H4C1.79 0.804962 0 2.59496 0 4.80496V10.265C0 10.545 0.22 10.765 0.5 10.765H35.5C35.78 10.765 36 10.545 36 10.265V4.80496C36 2.59496 34.21 0.804962 32 0.804962ZM6 7.80496C4.9 7.80496 4 6.90496 4 5.80496C4 4.70496 4.9 3.80496 6 3.80496C7.1 3.80496 8 4.70496 8 5.80496C8 6.90496 7.1 7.80496 6 7.80496ZM12.5 7.80496C11.4 7.80496 10.5 6.90496 10.5 5.80496C10.5 4.70496 11.4 3.80496 12.5 3.80496C13.6 3.80496 14.5 4.70496 14.5 5.80496C14.5 6.90496 13.6 7.80496 12.5 7.80496Z" fill="#3A4388"/>
</svg>
