<svg width="37" height="46" viewBox="0 0 37 46" fill="none" xmlns="http://www.w3.org/2000/svg">
<path d="M18.5888 3.49831H17.6056C17.0762 3.49831 16.6527 3.07479 16.6527 2.5454V2.51517C16.6527 1.29001 15.662 0.299301 14.4368 0.299301H14.3839C13.1587 0.299301 12.168 1.29001 12.168 2.51517V2.5454C12.168 3.07479 11.7445 3.49831 11.2151 3.49831H10.232C9.18077 3.49831 8.33374 4.3529 8.33374 5.39655V5.43435C8.33374 6.48557 9.18833 7.3326 10.232 7.3326H18.5888C19.64 7.3326 20.487 6.47801 20.487 5.43435V5.39655C20.487 4.34534 19.6324 3.49831 18.5888 3.49831Z" fill="#3A4388"/>
<path d="M14.4064 3.49826C13.877 3.49826 13.4459 3.06717 13.4459 2.53779C13.4459 2.0084 13.877 1.57735 14.4064 1.57735C14.9358 1.57735 15.3669 2.0084 15.3669 2.53779C15.3669 3.06717 14.9358 3.49826 14.4064 3.49826Z" fill="#3A4388"/>
<path d="M18.6799 40.6235H2.56374C1.14952 40.6235 0 39.474 0 38.0598V7.33255C0 5.91832 1.14954 4.76878 1.92093 4.76878H7.10893C7.06355 4.98054 7.04087 5.19985 7.04087 5.42673C7.04087 7.18128 8.47021 8.61065 10.2248 8.61065H18.5815C20.3361 8.61065 21.7654 7.18129 21.7654 5.38893C21.7654 5.17717 21.7428 4.96541 21.7049 4.76878H25.6073C27.6643 4.76878 28.8063 5.91832 28.8063 7.33255V26.572C28.5945 26.5569 28.3828 26.5418 28.1635 26.5418C27.2786 26.5418 26.4241 26.6703 25.5997 26.8821V11.8248H3.19146V37.4321H17.9463C18.0143 38.5589 18.2639 39.6328 18.6647 40.6311L18.6799 40.6235Z" fill="#3A4388"/>
<path d="M28.171 28.4628C23.5729 28.4628 19.8521 32.1912 19.8521 36.7817C19.8521 41.3723 23.5805 45.1007 28.171 45.1007C32.7616 45.1007 36.49 41.3723 36.49 36.7817C36.49 32.1912 32.7616 28.4628 28.171 28.4628Z" fill="#3A4388"/>
<path d="M33.6085 35.0725L28.4885 40.8353C28.239 41.1227 27.8835 41.2664 27.5281 41.2664C27.2482 41.2664 26.9609 41.1756 26.7264 40.9866L23.5274 38.4228C22.9753 37.9842 22.8846 37.175 23.3308 36.6229C23.7694 36.0708 24.5786 35.98 25.1307 36.4262L27.3844 38.2262L31.6951 33.3709C32.164 32.8415 32.9732 32.7962 33.5026 33.265C34.032 33.7339 34.0774 34.5431 33.6085 35.0725V35.0725Z" fill="#3A4388"/>
<path d="M22.4085 20.779H12.1686C11.8136 20.779 11.5258 21.0668 11.5258 21.4218V22.0571C11.5258 22.4121 11.8136 22.6999 12.1686 22.6999H22.4085C22.7635 22.6999 23.0513 22.4121 23.0513 22.0571V21.4218C23.0513 21.0668 22.7635 20.779 22.4085 20.779Z" fill="#3A4388"/>
<path d="M22.4085 15.0163H12.1686C11.8136 15.0163 11.5258 15.3041 11.5258 15.6591V16.2944C11.5258 16.6494 11.8136 16.9372 12.1686 16.9372H22.4085C22.7635 16.9372 23.0513 16.6494 23.0513 16.2944V15.6591C23.0513 15.3041 22.7635 15.0163 22.4085 15.0163Z" fill="#3A4388"/>
<path d="M19.2019 25.8989H12.1686C11.8136 25.8989 11.5258 26.1867 11.5258 26.5417V27.177C11.5258 27.532 11.8136 27.8198 12.1686 27.8198H19.2019C19.5569 27.8198 19.8447 27.532 19.8447 27.177V26.5417C19.8447 26.1867 19.5569 25.8989 19.2019 25.8989Z" fill="#3A4388"/>
<path d="M17.9238 31.6618H12.1686C11.8136 31.6618 11.5258 31.9496 11.5258 32.3046V32.9399C11.5258 33.2949 11.8136 33.5827 12.1686 33.5827H17.9238C18.2788 33.5827 18.5666 33.2949 18.5666 32.9399V32.3046C18.5666 31.9496 18.2788 31.6618 17.9238 31.6618Z" fill="#3A4388"/>
<path d="M10.2994 14.57L7.93987 17.2245C7.82642 17.353 7.66006 17.4211 7.50124 17.4211C7.37267 17.4211 7.24409 17.3757 7.13065 17.2925L5.65594 16.1128C5.39881 15.9086 5.36098 15.538 5.56517 15.2809C5.76936 15.0238 6.13994 14.9859 6.39707 15.1901L7.43315 16.022L9.42215 13.791C9.64147 13.549 10.012 13.5263 10.254 13.7456C10.4961 13.965 10.5187 14.3355 10.2994 14.5775V14.57Z" fill="#3A4388"/>
<path d="M10.2994 20.2647L7.93987 22.9192C7.82642 23.0478 7.66006 23.1158 7.50124 23.1158C7.37267 23.1158 7.24409 23.0705 7.13065 22.9873L5.65594 21.8075C5.39881 21.6033 5.36098 21.2327 5.56517 20.9756C5.76936 20.7184 6.13994 20.6806 6.39707 20.8848L7.43315 21.7167L9.42215 19.4857C9.64147 19.2437 10.012 19.2211 10.254 19.4404C10.4961 19.6597 10.5187 20.0302 10.2994 20.2723V20.2647Z" fill="#3A4388"/>
<path d="M10.2994 25.7098L7.93987 28.3643C7.82642 28.4929 7.66006 28.561 7.50124 28.561C7.37267 28.561 7.24409 28.5156 7.13065 28.4324L5.65594 27.2526C5.39881 27.0484 5.36098 26.6779 5.56517 26.4207C5.76936 26.1636 6.13994 26.1258 6.39707 26.33L7.43315 27.1619L9.42215 24.9308C9.64147 24.6888 10.012 24.6662 10.254 24.8855C10.4961 25.1048 10.5187 25.4754 10.2994 25.7174V25.7098Z" fill="#3A4388"/>
<path d="M10.2994 31.2004L7.93987 33.8549C7.82642 33.9834 7.66006 34.0515 7.50124 34.0515C7.37267 34.0515 7.24409 34.0061 7.13065 33.9229L5.65594 32.7431C5.39881 32.5389 5.36098 32.1684 5.56517 31.9112C5.76936 31.6541 6.13994 31.6163 6.39707 31.8205L7.43315 32.6524L9.42215 30.4214C9.64147 30.1794 10.012 30.1567 10.254 30.376C10.4961 30.5953 10.5187 30.9659 10.2994 31.2079V31.2004Z" fill="#3A4388"/>
</svg>
