<svg width="41" height="42" viewBox="0 0 41 42" fill="none" xmlns="http://www.w3.org/2000/svg">
<path d="M40.65 17.81C40.58 17.36 40.18 17.02 39.72 17.02H37.8C37.19 16.84 36.7 16.36 36.49 15.73C36.13 14.6 35.65 13.52 35.07 12.51C34.86 12.14 34.91 11.69 35.21 11.39L36.75 9.85001C37.08 9.52001 37.13 9 36.85 8.62C35.67 7.04 34.27 5.63 32.68 4.44C32.31 4.16 31.78 4.21001 31.45 4.54001L29.91 6.07999C29.61 6.37999 29.16 6.43 28.79 6.22C27.37 5.41 25.83 4.79998 24.19 4.41998V1.51999C24.19 1.05999 23.86 0.659996 23.4 0.589996C22.43 0.449996 21.45 0.359985 20.44 0.359985C19.43 0.359985 18.45 0.439996 17.48 0.589996C17.02 0.659996 16.69 1.05999 16.69 1.51999V4.41998C15.05 4.78998 13.51 5.4 12.09 6.22C11.72 6.43 11.27 6.37999 10.97 6.07999L9.43 4.54001C9.1 4.21001 8.57 4.16 8.2 4.44C6.62 5.62 5.21 7.02999 4.03 8.62C3.75 8.99 3.8 9.52001 4.13 9.85001L5.67 11.39C5.97 11.69 6.02 12.14 5.81 12.51C5.23 13.52 4.75 14.6 4.39 15.73C4.19 16.37 3.7 16.85 3.08 17.02H1.16C0.7 17.02 0.3 17.35 0.23 17.81C0.08 18.79 0 19.79 0 20.81C0 21.83 0.08 22.83 0.23 23.81C0.3 24.26 0.7 24.6 1.16 24.6H3.08C3.69 24.78 4.18 25.26 4.39 25.89C4.75 27.02 5.23 28.1 5.81 29.11C6.02 29.48 5.97 29.93 5.67 30.23L4.13 31.77C3.8 32.1 3.75 32.62 4.03 33C5.21 34.58 6.61 35.99 8.2 37.18C8.57 37.46 9.1 37.41 9.43 37.08L10.97 35.54C11.27 35.24 11.72 35.19 12.09 35.4C13.51 36.21 15.05 36.82 16.69 37.2V40.1C16.69 40.56 17.02 40.96 17.48 41.03C18.45 41.17 19.43 41.26 20.44 41.26C21.45 41.26 22.43 41.18 23.4 41.03C23.86 40.96 24.19 40.56 24.19 40.1V37.2C25.83 36.83 27.37 36.22 28.79 35.4C29.16 35.19 29.61 35.24 29.91 35.54L31.45 37.08C31.78 37.41 32.31 37.46 32.68 37.18C34.26 36 35.67 34.59 36.85 33C37.13 32.63 37.08 32.1 36.75 31.77L35.21 30.23C34.91 29.93 34.86 29.48 35.07 29.11C35.65 28.1 36.13 27.02 36.49 25.89C36.69 25.25 37.18 24.77 37.8 24.6H39.72C40.18 24.6 40.58 24.27 40.65 23.81C40.8 22.83 40.88 21.83 40.88 20.81C40.88 19.79 40.8 18.79 40.65 17.81ZM31.37 22.56C30.66 27.22 26.85 31.03 22.19 31.74C14.71 32.89 8.36 26.54 9.51 19.06C10.22 14.4 14.03 10.59 18.69 9.88C26.17 8.74 32.52 15.08 31.37 22.56Z" fill="#3A4388"/>
<path d="M22.54 20.26L19.72 18.81C19.07 18.48 19.13 17.85 19.17 17.66C19.21 17.44 19.38 16.91 20.08 16.83C20.89 16.76 21.66 17.21 21.99 17.96C22.32 18.72 23.2 19.07 23.96 18.74C24.72 18.41 25.07 17.53 24.74 16.77C24.27 15.7 23.45 14.87 22.44 14.37V13.4C22.44 12.57 21.77 11.9 20.94 11.9C20.11 11.9 19.44 12.57 19.44 13.4V13.91C17.79 14.2 16.54 15.42 16.22 17.11C15.89 18.9 16.74 20.65 18.35 21.48L21.17 22.93C21.67 23.19 21.79 23.69 21.73 24.07C21.7 24.28 21.55 24.79 20.93 24.89H20.81C20 24.98 19.23 24.52 18.9 23.77C18.57 23.01 17.69 22.66 16.93 22.99C16.17 23.32 15.82 24.2 16.15 24.96C16.77 26.38 18 27.39 19.45 27.75V28.4C19.45 29.23 20.12 29.9 20.95 29.9C21.78 29.9 22.45 29.23 22.45 28.4V27.52C23.63 26.98 24.48 25.9 24.7 24.54C24.99 22.76 24.14 21.08 22.55 20.26H22.54Z" fill="#3A4388"/>
</svg>
