<svg width="36" height="41" viewBox="0 0 36 41" fill="none" xmlns="http://www.w3.org/2000/svg">
<path d="M34.0315 9.05372C27.7215 8.27372 21.6515 3.55372 19.1115 1.34372C18.4015 0.723723 17.3415 0.723723 16.6315 1.34372C14.0915 3.55372 8.02153 8.27372 1.71153 9.05372C0.711527 9.17372 -0.0384721 10.0237 0.00152787 11.0337C0.781528 30.2137 13.3915 38.6337 16.9415 40.6337C17.5215 40.9637 18.2115 40.9637 18.7915 40.6337C22.3515 38.6337 34.9615 30.2137 35.7315 11.0337C35.7715 10.0237 35.0215 9.17372 34.0215 9.05372H34.0315ZM17.8715 30.3937C12.6215 30.3937 8.36153 26.1337 8.36153 20.8837C8.36153 15.6337 12.6215 11.3737 17.8715 11.3737C23.1215 11.3737 27.3815 15.6337 27.3815 20.8837C27.3815 26.1337 23.1215 30.3937 17.8715 30.3937Z" fill="#3A4388"/>
<path d="M22.0715 16.0737L16.4015 21.7437L13.6415 18.9837L11.6815 20.9437L14.4415 23.7037L16.4315 25.6937L18.3915 23.7337L24.0615 18.0637L22.0715 16.0737Z" fill="#3A4388"/>
</svg>
