<svg width="37" height="34" viewBox="0 0 37 34" fill="none" xmlns="http://www.w3.org/2000/svg">
<path d="M18.2425 13.24C16.5925 13.24 15.2425 14.59 15.2425 16.24C15.2425 17.89 16.5925 19.24 18.2425 19.24C19.8925 19.24 21.2425 17.89 21.2425 16.24C21.2425 14.59 19.8925 13.24 18.2425 13.24ZM35.8925 14.82C33.0925 12.06 26.2425 6.23999 18.2425 6.23999C10.2425 6.23999 3.3825 12.06 0.5925 14.82C-0.1975 15.6 -0.1975 16.87 0.5925 17.66C3.3925 20.42 10.2425 26.24 18.2425 26.24C26.2425 26.24 33.1025 20.42 35.8925 17.66C36.6825 16.88 36.6825 15.6 35.8925 14.82ZM18.2425 22.24C14.9325 22.24 12.2425 19.55 12.2425 16.24C12.2425 12.93 14.9325 10.24 18.2425 10.24C21.5525 10.24 24.2425 12.93 24.2425 16.24C24.2425 19.55 21.5525 22.24 18.2425 22.24Z" fill="#3A4388"/>
<path d="M8.81248 0.039978H4.01247C2.37247 0.039978 1.04248 1.36998 1.04248 3.00998V7.80998C1.04248 8.63998 1.71248 9.30998 2.54248 9.30998C3.37248 9.30998 4.04248 8.63998 4.04248 7.80998L4.01247 3.03998H8.81248C9.64248 3.03998 10.3125 2.36998 10.3125 1.53998C10.3125 0.709978 9.64248 0.039978 8.81248 0.039978ZM8.81248 30.44L4.04248 30.47V25.67C4.04248 24.84 3.37248 24.17 2.54248 24.17C1.71248 24.17 1.04248 24.84 1.04248 25.67V30.47C1.04248 32.11 2.37247 33.44 4.01247 33.44H8.81248C9.64248 33.44 10.3125 32.77 10.3125 31.94C10.3125 31.11 9.64248 30.44 8.81248 30.44ZM31.4825 0.039978H26.6825C25.8525 0.039978 25.1825 0.709978 25.1825 1.53998C25.1825 2.36998 25.8525 3.03998 26.6825 3.03998L31.4525 3.00998V7.80998C31.4525 8.63998 32.1225 9.30998 32.9525 9.30998C33.7825 9.30998 34.4525 8.63998 34.4525 7.80998V3.00998C34.4525 1.36998 33.1225 0.039978 31.4825 0.039978ZM32.9525 24.17C32.1225 24.17 31.4525 24.84 31.4525 25.67L31.4825 30.44H26.6825C25.8525 30.44 25.1825 31.11 25.1825 31.94C25.1825 32.77 25.8525 33.44 26.6825 33.44H31.4825C33.1225 33.44 34.4525 32.11 34.4525 30.47V25.67C34.4525 24.84 33.7825 24.17 32.9525 24.17Z" fill="#3A4388"/>
</svg>
