<svg width="37" height="45" viewBox="0 0 37 45" fill="none" xmlns="http://www.w3.org/2000/svg">
<path d="M5.68076 7.74876H27.2693V5.47646C27.2693 2.96605 25.2343 0.931856 22.7247 0.931856H4.5446C2.03418 0.931856 0 2.9669 0 5.47646V39.5635C0 42.0739 2.03503 44.1081 4.5446 44.1081H22.7247C25.2351 44.1081 27.2693 42.0731 27.2693 39.5635V33.8819H5.68076C5.05315 33.8819 4.5446 33.3734 4.5446 32.7458V8.88491C4.5446 8.25731 5.05315 7.74876 5.68076 7.74876ZM14.7708 41.2677H12.4985C11.2433 41.2677 10.2262 40.2506 10.2262 38.9954C10.2262 37.7402 11.2433 36.7231 12.4985 36.7231H14.7708C16.026 36.7231 17.0431 37.7402 17.0431 38.9954C17.0431 40.2506 16.026 41.2677 14.7708 41.2677Z" fill="#3A4388"/>
<path d="M32.1048 33.6778C31.012 33.6778 30.1268 34.5631 30.1268 35.6559C30.1268 36.7486 31.012 37.6339 32.1048 37.6339C33.1976 37.6339 34.0829 36.7486 34.0829 35.6559C34.0829 34.5631 33.1976 33.6778 32.1048 33.6778ZM19.46 25.1439H32.7698C33.4519 25.1439 34.0455 24.6745 34.2011 24.0103L36.4504 14.4509C36.6673 13.5282 35.9674 12.6437 35.0192 12.6437H16.2659L15.9283 11.3443C15.7352 10.34 14.8423 9.59416 13.8108 9.59416H10.7714C9.98645 9.59416 9.3512 10.2303 9.3512 11.0143C9.3512 11.7984 9.9873 12.4345 10.7714 12.4345H13.2758L16.5661 25.0972L15.3041 28.9546C15.1629 29.3875 15.2369 29.862 15.5039 30.2302C15.7718 30.5985 16.1987 30.817 16.6537 30.817H32.8311C33.616 30.817 34.2513 30.1809 34.2513 29.3969C34.2513 28.6128 33.6152 27.9767 32.8311 27.9767H18.613L19.3946 25.5853C19.4413 25.4424 19.4592 25.2936 19.4592 25.1439H19.46ZM27.3374 17.4664C27.3374 16.6823 27.9735 16.0462 28.7576 16.0462C29.5417 16.0462 30.1778 16.6823 30.1778 17.4664V20.8749C30.1778 21.6598 29.5417 22.2951 28.7576 22.2951C27.9735 22.2951 27.3374 21.6589 27.3374 20.8749V17.4664ZM21.6558 17.4664C21.6558 16.6823 22.2919 16.0462 23.076 16.0462C23.8601 16.0462 24.4962 16.6823 24.4962 17.4664V20.8749C24.4962 21.6598 23.8601 22.2951 23.076 22.2951C22.2919 22.2951 21.6558 21.6589 21.6558 20.8749V17.4664Z" fill="#3A4388"/>
</svg>
