<svg width="40" height="29" viewBox="0 0 40 29" fill="none" xmlns="http://www.w3.org/2000/svg">
<path d="M19.9359 8.88438V25.3705L33.0604 22.8784V14.8476C33.0604 14.5121 33.3548 14.252 33.6903 14.2862L35.306 14.5327C35.5867 14.5669 35.8058 14.8065 35.8058 15.0941V24.4257C35.8058 24.6927 35.621 24.9186 35.3608 24.9734L20.9902 28.0611C20.2988 28.2118 19.5799 28.2118 18.8815 28.0611L4.66842 25.0693C4.41511 25.0145 4.23026 24.7954 4.22341 24.5352L3.97694 15.0598C3.9701 14.7654 4.19603 14.5121 4.49042 14.4847L16.5606 13.4235C16.7729 13.403 16.9509 13.2729 17.033 13.0744L18.8541 8.65844C19.0869 8.09019 19.9359 8.2545 19.9359 8.87068V8.88438ZM3.84001 3.48942L0.0539495 11.5887C-0.130903 11.9858 0.184032 12.4308 0.622202 12.3897L14.849 10.952C15.0476 10.9315 15.2256 10.8082 15.3077 10.6234L19.888 0.312679L4.25079 3.18132C4.07279 3.21555 3.92216 3.33196 3.84001 3.49627V3.48942ZM19.8811 0.305847L24.7284 10.9452C24.8105 11.13 24.9885 11.2532 25.1939 11.2738L39.3933 12.4171C39.8247 12.4513 40.1259 12.0132 39.9479 11.6229L36.244 3.5031C36.1687 3.33194 36.0112 3.21555 35.8332 3.18132L19.8811 0.312679V0.305847Z" fill="#3A4388"/>
</svg>
