<svg width="37" height="28" viewBox="0 0 37 28" fill="none" xmlns="http://www.w3.org/2000/svg">
<path d="M34.8717 0.889435H1.58078C0.809751 0.889435 0 1.42869 0 2.23961V23.2369C0 24.0478 0.809751 24.201 1.58078 24.201H34.8717C35.6814 24.201 36.49 24.0478 36.49 23.2369V2.23961C36.49 1.42869 35.6814 0.889435 34.8717 0.889435ZM13.449 16.7254C12.5635 16.7254 11.8688 17.4571 11.8688 18.3449H24.6218C24.6218 17.4571 23.8913 16.7254 23.0047 16.7254V9.63596L23.0416 9.75097C23.1208 10.1365 23.467 10.3677 23.8132 10.3677C23.8913 10.3677 23.9282 10.3677 24.0063 10.3295C24.4305 10.2133 24.6999 9.79087 24.5849 9.36662L23.0047 5.59013H13.4484L11.9069 9.36662C11.7913 9.79087 12.0607 10.2133 12.4861 10.3295C12.523 10.3677 12.5999 10.3677 12.6774 10.3677C13.0253 10.3677 13.3328 10.1365 13.449 9.75097L13.4871 9.63596V16.7254H13.449ZM18.7663 14.7216H21.6163C21.6562 14.7216 21.7325 14.7609 21.7325 14.7996V15.1458C21.7325 15.1839 21.6556 15.2239 21.6163 15.2239H18.7663C18.7282 15.2239 18.6508 15.1845 18.6508 15.1458V14.7996C18.6508 14.7615 18.7282 14.7216 18.7663 14.7216ZM18.7663 13.7598H21.6163C21.6562 13.7598 21.7325 13.798 21.7325 13.8749V14.1829C21.7325 14.261 21.6556 14.2991 21.6163 14.2991H18.7663C18.7282 14.2991 18.6508 14.261 18.6508 14.1829V13.8749C18.6508 13.798 18.7282 13.7598 18.7663 13.7598ZM18.7663 12.8339H21.6163C21.6562 12.8339 21.7325 12.872 21.7325 12.9119V13.2581C21.7325 13.2963 21.6556 13.335 21.6163 13.335H18.7663C18.7282 13.335 18.6508 13.2969 18.6508 13.2581V12.9119C18.6508 12.872 18.7282 12.8339 18.7663 12.8339ZM18.7663 11.8698H21.6163C21.6562 11.8698 21.7325 11.9091 21.7325 11.986V12.2952C21.7325 12.3733 21.6556 12.4114 21.6163 12.4114H18.7663C18.7282 12.4114 18.6508 12.3733 18.6508 12.2952V11.986C18.6508 11.9091 18.7282 11.8698 18.7663 11.8698ZM15.1436 11.8317H17.956C18.0716 11.8317 18.189 11.8698 18.2664 11.9479C18.3433 12.0247 18.4202 12.1421 18.4202 12.2559V14.8383C18.4202 14.9533 18.3427 15.0695 18.2664 15.1464C18.189 15.2244 18.0716 15.3007 17.956 15.3007H15.1436C15.028 15.3007 14.9124 15.2239 14.8355 15.1464C14.7581 15.0695 14.7199 14.9533 14.7199 14.8383V12.2559C14.7199 12.1421 14.7581 12.0247 14.8355 11.9479C14.9124 11.8698 15.028 11.8317 15.1436 11.8317ZM14.257 10.3683C14.6818 10.3683 15.0661 10.0221 15.0661 9.55968C15.0661 10.0221 15.4147 10.3683 15.8366 10.3683C16.3001 10.3683 16.6463 10.0221 16.6463 9.55968C16.6463 10.0221 16.9943 10.3683 17.4561 10.3683C17.8797 10.3683 18.2253 10.0221 18.2253 9.55968C18.2253 10.0221 18.6103 10.3683 19.0357 10.3683C19.4611 10.3683 19.846 10.0221 19.846 9.55968C19.846 10.0221 20.1922 10.3683 20.6147 10.3683C21.0771 10.3683 21.4256 10.0221 21.4256 9.55968C21.4256 10.0221 21.7718 10.3683 22.2342 10.3683V16.726H14.257V10.3683ZM34.1787 20.5031H2.31249V3.16379H34.1787V20.5031ZM22.9278 26.5903C22.2712 26.128 22.2342 25.2812 22.2342 25.2812L22.0019 23.6236H14.4887L14.257 25.2812C14.257 25.2812 14.1801 26.0517 13.564 26.5123C12.9479 26.9377 12.4456 27.3983 12.9479 27.4382C13.4102 27.5151 17.9173 27.4764 18.2253 27.4764C18.5739 27.4764 23.0827 27.5533 23.5433 27.4764C24.045 27.4382 23.5433 27.0521 22.9278 26.5898V26.5903Z" fill="#3A4388"/>
</svg>
