<svg width="37" height="40" viewBox="0 0 37 40" fill="none" xmlns="http://www.w3.org/2000/svg">
<path d="M23.7688 4.96213H22.7687L23.0628 3.97502C23.1544 3.6547 23.2655 3.09903 23.2655 3.09903H23.2786C23.2786 3.09903 23.3897 3.6547 23.4812 3.97502L23.7623 4.96213H23.7688ZM18.8399 3.62203C18.8399 3.23634 18.6961 3.01405 18.075 3.01405H17.6567V4.24957H18.1992C18.598 4.24957 18.8464 4.0273 18.8464 3.62854L18.8399 3.62203ZM12.8715 5.96882C13.6298 5.96882 14.2443 5.31511 14.2443 4.45222C14.2443 3.58932 13.6364 2.99446 12.8715 2.99446C12.1067 2.99446 11.5053 3.62201 11.5053 4.45222C11.5053 5.28242 12.1132 5.96882 12.8715 5.96882ZM31.6591 8.93014V11.205H33.045C34.9407 11.205 36.4835 12.7413 36.4835 14.6435V39.3276H29.8549V19.0822H6.23638V39.3276H0V14.6435C0 12.7478 1.53622 11.205 3.43851 11.205H4.82437V8.93014H1.71925C0.771374 8.93014 0 8.15876 0 7.21089V1.78511C0 0.837236 0.771374 0.0658569 1.71925 0.0658569H34.7708C35.7186 0.0658569 36.49 0.837236 36.49 1.78511V7.21089C36.49 8.15876 35.7186 8.93014 34.7708 8.93014H31.6656H31.6591ZM31.7114 7.02128H34.9865V5.95574H32.9469V4.9948H34.4962V3.92926H32.9469V3.00754H34.8819V1.942H31.7049V7.01478L31.7114 7.02128ZM20.8991 7.02128H22.1738L22.481 5.95574H24.063L24.3768 7.02128H25.6515L23.9257 1.94854H22.6183L20.8925 7.02128H20.8991ZM16.4146 7.02128H17.6567V5.30857H18.2385L19.1406 7.02128H20.5264L19.5393 5.24976C19.4217 5.03404 19.3498 4.9425 19.3498 4.9425V4.92945C19.8531 4.6745 20.1081 4.08617 20.1081 3.54359C20.1081 2.8049 19.7485 2.28846 19.1733 2.0662C18.951 1.98122 18.7026 1.94854 18.1862 1.94854H16.4212V7.02128H16.4146ZM10.2175 4.45222C10.2175 5.94267 11.3353 7.10627 12.8715 7.10627C14.4077 7.10627 15.5256 5.94267 15.5256 4.45222C15.5256 2.96176 14.4012 1.86356 12.8715 1.86356C11.3418 1.86356 10.2175 3.00098 10.2175 4.45222ZM5.22313 5.53085C5.22313 3.92926 2.93515 4.04039 2.93515 3.39975C2.93515 3.11866 3.21625 3.001 3.47773 3.001C4.08568 3.001 4.59557 3.44552 4.59557 3.44552L5.11854 2.43228C5.11854 2.43228 4.57596 1.85701 3.48427 1.85701C2.47756 1.85701 1.68657 2.4715 1.68657 3.41284C1.68657 4.9752 3.96801 4.95557 3.96801 5.55698C3.96801 5.86423 3.69345 5.96228 3.43851 5.96228C2.79787 5.96228 2.22261 5.43932 2.22261 5.43932L1.5689 6.38066C1.5689 6.38066 2.22914 7.10627 3.41889 7.10627C4.60864 7.10627 5.21006 6.37413 5.21006 5.53085H5.22313ZM8.40015 3.01405H9.94291V1.94854H5.62189V3.01405H7.16464V7.02128H8.40669V3.01405H8.40015ZM27.5734 8.93014H8.89697V11.205H27.5734V8.93014ZM30.672 4.15804H28.8547V5.21708H29.5738V5.60929C29.5738 5.60929 29.1423 5.97537 28.5474 5.97537C27.763 5.97537 27.0897 5.40011 27.0897 4.43262C27.0897 3.68086 27.5211 3.001 28.5867 3.001C29.3057 3.001 29.8222 3.47165 29.8222 3.47165L30.4171 2.5434C30.4171 2.5434 29.7633 1.87006 28.469 1.87006C26.9197 1.87006 25.8084 3.00754 25.8084 4.47839C25.8084 6.13881 26.9982 7.11281 28.299 7.11281C29.1423 7.11281 29.6326 6.67484 29.6326 6.67484H29.6457C29.6457 6.67484 29.6391 6.77944 29.6391 6.88403V7.02783H30.672V4.15804ZM28.4559 38.7589V37.7194C28.4559 37.4057 28.201 37.1442 27.8807 37.1442H8.58319C8.26941 37.1442 8.00793 37.3991 8.00793 37.7194V38.7589C8.00793 39.0726 8.26287 39.3341 8.58319 39.3341H27.8807C28.1944 39.3341 28.4559 39.0792 28.4559 38.7589ZM28.4559 23.011V21.9716C28.4559 21.6578 28.201 21.3964 27.8807 21.3964H8.58319C8.26941 21.3964 8.00793 21.6513 8.00793 21.9716V23.011C8.00793 23.3248 8.26287 23.5863 8.58319 23.5863H27.8807C28.1944 23.5863 28.4559 23.3313 28.4559 23.011ZM28.4559 26.9463V25.9069C28.4559 25.5932 28.201 25.3317 27.8807 25.3317H8.58319C8.26941 25.3317 8.00793 25.5866 8.00793 25.9069V26.9463C8.00793 27.2601 8.26287 27.5216 8.58319 27.5216H27.8807C28.1944 27.5216 28.4559 27.2667 28.4559 26.9463ZM28.4559 30.8816V29.8423C28.4559 29.5285 28.201 29.267 27.8807 29.267H8.58319C8.26941 29.267 8.00793 29.522 8.00793 29.8423V30.8816C8.00793 31.1954 8.26287 31.4569 8.58319 31.4569H27.8807C28.1944 31.4569 28.4559 31.202 28.4559 30.8816ZM28.4559 34.817V33.7776C28.4559 33.4638 28.201 33.2023 27.8807 33.2023H8.58319C8.26941 33.2023 8.00793 33.4573 8.00793 33.7776V34.817C8.00793 35.1308 8.26287 35.3922 8.58319 35.3922H27.8807C28.1944 35.3922 28.4559 35.1373 28.4559 34.817Z" fill="#3A4388"/>
<rect x="1.3074" y="1.37328" width="33.9928" height="5.88338" fill="#3A4388"/>
</svg>
