<svg width="39" height="26" viewBox="0 0 39 26" fill="none" xmlns="http://www.w3.org/2000/svg">
<path d="M37.63 3.06C37.93 3.06 38.18 2.51002 38.18 1.83002C38.18 1.15002 37.93 0.599976 37.63 0.599976H5.71004C5.41004 0.599976 5.16003 1.15002 5.16003 1.83002C5.16003 2.51002 5.40004 3.06 5.71004 3.06H6.96004V1.83002H36.48V3.06H37.62H37.63Z" fill="#3A4388"/>
<path d="M36.49 22.72V23.27H14.85C14.83 23.08 14.81 22.9 14.78 22.72C14.35 20.63 12.5 19.05 10.27 19.05H4.60001C2.06001 19.05 0 21.11 0 23.65V25.88H14.87V23.81H37.63C37.93 23.81 38.18 23.56 38.18 23.26C38.18 22.96 37.93 22.71 37.63 22.71H36.49V22.72ZM9.26001 25.1H5.61L4.55 19.56C4.65 19.56 4.76 19.54 4.86 19.54H9.99001C10.1 19.54 10.2 19.54 10.3 19.56L9.24001 25.1H9.26001Z" fill="#3A4388"/>
<path d="M6.95995 19.05H8.36995V18.5C8.05995 18.56 7.74995 18.59 7.41995 18.59C7.25995 18.59 7.10995 18.59 6.94995 18.57V19.06L6.95995 19.05Z" fill="#3A4388"/>
<path d="M14.77 22.72C14.81 22.9 14.83 23.08 14.84 23.27H36.48V1.83002H6.95996V8.82001C7.11996 8.81001 7.26996 8.79999 7.42996 8.79999C7.74996 8.79999 8.06996 8.83001 8.37996 8.89001V3.06H35.07V22.72H14.77Z" fill="#3A4388"/>
<path d="M8.38 18.5V19.05H10.27C12.49 19.05 14.35 20.63 14.78 22.72H35.08V3.06H8.39V8.89001C10.64 9.33001 12.34 11.31 12.34 13.69C12.34 16.07 10.64 18.05 8.39 18.49L8.38 18.5ZM32.81 18.39L32.78 18.43H32.07L32.81 17.49V18.39ZM32.81 17.25L31.88 18.42H31.16L32.8 16.34V17.24L32.81 17.25ZM32.81 16.11L30.98 18.42H30.27L32.81 15.21V16.11ZM32.81 14.97L30.08 18.42H29.37L32.81 14.07V14.97ZM32.81 13.83L29.19 18.41H28.48L32.82 12.92V13.82L32.81 13.83ZM28.05 5.31H28.76L28.05 6.20001V5.31ZM28.05 6.44L28.94 5.31H29.65L28.05 7.33997V6.44ZM28.05 7.58002L29.84 5.32001H30.55L28.05 8.48999V7.58997V7.58002ZM28.05 8.71997L30.74 5.32001H31.45L28.05 9.62V8.71997ZM28.05 9.85999L31.64 5.32001H32.35L28.05 10.76V9.85999ZM28.05 11L32.54 5.33002H32.81V5.89001L28.05 11.91V11.01V11ZM28.05 12.14L32.81 6.12V7.01996L28.05 13.04V12.14ZM28.05 13.28L32.81 7.26001V8.15997L28.05 14.18V13.28ZM28.05 14.42L32.81 8.39996V9.29999L28.05 15.32V14.42ZM28.05 15.56L32.81 9.53998V10.44L28.05 16.46V15.56ZM28.05 16.7L32.81 10.68V11.58L28.05 17.6V16.7ZM28.05 17.84L32.81 11.82V12.72L28.29 18.44H28.06V17.83L28.05 17.84ZM21.23 9.87H25.99V18.44H21.23V9.87ZM14.41 13.97H19.17V18.45H14.41V13.97Z" fill="white"/>
<path d="M7.43004 8.79999C7.27004 8.79999 7.12004 8.80001 6.96004 8.82001C4.48004 9.06001 2.53003 11.15 2.53003 13.69C2.53003 16.23 4.47004 18.33 6.96004 18.56C7.12004 18.57 7.27004 18.58 7.43004 18.58C7.75004 18.58 8.07004 18.55 8.38004 18.49C10.63 18.05 12.33 16.07 12.33 13.69C12.33 11.31 10.63 9.33001 8.38004 8.89001C8.07004 8.83001 7.76004 8.79999 7.43004 8.79999Z" fill="#3A4388"/>
<path d="M8.01007 21.37L8.58006 25.1H9.26007L10.3201 19.56C10.2201 19.56 10.1101 19.54 10.0101 19.54H4.88007C4.77007 19.54 4.67007 19.54 4.57007 19.56L5.63007 25.1H6.31007L6.88007 21.37H6.90007L6.34007 20.35H8.57007L8.01007 21.37H8.03006H8.01007Z" fill="white"/>
<path d="M6.29004 25.1H8.58003L8.01004 21.37H7.99004L8.55003 20.35H6.32004L6.88004 21.37H6.86003L6.29004 25.1Z" fill="#3A4388"/>
<path d="M19.17 13.94H14.41V18.42H19.17V13.94Z" fill="#3A4388"/>
<path d="M25.99 9.84998H21.23V18.42H25.99V9.84998Z" fill="#3A4388"/>
<path d="M32.81 14.97V14.07L29.37 18.42H30.08L32.81 14.97Z" fill="#3A4388"/>
<path d="M32.81 13.83V12.93L28.47 18.42H29.18L32.81 13.83Z" fill="#3A4388"/>
<path d="M28.76 5.32001H28.05V6.20996L28.76 5.32001Z" fill="#3A4388"/>
<path d="M32.81 8.14996V7.25L28.05 13.26V14.17L32.81 8.14996Z" fill="#3A4388"/>
<path d="M32.8098 9.28973V8.37976L28.0498 14.3997V15.2997L32.8098 9.28973Z" fill="#3A4388"/>
<path d="M28.28 18.42L32.81 12.7V11.79L28.05 17.81V18.42H28.28Z" fill="#3A4388"/>
<path d="M32.8098 7.01025V6.11023L28.0498 12.1302V13.0302L32.8098 7.01025Z" fill="#3A4388"/>
<path d="M32.81 11.56V10.66L28.05 16.67V17.58L32.81 11.56Z" fill="#3A4388"/>
<path d="M28.05 7.34998L29.65 5.32001H28.94L28.05 6.45001V7.34998Z" fill="#3A4388"/>
<path d="M32.81 10.42V9.51996L28.05 15.54V16.44L32.81 10.42Z" fill="#3A4388"/>
<path d="M28.05 9.62L31.45 5.32001H30.7401L28.05 8.71997V9.62Z" fill="#3A4388"/>
<path d="M32.8102 17.2397V16.3397L31.1602 18.4197H31.8802L32.8102 17.2397Z" fill="#3A4388"/>
<path d="M32.8101 18.38V17.48L32.0601 18.42H32.7801L32.8101 18.38Z" fill="#3A4388"/>
<path d="M28.05 10.76L32.35 5.32001H31.64L28.05 9.84998V10.76Z" fill="#3A4388"/>
<path d="M32.81 16.11V15.2L30.27 18.42H30.98L32.81 16.11Z" fill="#3A4388"/>
<path d="M28.05 8.48999L30.55 5.32001H29.84L28.05 7.58002V8.48999Z" fill="#3A4388"/>
<path d="M28.05 11.89L32.81 5.88V5.32001H32.53L28.05 10.99V11.89Z" fill="#3A4388"/>
</svg>
