<svg width="43" height="39" viewBox="0 0 43 39" fill="none" xmlns="http://www.w3.org/2000/svg">
<path d="M12.0113 9.69137L9.71135 7.77137C10.6713 5.57137 9.97135 2.94137 7.91135 1.55137C5.59135 -0.018629 2.44135 0.591372 0.871348 2.91137C-0.698652 5.23137 -0.0886517 8.38137 2.23135 9.95137C3.94135 11.1114 6.11135 11.0714 7.76135 10.0514L10.1313 12.0314C10.6613 11.1714 11.2913 10.3914 12.0213 9.70137L12.0113 9.69137ZM16.2213 31.2614L16.8713 28.8114C15.8813 28.5514 14.9413 28.1514 14.0813 27.6514L13.2913 30.6114C12.2713 30.7914 11.3213 31.3514 10.6913 32.2814C9.47135 34.0814 9.94135 36.5414 11.7413 37.7614C13.5413 38.9814 16.0013 38.5114 17.2213 36.7114C18.4313 34.9314 17.9713 32.5114 16.2213 31.2814V31.2614ZM40.6613 12.5114C38.7913 11.2514 36.2513 11.7314 34.9913 13.6014C34.7713 13.9314 34.6213 14.2814 34.5013 14.6414L30.6613 14.9014C30.9213 15.8514 31.0713 16.8514 31.0713 17.8814L34.6913 17.6414C34.9913 18.2814 35.4513 18.8514 36.0713 19.2714C37.9413 20.5314 40.4813 20.0514 41.7413 18.1814C43.0013 16.3114 42.5213 13.7714 40.6513 12.5114H40.6613Z" fill="#3A4388"/>
<path d="M19.7614 9.08136C14.9014 9.08136 10.9514 13.0214 10.9514 17.8914C10.9514 22.7614 14.8914 26.7014 19.7614 26.7014C24.6314 26.7014 28.5714 22.7614 28.5714 17.8914C28.5714 13.0214 24.6314 9.08136 19.7614 9.08136ZM19.2714 16.1914L21.3014 17.2414C22.5114 17.8614 23.1614 19.1514 22.9414 20.5014C22.7714 21.5614 22.1114 22.3914 21.1814 22.8014V23.3814C21.1814 24.0714 20.6214 24.6314 19.9314 24.6314C19.2414 24.6314 18.6814 24.0714 18.6814 23.3814V22.8814C17.7014 22.5614 16.8814 21.8414 16.4514 20.8514C16.1714 20.2214 16.4714 19.4814 17.1014 19.2114C17.7314 18.9314 18.4714 19.2314 18.7414 19.8614C18.9514 20.3414 19.4414 20.6214 19.9514 20.5814C20.3414 20.5214 20.4414 20.3014 20.4714 20.1214C20.4914 20.0214 20.5114 19.6614 20.1514 19.4714L18.1214 18.4214C16.8914 17.7914 16.2414 16.4514 16.5014 15.0914C16.7214 13.9014 17.5614 13.0014 18.6814 12.7014V12.5114C18.6814 11.8214 19.2414 11.2614 19.9314 11.2614C20.6214 11.2614 21.1814 11.8214 21.1814 12.5114V12.9714C21.9614 13.3514 22.6014 13.9814 22.9614 14.8114C23.2414 15.4414 22.9514 16.1814 22.3114 16.4614C21.6714 16.7414 20.9414 16.4514 20.6614 15.8114C20.4514 15.3314 19.9614 15.0414 19.4514 15.0914C19.0714 15.1314 18.9714 15.4014 18.9414 15.5514C18.9114 15.6814 18.9014 16.0214 19.2514 16.2014L19.2714 16.1914Z" fill="#3A4388"/>
</svg>
