<svg width="173" height="44" viewBox="0 0 173 44" fill="none" xmlns="http://www.w3.org/2000/svg">
<g clip-path="url(#clip0_1_776)">
<path d="M26.592 18.9264H12.2461V43.4955H4.28002V18.9264H0.74646V12.4908H4.28002V10.9234C4.28002 7.11801 5.36377 4.31845 7.53297 2.52808C9.70385 0.7377 14.3111 -0.102167 18.6864 0.0101505V6.61342C16.7794 6.57654 14.1162 6.89337 13.3685 7.5656C12.6208 8.23783 12.2461 9.44986 12.2461 11.2034V12.4908H26.592V18.9264Z" fill="white"/>
<path d="M29.7223 12.4907H21.8688V43.4971H29.7223V12.4907Z" fill="white"/>
<path d="M52.4594 12.0431C56.1609 12.0431 59.1535 13.2183 61.4352 15.5686C63.717 17.882 64.8579 21.1274 64.8579 25.3067V43.4954H57.0044V26.3695C57.0044 23.9069 56.3878 22.0226 55.1528 20.7167C53.9195 19.3739 52.2359 18.7017 50.1037 18.7017C47.9714 18.7017 46.2139 19.3739 44.9436 20.7167C43.7103 22.0226 43.092 23.9069 43.092 26.3695V43.4954H35.2385V12.4907H43.092V16.3531C44.1388 15.0103 45.4662 13.9659 47.0742 13.2183C48.7191 12.4354 50.5153 12.0431 52.4594 12.0431Z" fill="white"/>
<path d="M79.224 18.9263V33.9249C79.224 34.9693 79.4677 35.7337 79.9532 36.2199C80.4775 36.6675 81.3378 36.8921 82.5341 36.8921H86.1802V43.4971H81.2437C74.6235 43.4971 71.3151 40.2885 71.3151 33.8713V18.9263H67.6135V12.4907H71.3151V4.82294H79.224V12.4907H86.1802V18.9263H79.224Z" fill="white"/>
<path d="M110.34 25.0837C110.304 23.0687 109.574 21.4644 108.153 20.2708C106.731 19.0404 104.992 18.4235 102.936 18.4235C100.992 18.4235 99.345 19.0202 97.9991 20.2138C96.6902 21.3705 95.8853 22.9933 95.5862 25.0837H110.339H110.34ZM118.475 27.3217C118.475 28.4415 118.399 29.449 118.249 30.3442H95.5308C95.7173 32.5822 96.5037 34.3373 97.8865 35.6047C99.271 36.8737 100.971 37.5074 102.991 37.5074C105.908 37.5074 107.983 36.2568 109.218 33.7573H117.688C116.791 36.743 115.07 39.2056 112.528 41.1451C109.986 43.0478 106.862 44 103.161 44C100.168 44 97.4765 43.3462 95.0822 42.0403C92.7265 40.6975 90.8748 38.8133 89.529 36.3876C88.2201 33.9618 87.5648 31.164 87.5648 27.9922C87.5648 24.8205 88.2201 21.9656 89.529 19.5416C90.8379 17.1159 92.671 15.2501 95.0267 13.9442C97.3824 12.6383 100.094 11.9845 103.161 11.9845C106.227 11.9845 108.751 12.6181 111.07 13.8872C113.425 15.1562 115.24 16.965 116.51 19.3153C117.819 21.6287 118.475 24.2958 118.475 27.3183V27.3217Z" fill="white"/>
<path d="M129.816 17.3036C130.826 15.6624 132.135 14.375 133.743 13.4412C135.388 12.5092 137.258 12.0414 139.353 12.0414V20.2691H137.278C134.81 20.2691 132.94 20.8475 131.668 22.0042C130.435 23.1609 129.816 25.1759 129.816 28.0492V43.4954H121.963V12.4907H129.816V17.3036Z" fill="white"/>
<path d="M164.838 27.9939C164.838 26.0912 164.463 24.4685 163.715 23.124C162.967 21.7427 161.958 20.6983 160.686 19.9892C159.414 19.2432 158.049 18.8694 156.591 18.8694C155.132 18.8694 153.787 19.2231 152.552 19.9322C151.318 20.6413 150.308 21.6857 149.522 23.067C148.774 24.4098 148.4 26.0141 148.4 27.8799C148.4 29.7457 148.774 31.3869 149.522 32.8051C150.307 34.1865 151.317 35.2493 152.552 35.9953C153.824 36.7413 155.169 37.1151 156.591 37.1151C158.012 37.1151 159.414 36.7614 160.686 36.0523C161.958 35.3063 162.967 34.2619 163.715 32.9175C164.463 31.5361 164.838 29.8949 164.838 27.9922V27.9939ZM140.38 27.8816C140.38 24.7468 140.997 21.9673 142.232 19.5433C143.503 17.1176 145.204 15.2517 147.336 13.9458C149.505 12.6399 151.918 11.9861 154.573 11.9861C156.892 11.9861 158.911 12.4522 160.632 13.3859C162.389 14.318 163.792 15.4948 164.839 16.9114V12.4907H172.748V43.4971H164.839V38.9642C163.829 40.4193 162.426 41.6313 160.632 42.6019C158.874 43.534 156.836 44.0017 154.517 44.0017C151.9 44.0017 149.507 43.3295 147.338 41.9867C145.206 40.6439 143.505 38.7596 142.233 36.3339C141 33.8713 140.382 31.055 140.382 27.8833L140.38 27.8816Z" fill="white"/>
</g>
<defs>
<clipPath id="clip0_1_776">
<rect width="172" height="44" fill="white" transform="translate(0.74646)"/>
</clipPath>
</defs>
</svg>
