<svg width="235" height="41" viewBox="0 0 235 41" fill="none" xmlns="http://www.w3.org/2000/svg">
<path d="M80.3106 40.7621H77.5772V11.9092C78.6185 11.5621 79.6598 11.3018 80.7011 11.0849C82.3064 10.8246 83.9118 10.6944 85.5171 10.6944C86.9923 10.651 88.5109 10.9547 89.8993 11.4754C91.1575 11.996 92.329 12.7336 93.2835 13.7315C94.2381 14.7728 95.019 15.9877 95.4963 17.3327C96.017 18.8513 96.2773 20.5 96.2773 22.1054C96.2773 23.6673 96.0603 25.1859 95.6265 26.6611C95.236 27.9627 94.5852 29.1775 93.7174 30.2622C92.893 31.2602 91.8083 32.0411 90.6369 32.6052C89.2919 33.2126 87.8601 33.4729 86.4283 33.4729C85.17 33.5163 83.8684 33.2994 82.6969 32.8655C81.8726 32.5618 81.0916 32.1713 80.3974 31.694L80.3106 40.7621ZM80.3106 29.0474C80.6143 29.2643 80.918 29.4813 81.2651 29.6982C81.699 29.9585 82.1329 30.1755 82.6101 30.349C83.1308 30.566 83.6948 30.6961 84.2589 30.8263C84.8663 30.9564 85.4737 30.9998 86.1246 30.9998C87.296 31.0432 88.4675 30.7829 89.5088 30.3056C90.3765 29.8718 91.1575 29.2209 91.7216 28.3966C92.329 27.5288 92.7195 26.5743 92.9364 25.5764C93.1967 24.4483 93.3269 23.2768 93.3269 22.1487C93.3269 19.2852 92.5893 17.0724 91.2009 15.5538C89.7691 14.0352 87.8601 13.2543 85.5171 13.2543C84.4324 13.2543 83.3477 13.2977 82.2631 13.4278C81.6122 13.5146 81.0048 13.6448 80.3974 13.8183L80.3106 29.0474Z" fill="white"/>
<path d="M107.688 33.3428C106.864 33.3428 106.039 33.2126 105.259 32.9957C104.608 32.8221 104 32.475 103.523 32.0411C103.046 31.5639 102.655 30.9998 102.482 30.349C102.221 29.5246 102.091 28.6135 102.135 27.7457V0.758598L104.868 0.237946V27.659C104.868 28.223 104.911 28.7437 105.042 29.2643C105.128 29.6114 105.345 29.9585 105.606 30.2188C105.866 30.4792 106.213 30.6527 106.604 30.7395C107.081 30.8697 107.558 30.9564 108.079 31.0432L107.688 33.3428Z" fill="white"/>
<path d="M131.551 22.1054C131.551 23.7108 131.335 25.2727 130.814 26.7913C130.38 28.0929 129.686 29.3512 128.731 30.3925C127.864 31.3904 126.779 32.1714 125.607 32.692C123.047 33.7767 120.141 33.7767 117.581 32.692C116.366 32.1714 115.324 31.3904 114.457 30.3925C113.546 29.3512 112.851 28.1363 112.417 26.7913C111.897 25.2727 111.68 23.7108 111.68 22.1054C111.68 20.5001 111.897 18.9381 112.417 17.4196C112.851 16.0745 113.546 14.8597 114.5 13.8184C115.368 12.8205 116.453 12.0395 117.624 11.5188C120.184 10.4341 123.091 10.4341 125.651 11.5188C126.866 12.0395 127.907 12.8638 128.775 13.8184C129.686 14.8597 130.38 16.1179 130.857 17.4196C131.335 18.9381 131.551 20.5001 131.551 22.1054ZM128.644 22.1054C128.644 19.372 127.994 17.2026 126.735 15.5973C124.393 12.7337 120.184 12.3432 117.32 14.6861C116.973 14.9465 116.713 15.2502 116.409 15.5973C115.151 17.2026 114.5 19.372 114.5 22.1054C114.5 24.8388 115.151 27.0082 116.409 28.6136C118.795 31.4772 123.047 31.8243 125.868 29.4379C126.171 29.1776 126.432 28.9173 126.692 28.6136C127.994 27.0082 128.644 24.8388 128.644 22.1054Z" fill="white"/>
<path d="M156.109 22.1054C156.109 23.7108 155.892 25.2727 155.371 26.7913C154.937 28.0929 154.243 29.3512 153.289 30.3925C152.421 31.3904 151.336 32.1714 150.165 32.692C147.605 33.7767 144.698 33.7767 142.138 32.692C140.923 32.1714 139.882 31.3904 139.014 30.3925C138.103 29.3512 137.409 28.1363 136.932 26.7913C136.411 25.2727 136.194 23.7108 136.194 22.1054C136.194 20.5001 136.411 18.9381 136.932 17.4196C137.365 16.0745 138.103 14.8597 139.014 13.8184C139.882 12.8205 140.967 12.0395 142.138 11.5188C144.698 10.4341 147.605 10.4341 150.165 11.5188C151.38 12.0395 152.421 12.8638 153.289 13.8184C154.2 14.8597 154.894 16.1179 155.371 17.4196C155.849 18.9381 156.109 20.5001 156.109 22.1054ZM153.202 22.1054C153.202 19.372 152.551 17.2026 151.293 15.5973C148.95 12.7337 144.741 12.3432 141.878 14.6861C141.531 14.9465 141.27 15.2502 140.967 15.5973C139.708 17.2026 139.058 19.372 139.058 22.1054C139.058 24.8388 139.708 27.0082 140.967 28.6136C143.353 31.4772 147.562 31.8243 150.425 29.4379C150.729 29.1776 151.033 28.9173 151.249 28.6136C152.551 27.0082 153.202 24.8388 153.202 22.1054Z" fill="white"/>
<path d="M162.053 11.9091C162.877 11.6922 163.919 11.4319 165.22 11.1282C166.912 10.8244 168.605 10.6509 170.297 10.6943C173.03 10.6943 175.026 11.5186 176.284 13.124C176.414 12.9938 176.718 12.8203 177.109 12.56C178.237 11.8224 179.495 11.3017 180.797 11.0414C181.708 10.8244 182.619 10.7377 183.573 10.7377C184.962 10.6943 186.35 10.9546 187.608 11.4753C188.606 11.9091 189.431 12.6467 189.995 13.5579C190.602 14.5124 190.949 15.5971 191.123 16.7252C191.34 18.0702 191.427 19.4152 191.427 20.7602V32.9522H188.693V21.6714C188.693 20.4131 188.65 19.1549 188.52 17.94C188.433 17.0289 188.172 16.1611 187.739 15.3368C187.391 14.6426 186.784 14.1219 186.09 13.7748C185.222 13.3843 184.311 13.2108 183.356 13.2542C182.575 13.2542 181.794 13.3409 181.057 13.4711C180.449 13.6013 179.842 13.7748 179.278 14.0351C178.844 14.2087 178.41 14.4256 178.02 14.6859C177.673 14.9029 177.456 15.0764 177.326 15.2066C177.586 15.9876 177.803 16.8553 177.89 17.6797C178.02 18.6342 178.106 19.5888 178.063 20.5867V32.9522H175.33V21.6714C175.33 20.4131 175.286 19.1549 175.156 17.94C175.069 17.0289 174.809 16.1611 174.375 15.3368C173.985 14.6426 173.421 14.1219 172.726 13.7748C171.815 13.3843 170.861 13.2108 169.863 13.2542C168.735 13.2542 167.607 13.2975 166.522 13.4711C165.915 13.5579 165.35 13.6446 164.786 13.8616V32.9956H162.053V11.9091Z" fill="white"/>
<path d="M197.154 22.0621C197.11 20.37 197.414 18.6778 197.978 17.0725C198.455 15.7709 199.193 14.556 200.147 13.5147C200.972 12.6036 202.013 11.866 203.185 11.3887C204.313 10.9114 205.484 10.6945 206.699 10.6945C209.389 10.6945 211.515 11.5623 213.077 13.2978C214.639 15.0333 215.463 17.7233 215.463 21.3679V22.0621C215.463 22.0621 215.42 22.496 215.42 22.7129H200.061C200.147 25.4029 200.798 27.4422 202.057 28.8739C203.315 30.3057 205.267 31.0433 207.957 31.0433C209.172 31.0867 210.344 30.9132 211.515 30.6095C212.166 30.3925 212.817 30.1756 213.424 29.8719L213.945 32.2582C213.251 32.6053 212.513 32.8656 211.732 33.0392C210.474 33.3863 209.215 33.5164 207.914 33.5164C206.222 33.5598 204.573 33.2561 203.011 32.6921C201.709 32.1714 200.581 31.347 199.67 30.3491C198.759 29.3078 198.108 28.093 197.761 26.748C197.327 25.1426 197.154 23.5806 197.154 22.0621ZM212.643 20.3266C212.6 18.027 212.036 16.2915 211.038 14.9899C210.04 13.7316 208.608 13.0808 206.742 13.0808C205.831 13.0808 204.92 13.2544 204.096 13.6883C203.315 14.0787 202.621 14.5994 202.057 15.2502C201.449 15.9444 201.015 16.7254 200.711 17.5498C200.408 18.4175 200.191 19.372 200.147 20.2832L212.643 20.3266Z" fill="white"/>
<path d="M226.05 31.0431C227.395 31.0865 228.74 30.8262 229.955 30.2621C230.953 29.7849 231.56 28.7436 231.473 27.6155C231.473 27.0948 231.387 26.5742 231.213 26.0969C230.996 25.6631 230.692 25.2726 230.302 24.9689C229.781 24.5784 229.217 24.2313 228.653 24.0143C227.959 23.7106 227.135 23.3201 226.093 22.9296C225.269 22.5825 224.488 22.2354 223.794 21.8883C223.099 21.5412 222.449 21.1507 221.841 20.6735C221.277 20.1962 220.843 19.6322 220.496 19.0247C220.149 18.2871 219.976 17.4628 219.976 16.6818C219.932 15.0331 220.67 13.4277 221.971 12.3864C223.316 11.3017 225.139 10.7377 227.482 10.7377C228.74 10.6943 229.955 10.8245 231.17 11.1282C231.864 11.3017 232.558 11.5187 233.209 11.8224L232.558 14.2521C231.994 13.9918 231.43 13.7748 230.866 13.5579C229.738 13.2108 228.523 13.0806 227.351 13.124C226.787 13.124 226.18 13.1674 225.616 13.2976C225.095 13.4277 224.618 13.6013 224.141 13.905C223.75 14.1653 223.403 14.5124 223.143 14.9029C222.883 15.3368 222.752 15.8574 222.752 16.4215C222.752 16.9421 222.839 17.4628 223.099 17.94C223.36 18.3739 223.664 18.7644 224.097 19.0681C224.575 19.4152 225.139 19.7189 225.703 19.9793C226.354 20.283 227.048 20.5867 227.872 20.8904C228.697 21.1941 229.477 21.5412 230.302 21.9317C231.039 22.2788 231.734 22.6693 232.341 23.19C232.948 23.6672 233.426 24.2746 233.773 24.9689C234.163 25.7932 234.337 26.661 234.337 27.5721C234.337 29.5246 233.599 31.0431 232.124 32.041C230.649 33.039 228.61 33.5596 226.05 33.5596C224.575 33.603 223.099 33.4294 221.668 33.0823C220.973 32.8654 220.279 32.6485 219.628 32.3448L220.323 29.8717C220.496 29.9584 220.67 30.0452 220.887 30.132C221.277 30.3055 221.624 30.4357 222.015 30.5659C222.579 30.7394 223.143 30.8696 223.707 30.9564C224.488 30.9997 225.269 31.0431 226.05 31.0431Z" fill="white"/>
<path d="M64.0836 18.9814C64.127 19.2418 63.9535 19.4587 63.6931 19.5021C63.5196 19.5455 63.346 19.4587 63.2159 19.2852C61.8708 17.2459 60.2221 15.3803 58.3564 13.7749L57.185 12.8204C53.1065 9.69647 48.2471 7.8308 43.1274 7.39693H43.084C42.3898 7.35354 41.6522 7.31015 40.958 7.31015C37.7039 7.31015 34.4498 7.91758 31.4127 9.08905C38.1378 12.0828 42.6501 18.591 43.1708 25.9235C43.1708 26.097 43.2141 26.2706 43.2141 26.4875V27.3987C43.2141 27.9193 43.1708 28.44 43.1708 28.44C42.7369 33.2126 39.7431 37.4212 35.361 39.3737C35.361 39.3737 34.8403 39.5906 34.6234 39.6774C33.7122 40.0245 32.7577 40.2848 31.7598 40.415C30.5883 40.6319 29.3735 40.7187 28.1586 40.7621C24.9479 40.7621 21.824 39.9811 18.9604 38.5493C17.8323 38.0286 16.7476 37.4212 15.7063 36.7704C15.2291 36.4667 14.7518 36.163 14.2746 35.8159C9.76223 32.6052 6.07428 28.3532 3.55779 23.407C3.1673 22.626 2.8202 21.845 2.4731 21.064C0.824366 17.029 0 12.7336 0 8.39484V8.1779C0 7.91758 0.216938 7.70064 0.477265 7.70064C0.56404 7.70064 0.650815 7.74403 0.737591 7.78741C3.77473 9.69647 7.28913 10.6944 10.8469 10.7812H11.2808H12.0184C15.7497 10.651 19.3943 9.47954 22.5182 7.35354C22.9087 7.09321 23.2558 6.83288 23.6029 6.52917C23.7765 6.39901 23.9934 6.22546 24.1669 6.09529C28.8528 2.40734 34.6668 0.368118 40.6109 0.368118C41.4786 0.368118 42.303 0.411506 43.1274 0.498281C47.1624 0.888771 51.0239 2.14701 54.4949 4.27301L54.8854 4.53334L55.059 4.62011L55.5362 4.92383C56.5775 5.61803 57.5321 6.39901 58.3998 7.31015C61.1333 10.0436 62.9989 13.4712 63.7799 17.2459C63.9101 17.81 63.9968 18.374 64.0836 18.9814Z" fill="white"/>
<path d="M43.1274 12.9073C44.0379 12.9073 44.7761 12.1691 44.7761 11.2585C44.7761 10.348 44.0379 9.6098 43.1274 9.6098C42.2168 9.6098 41.4786 10.348 41.4786 11.2585C41.4786 12.1691 42.2168 12.9073 43.1274 12.9073Z" fill="white"/>
</svg>
