<svg width="186" height="160" viewBox="0 0 186 160" fill="none" xmlns="http://www.w3.org/2000/svg">
<path d="M31.5027 149.601C19.5681 140.788 14.2236 127.567 2.79011 118.996C2.52096 118.795 1.63743 119.252 0.0251207 119.703C0.925851 122.094 1.32853 124.689 2.72443 126.69C9.13653 135.909 15.4115 145.233 22.5218 153.98C29.2434 162.273 35.0856 161.852 42.1805 153.456C48.6735 145.771 54.9797 137.978 61.3051 130.181C61.9783 129.342 62.1723 128.181 63.2698 125.607C50.281 129.609 45.6378 140.462 35.4731 147.564C35.5852 137.642 35.1917 128.932 35.8825 120.28C38.1968 91.0266 47.0537 63.7502 67.8169 40.4846C95.2462 9.75648 135.888 -0.606977 175.544 12.7137C175.831 12.8177 176.122 12.9395 176.42 13.0038C179.45 13.6919 183.461 17.0323 185.114 12.2482C186.597 7.94906 181.457 7.65491 178.434 6.64849C130.543 -9.14953 82.547 6.33165 54.4511 46.7691C36.4018 72.7498 29.8448 101.398 30.4476 131.551C30.5605 137.583 31.1702 143.58 31.5411 149.592L31.5027 149.601Z" fill="#3A4388"/>
</svg>
