<svg width="100" height="80" viewBox="0 0 100 80" fill="none" xmlns="http://www.w3.org/2000/svg">
<path d="M97.2205 68.3096H92.6665V32.4243C92.4616 32.4243 92.2339 32.447 92.029 32.447H91.5053C87.6116 32.447 84.1278 30.6482 81.828 27.8703C79.5283 30.671 76.0445 32.447 72.1508 32.447H71.6272C67.7335 32.447 64.2497 30.6482 61.95 27.8703C59.6502 30.671 56.1664 32.447 52.2728 32.447H51.749C47.8554 32.447 44.3716 30.6482 42.0718 27.8703C39.7721 30.671 36.2883 32.447 32.3946 32.447H31.8709C31.6432 32.447 31.4382 32.447 31.2333 32.4243V68.3096H26.6793C25.427 68.3096 24.4023 69.3343 24.4023 70.5866V78.5561C24.4023 79.1936 24.9033 79.6946 25.5408 79.6946H98.4045C99.0421 79.6946 99.543 79.1936 99.543 78.5561V70.5866C99.543 69.3343 98.5184 68.3096 97.266 68.3096H97.2205ZM60.7887 64.8941C60.7887 65.5317 60.2877 66.0326 59.6502 66.0326H39.1573C38.5197 66.0326 38.0188 65.5317 38.0188 64.8941V42.1242C38.0188 41.4867 38.5197 40.9857 39.1573 40.9857H59.6502C60.2877 40.9857 60.7887 41.4867 60.7887 42.1242V64.8941ZM85.8356 71.7251C85.8356 72.3627 85.3346 72.8636 84.6971 72.8636H71.0351C70.3976 72.8636 69.8966 72.3627 69.8966 71.7251V42.1242C69.8966 41.4867 70.3976 40.9857 71.0351 40.9857H84.6971C85.3346 40.9857 85.8356 41.4867 85.8356 42.1242V71.7251Z" fill="#33EEAC"/>
<path d="M79.0044 55.217H76.7274C75.1562 55.217 73.8811 56.4921 73.8811 58.0633C73.8811 59.6344 75.1562 60.9095 76.7274 60.9095H79.0044C80.5755 60.9095 81.8506 59.6344 81.8506 58.0633C81.8506 56.4921 80.5755 55.217 79.0044 55.217ZM98.8369 16.5082V11.7948C98.8369 10.9979 98.632 10.2237 98.245 9.5406L94.1236 2.29977C93.3039 0.888031 91.801 0 90.1616 0H33.6695C32.03 0 30.5272 0.888031 29.7075 2.29977L25.5862 9.5406C25.1991 10.2237 24.9941 10.9979 24.9941 11.7948V18.3753V19.9237C24.9941 23.6807 28.0681 26.7546 31.8251 26.7546H32.3488C36.1059 26.7546 39.1798 23.6807 39.1798 19.9237V15.9389C39.1798 14.3678 40.4549 13.0927 42.0261 13.0927C43.5972 13.0927 44.8723 14.3678 44.8723 15.9389V19.9237C44.8723 23.6807 47.9462 26.7546 51.7033 26.7546H52.2269C55.984 26.7546 59.0579 23.6807 59.0579 19.9237V16.5082H59.0124V15.9389C59.0124 14.3678 60.2875 13.0927 61.8586 13.0927C63.4297 13.0927 64.7049 14.3678 64.7049 15.9389V18.3753H64.7504V19.9237C64.7504 23.6807 67.8243 26.7546 71.5813 26.7546H72.1051C75.8621 26.7546 78.9361 23.6807 78.9361 19.9237V15.9389C78.9361 14.3678 80.2112 13.0927 81.7823 13.0927C83.3534 13.0927 84.6285 14.3678 84.6285 15.9389V19.9237C84.6285 23.6807 87.7025 26.7546 91.4595 26.7546H91.9832C95.7403 26.7546 98.8142 23.6807 98.8142 19.9237V16.5082H98.8369Z" fill="#33EEAC"/>
<path d="M25.1893 27.6535H16.4278V18.892H8.76151V27.6535H0V35.3198H8.76151V44.0813H16.4278V35.3198H25.1893V27.6535Z" fill="#33EEAC"/>
</svg>
