<svg width="96" height="103" viewBox="0 0 96 103" fill="none" xmlns="http://www.w3.org/2000/svg">
<path d="M93.0495 87.6578H87.2643V42.0697C87.0039 42.0697 86.7147 42.0987 86.4543 42.0987H85.789C80.8426 42.0987 76.4168 39.8135 73.4953 36.2845C70.5737 39.8424 66.1479 42.0987 61.2015 42.0987H60.5363C55.5899 42.0987 51.1641 39.8135 48.2426 36.2845C45.321 39.8424 40.8952 42.0987 35.9488 42.0987H35.2835C30.3371 42.0987 25.9113 39.8135 22.9898 36.2845C20.0682 39.8424 15.6425 42.0987 10.696 42.0987H10.0307C9.74144 42.0987 9.48111 42.0987 9.22077 42.0697V87.6578H3.43549C1.84453 87.6578 0.542847 88.9594 0.542847 90.5504V100.675C0.542847 101.485 1.17923 102.121 1.98917 102.121H94.5537C95.3636 102.121 96 101.485 96 100.675V90.5504C96 88.9594 94.6983 87.6578 93.1074 87.6578H93.0495ZM46.7673 83.3188C46.7673 84.1287 46.1309 84.7651 45.321 84.7651H19.2872C18.4773 84.7651 17.8409 84.1287 17.8409 83.3188V54.3924C17.8409 53.5825 18.4773 52.9461 19.2872 52.9461H45.321C46.1309 52.9461 46.7673 53.5825 46.7673 54.3924V83.3188ZM78.5863 91.9967C78.5863 92.8067 77.9499 93.443 77.14 93.443H59.7842C58.9742 93.443 58.3378 92.8067 58.3378 91.9967V54.3924C58.3378 53.5825 58.9742 52.9461 59.7842 52.9461H77.14C77.9499 52.9461 78.5863 53.5825 78.5863 54.3924V91.9967Z" fill="#33EEAC"/>
<path d="M69.9084 71.0252H67.0157C65.0198 71.0252 63.3999 72.6451 63.3999 74.641C63.3999 76.6369 65.0198 78.2568 67.0157 78.2568H69.9084C71.9043 78.2568 73.5242 76.6369 73.5242 74.641C73.5242 72.6451 71.9043 71.0252 69.9084 71.0252ZM95.1032 21.8503V15.8625C95.1032 14.8501 94.843 13.8666 94.3512 12.9988L89.1155 3.80024C88.0742 2.0068 86.165 0.878662 84.0823 0.878662H12.3159C10.2332 0.878662 8.32406 2.0068 7.28271 3.80024L2.04704 12.9988C1.55529 13.8666 1.29492 14.8501 1.29492 15.8625V24.2223V26.1893C1.29492 30.9621 5.19999 34.8672 9.97284 34.8672H10.6382C15.411 34.8672 19.3161 30.9621 19.3161 26.1893V21.1271C19.3161 19.1312 20.936 17.5113 22.9319 17.5113C24.9278 17.5113 26.5477 19.1312 26.5477 21.1271V26.1893C26.5477 30.9621 30.4528 34.8672 35.2256 34.8672H35.8909C40.6637 34.8672 44.5688 30.9621 44.5688 26.1893V21.8503H44.511V21.1271C44.511 19.1312 46.1309 17.5113 48.1268 17.5113C50.1227 17.5113 51.7426 19.1312 51.7426 21.1271V24.2223H51.8004V26.1893C51.8004 30.9621 55.7055 34.8672 60.4783 34.8672H61.1437C65.9165 34.8672 69.8216 30.9621 69.8216 26.1893V21.1271C69.8216 19.1312 71.4415 17.5113 73.4374 17.5113C75.4333 17.5113 77.0532 19.1312 77.0532 21.1271V26.1893C77.0532 30.9621 80.9583 34.8672 85.7311 34.8672H86.3965C91.1693 34.8672 95.0744 30.9621 95.0744 26.1893V21.8503H95.1032Z" fill="#33EEAC"/>
</svg>
