<svg width="169" height="147" viewBox="0 0 169 147" fill="none" xmlns="http://www.w3.org/2000/svg">
<path d="M65.8318 125.386C65.8318 125.386 65.766 125.386 65.8318 125.386C63.8586 125.321 61.9511 125.123 60.1094 124.86C59.5174 124.794 59.057 124.203 59.1885 123.611C59.2543 123.019 59.8463 122.558 60.4382 122.69C62.2142 122.953 64.0559 123.15 65.8976 123.216C66.4896 123.216 67.0158 123.742 66.95 124.4C66.95 124.926 66.4238 125.386 65.8318 125.386ZM71.4227 125.386C70.8307 125.386 70.3045 124.926 70.3045 124.334C70.3045 123.742 70.7649 123.216 71.3569 123.15C73.1986 123.084 75.0403 122.887 76.8163 122.558C77.4082 122.492 78.0002 122.887 78.1318 123.479C78.1975 124.071 77.8029 124.663 77.2109 124.794C75.3034 125.058 73.3959 125.255 71.4227 125.386C71.4885 125.386 71.4885 125.386 71.4227 125.386ZM54.7158 123.742C54.65 123.742 54.5185 123.742 54.4527 123.676C52.611 123.216 50.7693 122.624 48.9934 121.966C48.4014 121.769 48.1383 121.111 48.3356 120.519C48.533 119.927 49.1907 119.664 49.7827 119.861C51.4928 120.519 53.2688 121.045 55.0447 121.506C55.6367 121.637 56.0313 122.295 55.834 122.887C55.7024 123.413 55.242 123.742 54.7158 123.742ZM82.5387 123.676C82.0125 123.676 81.5521 123.347 81.4205 122.821C81.289 122.229 81.6178 121.637 82.2098 121.44C83.9857 120.98 85.7617 120.453 87.4718 119.796C88.0638 119.598 88.7216 119.861 88.9189 120.453C89.1162 121.045 88.8531 121.703 88.2611 121.9C86.4852 122.558 84.6435 123.15 82.8018 123.611C82.736 123.611 82.6045 123.676 82.5387 123.676ZM44.1918 119.927C43.9945 119.927 43.8629 119.861 43.7314 119.796C42.0212 118.94 40.3111 118.02 38.7325 117.033C38.2063 116.704 38.0089 116.046 38.3378 115.454C38.6667 114.928 39.3244 114.731 39.9164 115.06C41.495 116.046 43.0736 116.901 44.718 117.691C45.2442 117.954 45.5073 118.612 45.2442 119.204C44.9811 119.664 44.5864 119.927 44.1918 119.927ZM93.0627 119.73C92.6681 119.73 92.2734 119.532 92.0761 119.072C91.813 118.546 92.0103 117.822 92.6023 117.559C94.2467 116.77 95.8253 115.849 97.4039 114.862C97.9301 114.534 98.6536 114.665 98.9825 115.191C99.3113 115.718 99.1798 116.441 98.6536 116.77C97.075 117.757 95.3649 118.743 93.6547 119.598C93.3916 119.664 93.1943 119.73 93.0627 119.73ZM34.6544 114.007C34.3913 114.007 34.194 113.942 33.9966 113.744C32.4838 112.56 31.0368 111.311 29.6555 110.061C29.1951 109.666 29.1951 108.943 29.5897 108.482C29.9844 108.022 30.7079 108.022 31.1683 108.416C32.4838 109.666 33.9309 110.85 35.3779 111.968C35.8384 112.363 35.9699 113.021 35.5752 113.547C35.3121 113.876 34.9833 114.007 34.6544 114.007ZM102.534 113.744C102.205 113.744 101.877 113.613 101.613 113.284C101.219 112.823 101.35 112.1 101.811 111.705C103.258 110.587 104.639 109.403 105.955 108.088C106.415 107.627 107.139 107.693 107.533 108.153C107.994 108.614 107.928 109.337 107.467 109.732C106.086 111.047 104.639 112.297 103.126 113.481C102.995 113.678 102.797 113.744 102.534 113.744ZM26.4983 106.312C26.1694 106.312 25.8405 106.18 25.6432 105.917C24.3935 104.47 23.2095 102.957 22.0913 101.379C21.7625 100.852 21.8282 100.195 22.3544 99.7999C22.8806 99.4711 23.5384 99.5368 23.933 100.063C24.9854 101.576 26.1036 103.023 27.3534 104.404C27.748 104.865 27.6822 105.588 27.2218 105.983C27.0245 106.246 26.7614 106.312 26.4983 106.312ZM110.625 105.983C110.362 105.983 110.098 105.917 109.901 105.72C109.441 105.325 109.375 104.602 109.77 104.141C110.954 102.76 112.072 101.313 113.124 99.7999C113.453 99.2737 114.177 99.1422 114.703 99.5368C115.229 99.8657 115.36 100.589 114.966 101.115C113.913 102.694 112.729 104.207 111.48 105.654C111.282 105.851 110.954 105.983 110.625 105.983ZM19.9865 97.1689C19.5919 97.1689 19.1972 96.9716 18.9999 96.577C18.0791 94.9326 17.224 93.2224 16.4347 91.4465C16.1716 90.8545 16.4347 90.1968 17.0267 89.9994C17.6186 89.7363 18.2764 89.9995 18.4737 90.5914C19.1972 92.2358 20.0523 93.946 20.9074 95.5246C21.2363 96.0508 21.0389 96.7743 20.5127 97.0374C20.3812 97.1032 20.1839 97.1689 19.9865 97.1689ZM117.071 96.7743C116.873 96.7743 116.676 96.7085 116.544 96.6427C116.018 96.3139 115.821 95.6561 116.084 95.1299C116.939 93.5513 117.794 91.8411 118.518 90.1968C118.781 89.6048 119.439 89.3417 119.965 89.6048C120.557 89.8679 120.82 90.5257 120.557 91.0518C119.833 92.8278 118.978 94.5379 118.057 96.1823C117.86 96.577 117.465 96.7743 117.071 96.7743ZM15.5138 86.908C15.0534 86.908 14.593 86.5791 14.4614 86.1187C13.8695 84.277 13.409 82.4353 13.0144 80.5936C12.8828 80.0016 13.2775 79.4096 13.8695 79.2781C14.4614 79.1465 15.0534 79.5412 15.185 80.1332C15.5796 81.9091 16.04 83.685 16.5662 85.461C16.7636 86.0529 16.4347 86.7107 15.8427 86.8422C15.7112 86.8422 15.6454 86.908 15.5138 86.908ZM121.478 86.5134C121.346 86.5134 121.28 86.5134 121.149 86.4476C120.557 86.2503 120.228 85.6583 120.425 85.0663C120.951 83.2904 121.412 81.5145 121.806 79.7385C121.938 79.1466 122.53 78.7519 123.122 78.8835C123.714 79.015 124.109 79.607 123.977 80.199C123.582 82.0407 123.122 83.9481 122.53 85.7241C122.398 86.1845 121.938 86.5134 121.478 86.5134ZM13.2117 75.9236C12.6197 75.9236 12.1593 75.5289 12.0935 74.9369C11.8962 73.0295 11.7646 71.122 11.7646 69.2145C11.7646 68.6225 12.2908 68.0963 12.8828 68.0963C13.4748 68.0963 14.001 68.6225 14.001 69.2145C14.001 71.0562 14.1326 72.8979 14.3299 74.7396C14.3957 75.3316 13.9352 75.9236 13.3433 75.9893C13.2775 75.9236 13.2117 75.9236 13.2117 75.9236ZM123.714 75.5289C123.648 75.5289 123.648 75.5289 123.582 75.5289C122.99 75.4631 122.53 74.9369 122.596 74.2792C122.793 72.4375 122.859 70.5958 122.859 68.7541C122.859 68.491 122.859 68.2279 122.859 67.9648C122.859 67.3728 123.319 66.8466 123.977 66.8466C124.569 66.8466 125.095 67.307 125.095 67.9648C125.095 68.2279 125.095 68.5568 125.095 68.8199C125.095 70.7273 125.029 72.6348 124.832 74.5423C124.766 75.0685 124.306 75.5289 123.714 75.5289ZM13.0802 64.676C13.0144 64.676 13.0144 64.676 12.9486 64.676C12.3566 64.6102 11.8962 64.084 11.962 63.4263C12.1593 61.5188 12.4224 59.6113 12.7513 57.7696C12.8828 57.1777 13.4748 56.783 14.0668 56.9146C14.6588 57.0461 15.0534 57.6381 14.9219 58.2301C14.593 60.006 14.3299 61.8477 14.1326 63.6894C14.1983 64.2814 13.6721 64.676 13.0802 64.676ZM123.648 63.4263C123.056 63.4263 122.596 63.0316 122.53 62.4397C122.333 60.598 122.004 58.822 121.609 57.0461C121.478 56.4541 121.872 55.8622 122.464 55.7306C123.056 55.5991 123.648 55.9937 123.78 56.5857C124.174 58.4274 124.503 60.3349 124.701 62.2423C124.766 62.8343 124.306 63.4263 123.714 63.4921C123.714 63.4263 123.648 63.4263 123.648 63.4263ZM15.2507 53.6916C15.1192 53.6916 15.0534 53.6916 14.9219 53.6258C14.3299 53.4285 14.001 52.8365 14.1983 52.2445C14.7245 50.4028 15.3823 48.6269 16.1716 46.851C16.4347 46.259 17.0924 45.9959 17.6186 46.259C18.2106 46.5221 18.4737 47.1798 18.2106 47.706C17.4871 49.4162 16.8951 51.1263 16.3689 52.9023C16.1716 53.3627 15.7769 53.6916 15.2507 53.6916ZM121.214 52.5076C120.754 52.5076 120.294 52.1787 120.162 51.7183C119.57 50.0082 118.912 48.2322 118.189 46.5879C117.926 45.9959 118.189 45.3381 118.781 45.075C119.373 44.8119 120.031 45.075 120.294 45.667C121.083 47.3772 121.741 49.2189 122.333 50.9948C122.53 51.5868 122.201 52.2445 121.609 52.4418C121.478 52.5076 121.346 52.5076 121.214 52.5076ZM19.5919 43.3649C19.3946 43.3649 19.1972 43.2991 19.0657 43.2333C18.5395 42.9045 18.3422 42.2467 18.6053 41.7205C19.5261 40.0761 20.5127 38.4317 21.5651 36.8531C21.894 36.3269 22.6175 36.1954 23.1437 36.59C23.6699 36.9189 23.8015 37.6424 23.4068 38.1686C22.3544 39.6815 21.4336 41.2601 20.5127 42.8387C20.3812 43.1018 19.9865 43.3649 19.5919 43.3649ZM116.676 42.2467C116.281 42.2467 115.887 42.0494 115.689 41.6547C114.769 40.0761 113.782 38.4975 112.729 37.0505C112.335 36.5243 112.466 35.8665 112.993 35.4719C113.519 35.0772 114.177 35.2088 114.571 35.735C115.689 37.3136 116.742 38.8922 117.663 40.5365C117.991 41.0627 117.794 41.7863 117.268 42.0494C117.005 42.1809 116.808 42.2467 116.676 42.2467ZM25.9063 34.0906C25.6432 34.0906 25.3801 34.0248 25.1828 33.8275C24.7224 33.4328 24.6566 32.7093 25.0512 32.2489C26.301 30.8018 27.6165 29.3548 28.932 28.0393C29.3924 27.5788 30.1159 27.6446 30.5106 28.0393C30.971 28.4997 30.9052 29.2232 30.5106 29.6179C29.1951 30.8676 27.9453 32.2489 26.7614 33.6302C26.5641 33.959 26.2352 34.0906 25.9063 34.0906ZM110.098 33.1697C109.77 33.1697 109.506 33.0382 109.243 32.7751C108.059 31.3938 106.744 30.0783 105.428 28.8286C104.968 28.4339 104.968 27.7104 105.363 27.25C105.757 26.7895 106.481 26.7895 106.941 27.1842C108.323 28.4997 109.704 29.881 110.954 31.2623C111.348 31.7227 111.348 32.4462 110.822 32.8409C110.625 33.0382 110.362 33.1697 110.098 33.1697ZM33.9966 26.2633C33.6678 26.2633 33.3389 26.1318 33.1416 25.8687C32.7469 25.4083 32.8127 24.6847 33.3389 24.2901C34.8517 23.1061 36.4303 21.988 38.0089 20.9356C38.5351 20.6067 39.2587 20.7382 39.5875 21.2644C39.9164 21.7906 39.7849 22.5142 39.2587 22.843C37.7458 23.8297 36.233 24.8821 34.7859 26.066C34.4571 26.1976 34.2597 26.2633 33.9966 26.2633ZM101.877 25.5398C101.613 25.5398 101.416 25.474 101.219 25.3425C99.7718 24.2243 98.1932 23.1719 96.6803 22.2511C96.1541 21.9222 95.9568 21.2644 96.2857 20.7382C96.6146 20.212 97.2723 20.0147 97.7985 20.3436C99.4429 21.3302 101.022 22.3826 102.534 23.5666C103.061 23.9612 103.126 24.619 102.732 25.1452C102.534 25.3425 102.205 25.5398 101.877 25.5398ZM43.4683 20.212C43.0736 20.212 42.679 20.0147 42.4816 19.6201C42.2185 19.0939 42.4159 18.3703 43.0078 18.1072C44.718 17.2522 46.4939 16.4629 48.2698 15.8051C48.8618 15.6078 49.5196 15.8709 49.7169 16.4629C49.9142 17.0548 49.6511 17.7126 49.0591 17.9099C47.349 18.5677 45.6388 19.2912 43.9945 20.1463C43.7971 20.212 43.5998 20.212 43.4683 20.212ZM92.2734 19.6858C92.1419 19.6858 91.9445 19.6201 91.813 19.5543C90.1686 18.765 88.4585 18.0415 86.7483 17.4495C86.1563 17.2522 85.8275 16.5944 86.0906 16.0024C86.2879 15.4104 86.9456 15.0816 87.5376 15.3447C89.3135 16.0024 91.0895 16.726 92.7996 17.5153C93.3916 17.7784 93.5889 18.4361 93.3258 19.0281C93.1285 19.4885 92.7338 19.6858 92.2734 19.6858ZM53.9265 16.2655C53.4003 16.2655 53.0057 15.9367 52.8741 15.4105C52.7426 14.8185 53.0714 14.1607 53.6634 14.0292C55.5051 13.503 57.4126 13.1083 59.2543 12.8452C59.8463 12.7794 60.4382 13.1741 60.5698 13.7661C60.7013 14.3581 60.2409 14.95 59.6489 15.0816C57.873 15.3447 56.0313 15.7393 54.2554 16.2655C54.1238 16.1998 54.0581 16.2655 53.9265 16.2655ZM81.7494 15.9367C81.6836 15.9367 81.5521 15.9367 81.4863 15.8709C79.7104 15.4105 77.8687 15.0816 76.0927 14.8185C75.5008 14.7527 75.0403 14.1607 75.1061 13.5687C75.1719 12.9768 75.7639 12.5163 76.3558 12.5821C78.2633 12.8452 80.1708 13.2399 82.0125 13.6345C82.6045 13.7661 82.9991 14.358 82.8676 15.0158C82.6702 15.6078 82.2098 15.9367 81.7494 15.9367ZM64.9767 14.4238C64.3848 14.4238 63.9243 13.9634 63.8586 13.3714C63.7928 12.7794 64.319 12.1875 64.911 12.1875C66.8184 12.0559 68.7259 12.0559 70.6334 12.1217C71.2254 12.1217 71.7516 12.6479 71.6858 13.3056C71.6858 13.8976 71.0938 14.4238 70.5018 14.358C68.6601 14.2923 66.8184 14.2923 64.9767 14.4238C65.0425 14.4238 65.0425 14.4238 64.9767 14.4238Z" fill="#33EEAC"/>
<path d="M46.4263 23.7637C46.4263 36.3925 36.2311 46.5876 23.6023 46.5876C10.9735 46.5876 0.77832 36.3925 0.77832 23.7637C0.77832 11.1348 10.9735 0.939707 23.6023 0.939707C36.2311 0.873931 46.4263 11.1348 46.4263 23.7637Z" fill="#33EEAC"/>
<path d="M23.6653 23.7637V42.1807L7.61621 32.9722V14.5552L23.6653 23.7637Z" fill="#3A4388"/>
<path d="M39.5846 14.5553V32.9724L23.667 42.1809V23.7638L39.5846 14.5553Z" fill="#242A55"/>
<path d="M29.4541 8.63544L13.4707 17.9097L15.444 19.0937L31.4273 9.81939L29.4541 8.63544Z" fill="#3A4388"/>
<path d="M23.6653 5.28076L7.61621 14.5551L13.4702 17.9096L29.4536 8.63529L23.6653 5.28076Z" fill="#3A4388"/>
<path d="M31.4267 9.81912L15.4434 19.0934L17.2851 20.08L33.2026 10.8715L31.4267 9.81912Z" fill="#3A4388"/>
<path d="M39.5829 14.5549L33.2027 10.8715L17.2852 20.08L23.6653 23.7634L39.5829 14.5549Z" fill="#3A4388"/>
<path d="M25.7041 37.708V39.0893L32.0843 35.4059V34.0904L25.7041 37.708Z" fill="#33EEAC"/>
<path d="M26.4934 35.9978L27.6774 35.2743V32.1171L28.3351 31.7224L27.0196 30.2754L25.7041 33.2352L26.4276 32.7748L26.4934 35.9978Z" fill="#33EEAC"/>
<path d="M30.1126 34.0904L31.3623 33.3669L31.2965 30.2097L31.9542 29.815L30.6387 28.368L29.3232 31.3278L30.1126 30.8674V34.0904Z" fill="#33EEAC"/>
<path d="M13.4707 17.9096V24.7502L17.2857 26.9208V20.0802L13.4707 17.9096Z" fill="#242A55"/>
<path d="M22.0876 17.3177H14.5234L17.0229 15.8707H24.5213L22.0876 17.3177Z" fill="#33EEAC"/>
<path d="M26.1657 14.9498H18.6016L19.8513 14.2263H27.4154L26.1657 14.9498Z" fill="#33EEAC"/>
<path d="M68.5931 106.838C46.69 106.838 28.9307 89.0129 28.9307 67.1756C28.9307 45.2725 46.7557 27.5132 68.5931 27.5132C90.4962 27.5132 108.255 45.3382 108.255 67.1756C108.255 89.0787 90.4962 106.838 68.5931 106.838ZM68.5931 29.8153C48.0055 29.8153 31.167 46.588 31.167 67.2414C31.167 87.829 47.9397 104.667 68.5931 104.667C89.1807 104.667 106.019 87.8948 106.019 67.2414C106.019 46.588 89.1807 29.8153 68.5931 29.8153Z" fill="#33EEAC"/>
<path d="M68.5928 106.838C67.935 106.838 67.4746 106.312 67.4746 105.72C67.4746 105.062 68.0008 104.602 68.5928 104.602C89.1804 104.602 106.019 87.829 106.019 67.1756C106.019 46.588 89.2462 29.7495 68.5928 29.7495C67.935 29.7495 67.4746 29.2233 67.4746 28.6314C67.4746 28.0394 68.0008 27.5132 68.5928 27.5132C90.4959 27.5132 108.255 45.3382 108.255 67.1756C108.255 89.0787 90.4959 106.838 68.5928 106.838Z" fill="#33EEAC"/>
<path d="M68.5934 106.706C56.2277 106.706 46.1641 88.9469 46.1641 67.1754C46.1641 45.4038 56.2277 27.6445 68.5934 27.6445C80.9591 27.6445 91.0227 45.4038 91.0227 67.1754C91.0227 89.0127 80.9591 106.706 68.5934 106.706ZM68.5934 29.9466C57.4774 29.9466 48.4662 46.6535 48.4662 67.1754C48.4662 87.6972 57.4774 104.404 68.5934 104.404C79.7094 104.404 88.7206 87.6972 88.7206 67.1754C88.7206 46.6535 79.7094 29.9466 68.5934 29.9466Z" fill="#33EEAC"/>
<path d="M68.5928 106.706C67.935 106.706 67.4746 106.18 67.4746 105.588C67.4746 104.996 68.0008 104.47 68.5928 104.47C79.7088 104.47 88.72 87.7631 88.72 67.2412C88.72 46.7194 79.7088 30.0125 68.5928 30.0125C67.935 30.0125 67.4746 29.4863 67.4746 28.8943C67.4746 28.2366 68.0008 27.7762 68.5928 27.7762C80.9585 27.7762 91.0221 45.5354 91.0221 67.307C91.0221 89.0128 80.9585 106.706 68.5928 106.706Z" fill="#33EEAC"/>
<path d="M107.137 68.2934H30.0488C29.3911 68.2934 28.9307 67.7672 28.9307 67.1752C28.9307 66.5175 29.4569 66.0571 30.0488 66.0571H107.137C107.795 66.0571 108.255 66.5833 108.255 67.1752C108.255 67.833 107.795 68.2934 107.137 68.2934Z" fill="#33EEAC"/>
<path d="M100.428 46.6536H36.6924C36.0347 46.6536 35.5742 46.1274 35.5742 45.5354C35.5742 44.8777 36.1004 44.4172 36.6924 44.4172H100.428C101.086 44.4172 101.547 44.9434 101.547 45.5354C101.612 46.1274 101.086 46.6536 100.428 46.6536Z" fill="#33EEAC"/>
<path d="M100.428 89.6704H36.6924C36.0347 89.6704 35.5742 89.1442 35.5742 88.5522C35.5742 87.9603 36.1004 87.4341 36.6924 87.4341H100.428C101.086 87.4341 101.547 87.9603 101.547 88.5522C101.547 89.1442 101.086 89.6704 100.428 89.6704Z" fill="#33EEAC"/>
<path d="M68.5928 106.838C67.935 106.838 67.4746 106.312 67.4746 105.72V28.6314C67.4746 27.9736 68.0008 27.5132 68.5928 27.5132C69.2505 27.5132 69.711 28.0394 69.711 28.6314V105.72C69.711 106.378 69.2505 106.838 68.5928 106.838Z" fill="#33EEAC"/>
<path d="M101.217 61.0583L91.6139 65.3995L65.1065 41.0627C64.5803 40.6023 63.791 40.4707 63.1333 40.7338C62.0808 41.1943 61.6862 42.5097 62.344 43.4306L80.8268 70.2669L74.315 73.2267L60.2391 81.3171L53.3985 76.1866C52.4119 75.4631 51.0964 75.2658 49.9782 75.792L49.8467 75.8577L58.4632 85.0005L111.346 61.6503C110.294 59.414 103.651 60.0059 101.217 61.0583Z" fill="#33EEAC"/>
<path d="M111.411 61.8474L111.345 61.7816L58.4619 85.1318L59.3828 97.6291L59.5143 97.5633C60.6325 97.0371 61.4218 95.9847 61.5533 94.7349L62.4084 86.25L78.0629 81.251L84.5089 78.4885L91.8099 110.258C92.073 111.376 93.257 111.968 94.3094 111.508C94.9671 111.244 95.4275 110.587 95.4275 109.863L95.3618 73.8842L105.096 69.7404C107.464 68.7538 112.398 64.2153 111.411 61.8474Z" fill="#33EEAC"/>
<path d="M43.0059 113.876C43.0059 124.334 34.5209 132.753 24.1284 132.753C13.6702 132.753 5.25098 124.268 5.25098 113.876C5.25098 103.417 13.736 94.9983 24.1284 94.9983C34.5209 94.9983 43.0059 103.483 43.0059 113.876Z" fill="#33EEAC"/>
<path d="M35.5725 110.389C35.2436 109.995 34.7832 109.798 34.3227 109.798H18.4052L17.1554 106.311C16.8923 105.588 16.1688 105.062 15.3795 105.062H8.40735C8.14425 105.062 8.0127 105.259 8.0127 105.456C8.0127 105.719 8.21002 105.851 8.40735 105.851H8.80199H15.3795C15.7742 105.851 16.1688 106.114 16.3004 106.509L20.2469 117.559L21.1019 119.861C21.365 120.519 21.957 120.914 22.6148 120.914H24.1276H32.6784C33.4677 120.914 34.1254 120.387 34.257 119.598L35.6382 112.889C35.704 112.823 35.704 112.757 35.704 112.692C35.704 112.692 35.704 112.692 35.704 112.626L35.9013 111.573C36.0329 111.31 35.9013 110.784 35.5725 110.389ZM32.6784 120.19H31.9548L32.2179 118.809H33.5992L33.4677 119.598C33.4019 119.927 33.073 120.19 32.6784 120.19ZM21.8912 119.73L21.5624 118.809H23.2068L23.6014 120.19H22.6148C22.2859 120.19 22.0228 119.993 21.8912 119.73ZM34.9147 110.916C35.0463 111.113 35.112 111.31 35.0463 111.573L34.8489 112.429H33.4677L33.7965 110.653H34.257C34.5201 110.653 34.7832 110.784 34.9147 110.916ZM30.0474 120.19L30.1789 118.809H31.4286L31.1655 120.19H30.0474ZM28.3372 120.19L28.2714 118.809H29.3238L29.1923 120.19H28.3372ZM26.4297 120.19L26.1666 118.809H27.3506L27.4164 120.19H26.4297ZM24.4565 120.19L24.0618 118.809H25.3116L25.5746 120.19H24.4565ZM23.8645 110.653L24.1934 112.429H22.3517L21.8912 110.653H23.8645ZM26.8902 110.653L27.0217 112.429H25.0484L24.7196 110.653H26.8902ZM33.0072 110.653L32.6784 112.429H30.7709L30.9682 110.653H33.0072ZM29.6527 115.191H28.0083L27.8768 113.284H29.7843L29.6527 115.191ZM27.1533 115.191H25.5089L25.18 113.284H27.0217L27.1533 115.191ZM25.7062 116.046H27.219L27.3506 117.954H26.1009L25.7062 116.046ZM28.0741 116.046H29.5869L29.3896 117.954H28.2057L28.0741 116.046ZM30.5078 115.191L30.7051 113.284H32.481L32.0864 115.191H30.5078ZM24.3907 113.284L24.7196 115.191H23.141L22.6148 113.284H24.3907ZM22.2201 115.191H20.2469L19.5891 113.284H21.6939L22.2201 115.191ZM21.2335 117.954L20.5757 116.046H22.4832L23.0094 117.954H21.2335ZM23.3383 116.046H24.8511L25.18 117.954H23.8645L23.3383 116.046ZM30.2447 117.954L30.442 116.046H31.9548L31.5602 117.954H30.2447ZM29.9158 112.429H27.8768L27.7452 110.653H30.0474L29.9158 112.429ZM33.7965 117.954H32.4153L32.8099 116.046H34.1912L33.7965 117.954ZM34.3227 115.191H32.9415L33.3361 113.284H34.7174L34.3227 115.191ZM20.9704 110.653L21.4308 112.429H19.2602L18.6025 110.653H20.9704Z" fill="#3A4388"/>
<path d="M23.7341 126.505C25.0419 126.505 26.102 125.444 26.102 124.137C26.102 122.829 25.0419 121.769 23.7341 121.769C22.4264 121.769 21.3662 122.829 21.3662 124.137C21.3662 125.444 22.4264 126.505 23.7341 126.505Z" fill="#33EEAC"/>
<path d="M23.7336 126.965C22.2208 126.965 20.9053 125.715 20.9053 124.136C20.9053 122.623 22.155 121.308 23.7336 121.308C25.2464 121.308 26.5619 122.558 26.5619 124.136C26.5619 125.715 25.3122 126.965 23.7336 126.965ZM23.7336 122.163C22.6812 122.163 21.7603 123.018 21.7603 124.136C21.7603 125.189 22.6154 126.11 23.7336 126.11C24.786 126.11 25.7068 125.255 25.7068 124.136C25.7068 123.084 24.8518 122.163 23.7336 122.163Z" fill="#3A4388"/>
<path d="M33.6645 124.137C33.6645 122.821 32.6121 121.769 31.2966 121.769C29.9811 121.769 28.9287 122.821 28.9287 124.137C28.9287 125.452 29.9811 126.505 31.2966 126.505C32.5463 126.505 33.6645 125.452 33.6645 124.137Z" fill="#33EEAC"/>
<path d="M31.2317 126.965C29.7188 126.965 28.4033 125.715 28.4033 124.136C28.4033 122.623 29.653 121.308 31.2317 121.308C32.7445 121.308 34.06 122.558 34.06 124.136C34.06 125.715 32.8103 126.965 31.2317 126.965ZM31.2317 122.163C30.1793 122.163 29.2584 123.018 29.2584 124.136C29.2584 125.189 30.1135 126.11 31.2317 126.11C32.2841 126.11 33.2049 125.255 33.2049 124.136C33.2049 123.084 32.3498 122.163 31.2317 122.163Z" fill="#3A4388"/>
<path d="M23.7326 122.426C22.8118 122.426 22.0225 123.216 22.0225 124.137C22.0225 125.057 22.8118 125.847 23.7326 125.847C24.6535 125.847 25.4428 125.057 25.4428 124.137C25.4428 123.216 24.7192 122.426 23.7326 122.426Z" fill="#3A4388"/>
<path d="M23.7327 126.241C22.5488 126.241 21.6279 125.32 21.6279 124.136C21.6279 122.952 22.5488 122.032 23.7327 122.032C24.9167 122.032 25.8375 122.952 25.8375 124.136C25.8375 125.32 24.9167 126.241 23.7327 126.241ZM23.7327 122.887C23.0092 122.887 22.483 123.479 22.483 124.136C22.483 124.86 23.075 125.386 23.7327 125.386C24.4563 125.386 24.9825 124.794 24.9825 124.136C25.0482 123.413 24.4563 122.887 23.7327 122.887Z" fill="#33EEAC"/>
<path d="M32.9428 124.137C32.9428 123.216 32.1535 122.426 31.2326 122.426C30.3118 122.426 29.5225 123.216 29.5225 124.137C29.5225 125.057 30.3118 125.847 31.2326 125.847C32.1535 125.847 32.9428 125.057 32.9428 124.137Z" fill="#3A4388"/>
<path d="M31.2327 126.241C30.0488 126.241 29.1279 125.32 29.1279 124.136C29.1279 122.952 30.0488 122.032 31.2327 122.032C32.4167 122.032 33.3375 122.952 33.3375 124.136C33.3375 125.32 32.4167 126.241 31.2327 126.241ZM31.2327 122.887C30.5092 122.887 29.983 123.479 29.983 124.136C29.983 124.86 30.575 125.386 31.2327 125.386C31.9563 125.386 32.4825 124.794 32.4825 124.136C32.5482 123.413 31.9563 122.887 31.2327 122.887Z" fill="#33EEAC"/>
<path d="M161.969 116.541C165.81 99.719 155.287 82.9683 138.465 79.1273C121.643 75.2863 104.892 85.8095 101.051 102.632C97.2104 119.454 107.734 136.204 124.556 140.045C141.378 143.886 158.128 133.363 161.969 116.541Z" fill="#33EEAC"/>
<path d="M149.891 110.456H143.314C142.459 110.456 141.801 109.798 141.801 108.943V105.325C141.801 104.47 142.459 103.812 143.314 103.812H148.905C149.562 103.812 150.22 104.273 150.352 104.93L151.338 108.548C151.601 109.469 150.878 110.456 149.891 110.456Z" fill="#7FC7FD"/>
<path d="M144.826 113.284H142.721V114.139H144.826V113.284Z" fill="#FEDD18"/>
<path d="M156.731 118.612H155.679V115.06H156.731C157.389 115.06 157.849 115.586 157.849 116.178V117.428C157.915 118.085 157.389 118.612 156.731 118.612Z" fill="#3A4388"/>
<path d="M155.088 110.718L154.167 110.192L152.457 104.272C152.062 102.957 151.076 102.102 150.023 102.102H140.025V110.258V114.27H111.019V122.624H140.025H146.471H151.799H154.233C155.417 122.624 156.338 121.44 156.338 119.927V113.218C156.403 112.1 155.877 111.113 155.088 110.718Z" fill="#3A4388"/>
<path d="M143.312 111.179C142.062 111.179 141.01 110.127 141.01 108.877V105.325C141.01 104.076 142.062 103.023 143.312 103.023H148.903C149.955 103.023 150.81 103.681 151.073 104.668L152.06 108.285C152.257 109.009 152.126 109.732 151.665 110.258C151.205 110.85 150.547 111.179 149.824 111.179H143.312Z" fill="#33EEAC"/>
<path d="M140.814 118.151C138.38 118.151 136.473 120.124 136.473 122.492C136.473 124.926 138.446 126.833 140.814 126.833C143.182 126.899 145.089 124.992 145.155 122.492C145.221 120.124 143.182 118.151 140.814 118.151ZM140.814 124.531C139.761 124.531 138.841 123.676 138.841 122.558C138.841 121.506 139.696 120.585 140.814 120.585C141.866 120.585 142.787 121.44 142.787 122.558C142.721 123.61 141.866 124.531 140.814 124.531Z" fill="#3A4388"/>
<path d="M140.812 120.585C139.76 120.585 138.839 121.44 138.839 122.558C138.839 123.611 139.694 124.532 140.812 124.532C141.865 124.532 142.785 123.676 142.785 122.558C142.72 121.44 141.865 120.585 140.812 120.585Z" fill="#33EEAC"/>
<path d="M140.025 95.2617H111.019V114.139H140.025V95.2617Z" fill="#3A4388"/>
<path d="M140.814 118.151C143.248 118.151 145.287 120.125 145.155 122.492H146.931C146.931 119.072 144.169 116.31 140.748 116.31C137.328 116.31 134.565 119.072 134.565 122.492H136.341C136.407 120.125 138.38 118.151 140.814 118.151Z" fill="#3A4388"/>
<path d="M120.29 118.151C117.857 118.151 115.949 120.124 115.949 122.492C115.949 124.926 117.922 126.833 120.29 126.833C122.658 126.899 124.566 124.992 124.632 122.492C124.697 120.124 122.658 118.151 120.29 118.151ZM120.29 124.531C119.238 124.531 118.317 123.676 118.317 122.558C118.317 121.506 119.172 120.585 120.29 120.585C121.343 120.585 122.264 121.44 122.264 122.558C122.198 123.61 121.343 124.531 120.29 124.531Z" fill="#3A4388"/>
<path d="M120.292 120.585C119.239 120.585 118.318 121.44 118.318 122.558C118.318 123.611 119.173 124.532 120.292 124.532C121.344 124.532 122.265 123.677 122.265 122.558C122.199 121.44 121.344 120.585 120.292 120.585Z" fill="#33EEAC"/>
<path d="M120.291 118.151C122.724 118.151 124.763 120.124 124.632 122.492H126.408C126.408 119.072 123.645 116.31 120.225 116.31C116.805 116.31 114.042 119.072 114.042 122.492H115.818C115.884 120.124 117.857 118.151 120.291 118.151Z" fill="#3A4388"/>
<g opacity="0.31">
<path d="M115.36 95.2617H111.019V114.139H115.36V95.2617Z" fill="#3A4388"/>
</g>
<g opacity="0.31">
<path d="M123.58 95.2614H119.239V114.139H123.58V95.2614Z" fill="#3A4388"/>
</g>
<g opacity="0.31">
<path d="M131.803 95.2614H127.462V114.139H131.803V95.2614Z" fill="#3A4388"/>
</g>
<g opacity="0.31">
<path d="M140.024 95.2614H135.683V114.139H140.024V95.2614Z" fill="#3A4388"/>
</g>
<path d="M140.024 112.692H111.018V114.205H140.024V112.692Z" fill="#33EEAC"/>
<path d="M102.6 66.386C102.6 67.1095 102.008 67.7015 101.284 67.7015C100.561 67.7015 99.9688 67.1095 99.9688 66.386C99.9688 65.6624 100.561 65.0705 101.284 65.0705C101.942 65.0705 102.6 65.6624 102.6 66.386Z" fill="#3A4388"/>
<path d="M101.219 68.1619C100.233 68.1619 99.4434 67.3726 99.4434 66.386C99.4434 65.3993 100.233 64.61 101.219 64.61C102.206 64.61 102.995 65.3993 102.995 66.386C102.995 67.3726 102.206 68.1619 101.219 68.1619ZM101.219 65.4651C100.693 65.4651 100.298 65.8598 100.298 66.386C100.298 66.9122 100.693 67.3068 101.219 67.3068C101.745 67.3068 102.14 66.9122 102.14 66.386C102.14 65.8598 101.745 65.4651 101.219 65.4651Z" fill="#3A4388"/>
<path d="M96.4826 69.0171C96.4826 69.7406 95.8906 70.3326 95.1671 70.3326C94.4435 70.3326 93.8516 69.7406 93.8516 69.0171C93.8516 68.2935 94.4435 67.7016 95.1671 67.7016C95.8906 67.7016 96.4826 68.2935 96.4826 69.0171Z" fill="#3A4388"/>
<path d="M95.1666 70.7929C94.1799 70.7929 93.3906 70.0036 93.3906 69.017C93.3906 68.0304 94.1799 67.2411 95.1666 67.2411C96.1532 67.2411 96.9425 68.0304 96.9425 69.017C96.9425 70.0036 96.1532 70.7929 95.1666 70.7929ZM95.1666 68.0962C94.6404 68.0962 94.2457 68.4908 94.2457 69.017C94.2457 69.5432 94.6404 69.9379 95.1666 69.9379C95.6928 69.9379 96.0874 69.5432 96.0874 69.017C96.0874 68.4908 95.6928 68.0962 95.1666 68.0962Z" fill="#3A4388"/>
<path d="M90.4318 71.6482C90.4318 72.3717 89.8398 72.9637 89.1163 72.9637C88.3928 72.9637 87.8008 72.3717 87.8008 71.6482C87.8008 70.9246 88.3928 70.3327 89.1163 70.3327C89.8398 70.2669 90.4318 70.9246 90.4318 71.6482Z" fill="#3A4388"/>
<path d="M89.1158 73.4239C88.1291 73.4239 87.3398 72.6346 87.3398 71.648C87.3398 70.6613 88.1291 69.872 89.1158 69.872C90.1024 69.872 90.8917 70.6613 90.8917 71.648C90.8917 72.6346 90.1024 73.4239 89.1158 73.4239ZM89.1158 70.7271C88.5896 70.7271 88.1949 71.1218 88.1949 71.648C88.1949 72.1742 88.5896 72.5688 89.1158 72.5688C89.642 72.5688 90.0366 72.1742 90.0366 71.648C90.0366 71.1218 89.642 70.7271 89.1158 70.7271Z" fill="#3A4388"/>
<path d="M84.3791 74.2793C84.3791 75.0028 83.7871 75.5948 83.0635 75.5948C82.34 75.5948 81.748 75.0028 81.748 74.2793C81.748 73.5558 82.34 72.9638 83.0635 72.9638C83.7871 72.898 84.3791 73.5558 84.3791 74.2793Z" fill="#3A4388"/>
<path d="M83.063 76.055C82.0764 76.055 81.2871 75.2657 81.2871 74.2791C81.2871 73.2924 82.0764 72.5031 83.063 72.5031C84.0497 72.5031 84.839 73.2924 84.839 74.2791C84.839 75.2657 84.0497 76.055 83.063 76.055ZM83.063 73.3582C82.5368 73.3582 82.1422 73.7529 82.1422 74.2791C82.1422 74.8053 82.5368 75.1999 83.063 75.1999C83.5892 75.1999 83.9839 74.8053 83.9839 74.2791C83.9839 73.7529 83.5235 73.3582 83.063 73.3582Z" fill="#3A4388"/>
</svg>
