<svg width="95" height="95" viewBox="0 0 95 95" fill="none" xmlns="http://www.w3.org/2000/svg">
<path d="M23.6703 23.324H28.4363L36.3973 40.9768C36.7435 41.7223 37.4624 42.2016 38.2877 42.2016H61.4254C62.2241 42.2016 62.9696 41.7489 63.2892 41.0034L69.5994 27.5309C69.8923 26.8919 69.8657 26.1464 69.4663 25.534C69.0935 24.9482 68.4279 24.5754 67.709 24.5754H33.5218L31.6314 20.3686C31.2852 19.6231 30.5663 19.1438 29.7409 19.1438H23.6437C22.4988 19.1438 21.5669 20.0757 21.5669 21.2206C21.5935 22.3921 22.4988 23.324 23.6703 23.324ZM61.7715 28.729H64.4607L61.7715 34.4801V28.729ZM54.8755 28.729H58.7628V38.048H54.8755V28.729ZM47.9528 28.729H51.8402V38.048H47.9528V28.729ZM41.0568 28.729H44.9441V38.048H41.0568V28.729ZM38.0481 28.729V34.56L35.4122 28.729H38.0481Z" fill="#33EEAC"/>
<path d="M57.8839 44.3316C56.2597 44.3316 54.8752 45.3167 54.2894 46.7279H45.5296C44.9439 45.3167 43.5593 44.3316 41.9352 44.3316C39.7785 44.3316 38.0479 46.0623 38.0479 48.2189C38.0479 50.3756 39.7785 52.1063 41.9352 52.1063C43.5593 52.1063 44.9439 51.1211 45.5296 49.71H54.2894C54.8752 51.1211 56.2597 52.1063 57.8839 52.1063C60.0406 52.1063 61.7712 50.3756 61.7712 48.2189C61.7712 46.0889 60.0139 44.3316 57.8839 44.3316Z" fill="#33EEAC"/>
<path d="M95 12.8868C95 5.77775 89.2222 0 82.1132 0H12.8868C5.77775 0 0 5.77775 0 12.8868V61.1855C0 68.2946 5.77775 74.0723 12.8868 74.0723H82.1132C89.2222 74.0723 95 68.2946 95 61.1855V12.8868ZM88.3702 57.1385H6.65639V13.8719H88.3702V57.1385Z" fill="#33EEAC"/>
<path d="M67.6821 88.9028H64.913C62.0641 88.9028 59.7743 86.5864 59.7743 83.7641V77.3473H35.3054V83.7641C35.3054 86.613 32.989 88.9028 30.1667 88.9028H27.371C26.1995 88.9028 25.2676 89.8347 25.2676 91.0062V92.0446C25.2676 93.2162 26.1995 94.1481 27.371 94.1481H67.7087C68.8802 94.1481 69.8121 93.2162 69.8121 92.0446V91.0062C69.7855 89.8613 68.8536 88.9028 67.6821 88.9028Z" fill="#33EEAC"/>
</svg>
