<svg width="166" height="144" viewBox="0 0 166 144" fill="none" xmlns="http://www.w3.org/2000/svg">
<path d="M64.1071 122.64C64.1071 122.64 64.0423 122.64 64.1071 122.64C62.1625 122.575 60.2828 122.381 58.4678 122.121C57.8844 122.056 57.4307 121.473 57.5603 120.89C57.6252 120.306 58.2085 119.853 58.7919 119.982C60.542 120.242 62.357 120.436 64.172 120.501C64.7553 120.501 65.2739 121.019 65.2091 121.668C65.2091 122.186 64.6905 122.64 64.1071 122.64ZM69.6168 122.64C69.0335 122.64 68.5149 122.186 68.5149 121.603C68.5149 121.019 68.9686 120.501 69.552 120.436C71.367 120.371 73.1819 120.177 74.9321 119.853C75.5154 119.788 76.0988 120.177 76.2285 120.76C76.2933 121.343 75.9044 121.927 75.321 122.056C73.4412 122.316 71.5614 122.51 69.6168 122.64C69.6817 122.64 69.6817 122.64 69.6168 122.64ZM53.1526 121.019C53.0878 121.019 52.9581 121.019 52.8933 120.955C51.0784 120.501 49.2634 119.917 47.5133 119.269C46.9299 119.075 46.6706 118.427 46.8651 117.843C47.0595 117.26 47.7077 117.001 48.2911 117.195C49.9764 117.843 51.7265 118.362 53.4767 118.815C54.0601 118.945 54.449 119.593 54.2545 120.177C54.1249 120.695 53.6711 121.019 53.1526 121.019ZM80.5714 120.955C80.0528 120.955 79.5991 120.63 79.4695 120.112C79.3398 119.528 79.6639 118.945 80.2473 118.751C81.9974 118.297 83.7476 117.778 85.4329 117.13C86.0163 116.936 86.6645 117.195 86.8589 117.778C87.0534 118.362 86.7941 119.01 86.2107 119.204C84.4606 119.853 82.6456 120.436 80.8307 120.89C80.7659 120.89 80.6362 120.955 80.5714 120.955ZM42.7814 117.26C42.5869 117.26 42.4573 117.195 42.3277 117.13C40.6423 116.287 38.957 115.38 37.4014 114.408C36.8828 114.084 36.6883 113.435 37.0124 112.852C37.3365 112.333 37.9847 112.139 38.5681 112.463C40.1238 113.435 41.6795 114.278 43.3 115.056C43.8185 115.315 44.0778 115.963 43.8185 116.547C43.5592 117.001 43.1703 117.26 42.7814 117.26ZM90.9426 117.065C90.5537 117.065 90.1647 116.871 89.9703 116.417C89.711 115.899 89.9055 115.186 90.4888 114.926C92.1093 114.148 93.665 113.241 95.2207 112.269C95.7393 111.945 96.4523 112.074 96.7764 112.593C97.1005 113.111 96.9708 113.824 96.4523 114.148C94.8966 115.121 93.2113 116.093 91.526 116.936C91.2667 117.001 91.0722 117.065 90.9426 117.065ZM33.3825 111.426C33.1232 111.426 32.9288 111.361 32.7343 111.167C31.2435 110 29.8174 108.768 28.4562 107.537C28.0025 107.148 28.0025 106.435 28.3914 105.981C28.7803 105.527 29.4933 105.527 29.9471 105.916C31.2435 107.148 32.6695 108.315 34.0955 109.417C34.5493 109.806 34.6789 110.454 34.29 110.972C34.0307 111.296 33.7066 111.426 33.3825 111.426ZM100.277 111.167C99.9526 111.167 99.6284 111.037 99.3692 110.713C98.9802 110.259 99.1099 109.546 99.5636 109.157C100.99 108.055 102.351 106.889 103.647 105.592C104.101 105.138 104.814 105.203 105.203 105.657C105.657 106.111 105.592 106.824 105.138 107.213C103.777 108.509 102.351 109.741 100.86 110.907C100.73 111.102 100.536 111.167 100.277 111.167ZM25.3449 103.842C25.0208 103.842 24.6967 103.712 24.5022 103.453C23.2706 102.027 22.1039 100.536 21.0019 98.9806C20.6778 98.462 20.7426 97.8138 21.2612 97.4249C21.7798 97.1008 22.428 97.1656 22.8169 97.6842C23.854 99.175 24.9559 100.601 26.1875 101.962C26.5764 102.416 26.5116 103.129 26.0579 103.518C25.8634 103.777 25.6041 103.842 25.3449 103.842ZM108.249 103.518C107.99 103.518 107.731 103.453 107.536 103.259C107.083 102.87 107.018 102.157 107.407 101.703C108.574 100.342 109.676 98.9158 110.713 97.4249C111.037 96.9064 111.75 96.7767 112.268 97.1656C112.787 97.4897 112.917 98.2028 112.528 98.7213C111.49 100.277 110.324 101.768 109.092 103.194C108.898 103.388 108.574 103.518 108.249 103.518ZM18.9277 94.8321C18.5388 94.8321 18.1498 94.6376 17.9554 94.2487C17.0479 92.6282 16.2053 90.9429 15.4274 89.1928C15.1681 88.6094 15.4274 87.9612 16.0108 87.7667C16.5942 87.5075 17.2424 87.7667 17.4368 88.3501C18.1498 89.9706 18.9925 91.6559 19.8352 93.2116C20.1593 93.7302 19.9648 94.4432 19.4462 94.7025C19.3166 94.7673 19.1221 94.8321 18.9277 94.8321ZM114.602 94.4432C114.407 94.4432 114.213 94.3784 114.083 94.3136C113.565 93.9895 113.37 93.3413 113.63 92.8227C114.472 91.267 115.315 89.5817 116.028 87.9612C116.287 87.3778 116.935 87.1186 117.454 87.3778C118.037 87.6371 118.297 88.2853 118.037 88.8039C117.324 90.554 116.482 92.2393 115.574 93.8598C115.38 94.2487 114.991 94.4432 114.602 94.4432ZM14.5199 84.7202C14.0662 84.7202 13.6125 84.3961 13.4828 83.9424C12.8994 82.1274 12.4457 80.3125 12.0568 78.4975C11.9271 77.9141 12.3161 77.3307 12.8994 77.2011C13.4828 77.0715 14.0662 77.4604 14.1958 78.0438C14.5847 79.7939 15.0385 81.544 15.557 83.2942C15.7515 83.8776 15.4274 84.5257 14.844 84.6554C14.7144 84.6554 14.6496 84.7202 14.5199 84.7202ZM118.945 84.3313C118.815 84.3313 118.75 84.3313 118.621 84.2665C118.037 84.072 117.713 83.4886 117.908 82.9053C118.426 81.1551 118.88 79.405 119.269 77.6548C119.399 77.0715 119.982 76.6825 120.565 76.8122C121.149 76.9418 121.538 77.5252 121.408 78.1086C121.019 79.9235 120.565 81.8033 119.982 83.5535C119.852 84.0072 119.399 84.3313 118.945 84.3313ZM12.2512 73.8953C11.6679 73.8953 11.2141 73.5064 11.1493 72.923C10.9548 71.0432 10.8252 69.1634 10.8252 67.2837C10.8252 66.7003 11.3438 66.1817 11.9271 66.1817C12.5105 66.1817 13.0291 66.7003 13.0291 67.2837C13.0291 69.0986 13.1587 70.9136 13.3532 72.7285C13.418 73.3119 12.9643 73.8953 12.3809 73.9601C12.3161 73.8953 12.2512 73.8953 12.2512 73.8953ZM121.149 73.5064C121.084 73.5064 121.084 73.5064 121.019 73.5064C120.436 73.4415 119.982 72.923 120.047 72.2748C120.241 70.4598 120.306 68.6449 120.306 66.8299C120.306 66.5706 120.306 66.3114 120.306 66.0521C120.306 65.4687 120.76 64.9501 121.408 64.9501C121.991 64.9501 122.51 65.4039 122.51 66.0521C122.51 66.3114 122.51 66.6355 122.51 66.8947C122.51 68.7745 122.445 70.6543 122.251 72.5341C122.186 73.0526 121.732 73.5064 121.149 73.5064ZM12.1216 62.8111C12.0568 62.8111 12.0568 62.8111 11.992 62.8111C11.4086 62.7463 10.9548 62.2277 11.0197 61.5795C11.2141 59.6997 11.4734 57.82 11.7975 56.005C11.9271 55.4216 12.5105 55.0327 13.0939 55.1623C13.6773 55.292 14.0662 55.8754 13.9366 56.4587C13.6125 58.2089 13.3532 60.0238 13.1587 61.8388C13.2235 62.4222 12.705 62.8111 12.1216 62.8111ZM121.084 61.5795C120.5 61.5795 120.047 61.1906 119.982 60.6072C119.787 58.7923 119.463 57.0421 119.074 55.292C118.945 54.7086 119.334 54.1252 119.917 53.9956C120.5 53.8659 121.084 54.2549 121.213 54.8382C121.602 56.6532 121.926 58.533 122.121 60.4128C122.186 60.9961 121.732 61.5795 121.149 61.6443C121.149 61.5795 121.084 61.5795 121.084 61.5795ZM14.2607 51.9862C14.131 51.9862 14.0662 51.9862 13.9366 51.9213C13.3532 51.7269 13.0291 51.1435 13.2235 50.5601C13.7421 48.7452 14.3903 46.995 15.1681 45.2449C15.4274 44.6615 16.0756 44.4022 16.5942 44.6615C17.1776 44.9208 17.4368 45.569 17.1775 46.0875C16.4645 47.7729 15.8811 49.4582 15.3626 51.2083C15.1681 51.6621 14.7792 51.9862 14.2607 51.9862ZM118.686 50.8194C118.232 50.8194 117.778 50.4953 117.648 50.0416C117.065 48.3563 116.417 46.6061 115.704 44.9856C115.445 44.4022 115.704 43.754 116.287 43.4948C116.871 43.2355 117.519 43.4948 117.778 44.0781C118.556 45.7635 119.204 47.5784 119.787 49.3285C119.982 49.9119 119.658 50.5601 119.074 50.7546C118.945 50.8194 118.815 50.8194 118.686 50.8194ZM18.5388 41.8094C18.3443 41.8094 18.1498 41.7446 18.0202 41.6798C17.5016 41.3557 17.3072 40.7075 17.5665 40.1889C18.4739 38.5684 19.4462 36.9479 20.4834 35.3923C20.8075 34.8737 21.5205 34.7441 22.039 35.133C22.5576 35.4571 22.6872 36.1701 22.2983 36.6887C21.2612 38.1795 20.3537 39.7352 19.4462 41.2909C19.3166 41.5502 18.9277 41.8094 18.5388 41.8094ZM114.213 40.7075C113.824 40.7075 113.435 40.513 113.241 40.1241C112.333 38.5684 111.361 37.0128 110.324 35.5867C109.935 35.0682 110.064 34.42 110.583 34.0311C111.102 33.6421 111.75 33.7718 112.139 34.2903C113.241 35.846 114.278 37.4017 115.185 39.0222C115.509 39.5407 115.315 40.2538 114.796 40.513C114.537 40.6427 114.343 40.7075 114.213 40.7075ZM24.7615 32.6698C24.5022 32.6698 24.2429 32.605 24.0485 32.4106C23.5947 32.0216 23.5299 31.3086 23.9188 30.8549C25.1504 29.4288 26.4468 28.0028 27.7432 26.7064C28.1969 26.2527 28.9099 26.3175 29.2989 26.7064C29.7526 27.1601 29.6878 27.8732 29.2989 28.2621C28.0025 29.4937 26.7709 30.8549 25.6041 32.2161C25.4097 32.5402 25.0856 32.6698 24.7615 32.6698ZM107.731 31.7624C107.407 31.7624 107.148 31.6327 106.888 31.3734C105.722 30.0122 104.425 28.7158 103.129 27.4842C102.675 27.0953 102.675 26.3823 103.064 25.9286C103.453 25.4748 104.166 25.4748 104.62 25.8637C105.981 27.1601 107.342 28.5214 108.574 29.8826C108.963 30.3363 108.963 31.0493 108.444 31.4383C108.249 31.6327 107.99 31.7624 107.731 31.7624ZM32.7343 24.9563C32.4102 24.9563 32.0861 24.8266 31.8917 24.5673C31.5027 24.1136 31.5676 23.4006 32.0861 23.0117C33.577 21.8449 35.1327 20.743 36.6883 19.7059C37.2069 19.3818 37.9199 19.5114 38.244 20.03C38.5681 20.5485 38.4385 21.2615 37.9199 21.5856C36.4291 22.5579 34.9382 23.5951 33.5122 24.7618C33.1881 24.8914 32.9936 24.9563 32.7343 24.9563ZM99.6285 24.2432C99.3692 24.2432 99.1747 24.1784 98.9803 24.0488C97.5542 22.9468 95.9985 21.9097 94.5077 21.0023C93.9891 20.6782 93.7947 20.03 94.1188 19.5114C94.4429 18.9928 95.0911 18.7984 95.6096 19.1225C97.2301 20.0948 98.7858 21.1319 100.277 22.2987C100.795 22.6876 100.86 23.3358 100.471 23.8543C100.277 24.0488 99.9526 24.2432 99.6285 24.2432ZM42.0684 18.9928C41.6795 18.9928 41.2905 18.7984 41.0961 18.4095C40.8368 17.8909 41.0313 17.1779 41.6146 16.9186C43.3 16.0759 45.0501 15.2981 46.8002 14.6499C47.3836 14.4554 48.0318 14.7147 48.2263 15.2981C48.4207 15.8815 48.1614 16.5297 47.5781 16.7241C45.8928 17.3723 44.2074 18.0854 42.5869 18.928C42.3925 18.9928 42.198 18.9928 42.0684 18.9928ZM90.1647 18.4743C90.0351 18.4743 89.8406 18.4095 89.711 18.3446C88.0905 17.5668 86.4052 16.8538 84.7199 16.2704C84.1365 16.0759 83.8124 15.4277 84.0717 14.8444C84.2661 14.261 84.9143 13.9369 85.4977 14.1962C87.2478 14.8444 88.998 15.5574 90.6833 16.3352C91.2667 16.5945 91.4612 17.2427 91.2019 17.8261C91.0074 18.2798 90.6185 18.4743 90.1647 18.4743ZM52.3747 15.1036C51.8562 15.1036 51.4673 14.7795 51.3376 14.261C51.208 13.6776 51.5321 13.0294 52.1155 12.8998C53.9304 12.3812 55.8102 11.9923 57.6252 11.733C58.2085 11.6682 58.7919 12.0571 58.9216 12.6405C59.0512 13.2239 58.5975 13.8073 58.0141 13.9369C56.2639 14.1962 54.449 14.5851 52.6988 15.1036C52.5692 15.0388 52.5044 15.1036 52.3747 15.1036ZM79.7936 14.7795C79.7287 14.7795 79.5991 14.7795 79.5343 14.7147C77.7841 14.261 75.9692 13.9369 74.2191 13.6776C73.6357 13.6128 73.1819 13.0294 73.2467 12.446C73.3116 11.8627 73.8949 11.4089 74.4783 11.4737C76.3581 11.733 78.2379 12.1219 80.0528 12.5108C80.6362 12.6405 81.0251 13.2239 80.8955 13.8721C80.701 14.4554 80.2473 14.7795 79.7936 14.7795ZM63.2645 13.2887C62.6811 13.2887 62.2274 12.8349 62.1625 12.2516C62.0977 11.6682 62.6163 11.0848 63.1997 11.0848C65.0794 10.9552 66.9592 10.9552 68.839 11.02C69.4224 11.02 69.9409 11.5386 69.8761 12.1867C69.8761 12.7701 69.2927 13.2887 68.7094 13.2239C66.8944 13.159 65.0794 13.1591 63.2645 13.2887C63.3293 13.2887 63.3293 13.2887 63.2645 13.2887Z" fill="#33EEAC"/>
<path d="M44.985 22.4928C44.985 34.9382 34.9379 44.9853 22.4925 44.9853C10.0471 44.9853 0 34.9382 0 22.4928C0 10.0474 10.0471 0.000309903 22.4925 0.000309903C34.9379 -0.06451 44.985 10.0474 44.985 22.4928Z" fill="#33EEAC"/>
<path d="M41.6138 111.296C41.6138 121.603 33.2521 129.899 23.0105 129.899C12.7042 129.899 4.40723 121.538 4.40723 111.296C4.40723 100.99 12.769 92.6928 23.0105 92.6928C33.2521 92.6928 41.6138 101.055 41.6138 111.296Z" fill="#33EEAC"/>
<path d="M34.2894 107.861C33.9653 107.472 33.5116 107.277 33.0578 107.277H17.3714L16.1398 103.842C15.8806 103.129 15.1675 102.61 14.3897 102.61H7.51881C7.25953 102.61 7.12988 102.805 7.12988 102.999C7.12988 103.258 7.32435 103.388 7.51881 103.388H7.90772H14.3897C14.7786 103.388 15.1676 103.647 15.2972 104.036L19.1864 114.926L20.029 117.195C20.2883 117.843 20.8717 118.232 21.5199 118.232H23.0108H31.4373C32.2152 118.232 32.8634 117.713 32.993 116.935L34.3542 110.324C34.4191 110.259 34.4191 110.194 34.4191 110.129C34.4191 110.129 34.4191 110.129 34.4191 110.065L34.6135 109.027C34.7432 108.768 34.6135 108.25 34.2894 107.861ZM31.4373 117.519H30.7243L30.9836 116.158H32.3448L32.2152 116.935C32.1504 117.26 31.8263 117.519 31.4373 117.519ZM20.8069 117.065L20.4828 116.158H22.1033L22.4922 117.519H21.5199C21.1958 117.519 20.9365 117.324 20.8069 117.065ZM33.6412 108.379C33.7709 108.574 33.8357 108.768 33.7709 109.027L33.5764 109.87H32.2152L32.5393 108.12H32.993C33.2523 108.12 33.5116 108.25 33.6412 108.379ZM28.8445 117.519L28.9742 116.158H30.2058L29.9465 117.519H28.8445ZM27.1592 117.519L27.0944 116.158H28.1315L28.0019 117.519H27.1592ZM25.2795 117.519L25.0202 116.158H26.1869L26.2518 117.519H25.2795ZM23.3349 117.519L22.9459 116.158H24.1775L24.4368 117.519H23.3349ZM22.7515 108.12L23.0756 109.87H21.2606L20.8069 108.12H22.7515ZM25.7332 108.12L25.8628 109.87H23.9182L23.5941 108.12H25.7332ZM31.7614 108.12L31.4373 109.87H29.5576L29.752 108.12H31.7614ZM28.4556 112.592H26.8351L26.7055 110.713H28.5853L28.4556 112.592ZM25.9925 112.592H24.372L24.0479 110.713H25.8628L25.9925 112.592ZM24.5664 113.435H26.0573L26.1869 115.315H24.9554L24.5664 113.435ZM26.9 113.435H28.3908L28.1963 115.315H27.0296L26.9 113.435ZM29.2983 112.592L29.4927 110.713H31.2429L30.854 112.592H29.2983ZM23.27 110.713L23.5941 112.592H22.0385L21.5199 110.713H23.27ZM21.131 112.592H19.1864L18.5382 110.713H20.6124L21.131 112.592ZM20.1587 115.315L19.5105 113.435H21.3903L21.9088 115.315H20.1587ZM22.2329 113.435H23.7238L24.0479 115.315H22.7515L22.2329 113.435ZM29.039 115.315L29.2335 113.435H30.7243L30.3354 115.315H29.039ZM28.7149 109.87H26.7055L26.5758 108.12H28.8445L28.7149 109.87ZM32.5393 115.315H31.1781L31.567 113.435H32.9282L32.5393 115.315ZM33.0578 112.592H31.6966L32.0855 110.713H33.4468L33.0578 112.592ZM19.8994 108.12L20.3531 109.87H18.2141L17.5659 108.12H19.8994Z" fill="#3A4388"/>
<path d="M22.6226 123.742C23.9113 123.742 24.9561 122.697 24.9561 121.408C24.9561 120.119 23.9113 119.074 22.6226 119.074C21.3338 119.074 20.2891 120.119 20.2891 121.408C20.2891 122.697 21.3338 123.742 22.6226 123.742Z" fill="#33EEAC"/>
<path d="M22.6222 124.195C21.1314 124.195 19.835 122.963 19.835 121.408C19.835 119.917 21.0665 118.62 22.6222 118.62C24.1131 118.62 25.4095 119.852 25.4095 121.408C25.4095 122.963 24.1779 124.195 22.6222 124.195ZM22.6222 119.463C21.5851 119.463 20.6776 120.306 20.6776 121.408C20.6776 122.445 21.5203 123.352 22.6222 123.352C23.6593 123.352 24.5668 122.51 24.5668 121.408C24.5668 120.371 23.7241 119.463 22.6222 119.463Z" fill="#3A4388"/>
<path d="M32.4092 121.408C32.4092 120.112 31.3721 119.074 30.0757 119.074C28.7793 119.074 27.7422 120.112 27.7422 121.408C27.7422 122.704 28.7793 123.742 30.0757 123.742C31.3073 123.742 32.4092 122.704 32.4092 121.408Z" fill="#33EEAC"/>
<path d="M30.0109 124.195C28.52 124.195 27.2236 122.963 27.2236 121.408C27.2236 119.917 28.4552 118.62 30.0109 118.62C31.5017 118.62 32.7981 119.852 32.7981 121.408C32.7981 122.963 31.5666 124.195 30.0109 124.195ZM30.0109 119.463C28.9738 119.463 28.0663 120.306 28.0663 121.408C28.0663 122.445 28.909 123.352 30.0109 123.352C31.048 123.352 31.9555 122.51 31.9555 121.408C31.9555 120.371 31.1128 119.463 30.0109 119.463Z" fill="#3A4388"/>
<path d="M22.6218 119.723C21.7144 119.723 20.9365 120.501 20.9365 121.408C20.9365 122.316 21.7144 123.093 22.6218 123.093C23.5293 123.093 24.3072 122.316 24.3072 121.408C24.3072 120.501 23.5941 119.723 22.6218 119.723Z" fill="#3A4388"/>
<path d="M22.6221 123.482C21.4553 123.482 20.5479 122.575 20.5479 121.408C20.5479 120.241 21.4553 119.334 22.6221 119.334C23.7888 119.334 24.6963 120.241 24.6963 121.408C24.6963 122.575 23.7888 123.482 22.6221 123.482ZM22.6221 120.176C21.9091 120.176 21.3905 120.76 21.3905 121.408C21.3905 122.121 21.9739 122.639 22.6221 122.639C23.3351 122.639 23.8537 122.056 23.8537 121.408C23.9185 120.695 23.3351 120.176 22.6221 120.176Z" fill="#33EEAC"/>
<path d="M31.6968 121.408C31.6968 120.501 30.919 119.723 30.0115 119.723C29.104 119.723 28.3262 120.501 28.3262 121.408C28.3262 122.316 29.104 123.093 30.0115 123.093C30.919 123.093 31.6968 122.316 31.6968 121.408Z" fill="#3A4388"/>
<path d="M30.0117 123.482C28.845 123.482 27.9375 122.575 27.9375 121.408C27.9375 120.241 28.845 119.334 30.0117 119.334C31.1785 119.334 32.086 120.241 32.086 121.408C32.086 122.575 31.1785 123.482 30.0117 123.482ZM30.0117 120.176C29.2987 120.176 28.7802 120.76 28.7802 121.408C28.7802 122.121 29.3635 122.639 30.0117 122.639C30.7248 122.639 31.2433 122.056 31.2433 121.408C31.3081 120.695 30.7248 120.176 30.0117 120.176Z" fill="#33EEAC"/>
<path d="M158.85 113.923C162.635 97.345 152.265 80.8376 135.687 77.0524C119.109 73.2672 102.602 83.6376 98.8166 100.215C95.0314 116.793 105.402 133.3 121.98 137.086C138.557 140.871 155.065 130.5 158.85 113.923Z" fill="#33EEAC"/>
<path d="M137.223 110.129H108.638V111.62H137.223V110.129Z" fill="#33EEAC"/>
<path d="M89.824 82.9869H86.9582V60.4044C86.8293 60.4044 86.686 60.4188 86.557 60.4188H86.2274C83.7772 60.4188 81.5849 59.2868 80.1376 57.5386C78.6904 59.3011 76.4981 60.4188 74.0478 60.4188H73.7183C71.268 60.4188 69.0757 59.2868 67.6285 57.5386C66.1813 59.3011 63.9889 60.4188 61.5387 60.4188H61.2091C58.7588 60.4188 56.5665 59.2868 55.1193 57.5386C53.6721 59.3011 51.4797 60.4188 49.0295 60.4188H48.6999C48.5566 60.4188 48.4276 60.4188 48.2987 60.4044V82.9869H45.4329C44.6448 82.9869 44 83.6317 44 84.4198V89.4349C44 89.8361 44.3152 90.1513 44.7164 90.1513H90.5691C90.9703 90.1513 91.2856 89.8361 91.2856 89.4349V84.4198C91.2856 83.6317 90.6408 82.9869 89.8527 82.9869H89.824ZM66.8977 80.8375C66.8977 81.2387 66.5825 81.554 66.1812 81.554H53.2852C52.884 81.554 52.5687 81.2387 52.5687 80.8375V66.5086C52.5687 66.1074 52.884 65.7921 53.2852 65.7921H66.1812C66.5825 65.7921 66.8977 66.1074 66.8977 66.5086V80.8375ZM82.6595 85.1362C82.6595 85.5374 82.3443 85.8527 81.9431 85.8527H73.3457C72.9445 85.8527 72.6293 85.5374 72.6293 85.1362V66.5086C72.6293 66.1074 72.9445 65.7921 73.3457 65.7921H81.9431C82.3443 65.7921 82.6595 66.1074 82.6595 66.5086V85.1362Z" fill="#33EEAC"/>
<path d="M78.3604 74.7477H76.9275C75.9388 74.7477 75.1363 75.5501 75.1363 76.5388C75.1363 77.5275 75.9388 78.33 76.9275 78.33H78.3604C79.3491 78.33 80.1515 77.5275 80.1515 76.5388C80.1515 75.5501 79.3491 74.7477 78.3604 74.7477ZM90.8409 50.3885V47.4224C90.8409 46.9209 90.7119 46.4337 90.4683 46.0038L87.8748 41.4472C87.359 40.5588 86.4132 40 85.3815 40H49.8314C48.7997 40 47.854 40.5588 47.3382 41.4472L44.7446 46.0038C44.501 46.4337 44.3721 46.9209 44.3721 47.4224V51.5635V52.5378C44.3721 54.9021 46.3065 56.8365 48.6708 56.8365H49.0003C51.3646 56.8365 53.299 54.9021 53.299 52.5378V50.0303C53.299 49.0416 54.1014 48.2392 55.0901 48.2392C56.0788 48.2392 56.8813 49.0416 56.8813 50.0303V52.5378C56.8813 54.9021 58.8157 56.8365 61.18 56.8365H61.5095C63.8738 56.8365 65.8082 54.9021 65.8082 52.5378V50.3885H65.7795V50.0303C65.7795 49.0416 66.582 48.2392 67.5707 48.2392C68.5594 48.2392 69.3618 49.0416 69.3618 50.0303V51.5635H69.3904V52.5378C69.3904 54.9021 71.3248 56.8365 73.6891 56.8365H74.0187C76.383 56.8365 78.3174 54.9021 78.3174 52.5378V50.0303C78.3174 49.0416 79.1198 48.2392 80.1085 48.2392C81.0972 48.2392 81.8996 49.0416 81.8996 50.0303V52.5378C81.8996 54.9021 83.834 56.8365 86.1983 56.8365H86.5279C88.8922 56.8365 90.8266 54.9021 90.8266 52.5378V50.3885H90.8409Z" fill="#33EEAC"/>
<path d="M143.442 118.805H141.789V105.774C141.714 105.774 141.631 105.782 141.557 105.782H141.367C139.953 105.782 138.688 105.129 137.853 104.12C137.018 105.137 135.753 105.782 134.339 105.782H134.149C132.735 105.782 131.47 105.129 130.635 104.12C129.799 105.137 128.534 105.782 127.12 105.782H126.93C125.516 105.782 124.251 105.129 123.416 104.12C122.581 105.137 121.316 105.782 119.902 105.782H119.712C119.629 105.782 119.555 105.782 119.481 105.774V118.805H117.827C117.372 118.805 117 119.177 117 119.632V122.526C117 122.757 117.182 122.939 117.413 122.939H143.872C144.104 122.939 144.286 122.757 144.286 122.526V119.632C144.286 119.177 143.913 118.805 143.459 118.805H143.442ZM130.213 117.565C130.213 117.796 130.031 117.978 129.799 117.978H122.358C122.126 117.978 121.944 117.796 121.944 117.565V109.296C121.944 109.065 122.126 108.883 122.358 108.883H129.799C130.031 108.883 130.213 109.065 130.213 109.296V117.565ZM139.308 120.045C139.308 120.277 139.126 120.459 138.895 120.459H133.934C133.702 120.459 133.52 120.277 133.52 120.045V109.296C133.52 109.065 133.702 108.883 133.934 108.883H138.895C139.126 108.883 139.308 109.065 139.308 109.296V120.045Z" fill="#3A4388"/>
<path d="M136.827 114.051H136.001C135.43 114.051 134.967 114.514 134.967 115.084C134.967 115.655 135.43 116.118 136.001 116.118H136.827C137.398 116.118 137.861 115.655 137.861 115.084C137.861 114.514 137.398 114.051 136.827 114.051ZM144.029 99.9946V98.283C144.029 97.9936 143.955 97.7125 143.814 97.4644L142.318 94.8351C142.02 94.3225 141.474 94 140.879 94H120.365C119.77 94 119.224 94.3225 118.926 94.8351L117.43 97.4644C117.289 97.7125 117.215 97.9936 117.215 98.283V100.673V101.235C117.215 102.599 118.331 103.715 119.695 103.715H119.886C121.25 103.715 122.366 102.599 122.366 101.235V99.7878C122.366 99.2173 122.829 98.7543 123.4 98.7543C123.97 98.7543 124.433 99.2173 124.433 99.7878V101.235C124.433 102.599 125.549 103.715 126.914 103.715H127.104C128.468 103.715 129.584 102.599 129.584 101.235V99.9946H129.568V99.7878C129.568 99.2173 130.031 98.7543 130.601 98.7543C131.172 98.7543 131.635 99.2173 131.635 99.7878V100.673H131.651V101.235C131.651 102.599 132.768 103.715 134.132 103.715H134.322C135.686 103.715 136.803 102.599 136.803 101.235V99.7878C136.803 99.2173 137.266 98.7543 137.836 98.7543C138.407 98.7543 138.87 99.2173 138.87 99.7878V101.235C138.87 102.599 139.986 103.715 141.35 103.715H141.54C142.905 103.715 144.021 102.599 144.021 101.235V99.9946H144.029Z" fill="#3A4388"/>
<path d="M17.0654 16.9914H18.0853L19.789 20.7692C19.8631 20.9287 20.0169 21.0313 20.1936 21.0313H25.1451C25.316 21.0313 25.4756 20.9344 25.5439 20.7749L26.8944 17.8917C26.957 17.7549 26.9513 17.5954 26.8659 17.4643C26.7861 17.339 26.6436 17.2592 26.4898 17.2592H19.1736L18.7691 16.3589C18.695 16.1994 18.5411 16.0968 18.3645 16.0968H17.0597C16.8147 16.0968 16.6152 16.2963 16.6152 16.5413C16.6209 16.792 16.8147 16.9914 17.0654 16.9914ZM25.2192 18.1481H25.7946L25.2192 19.3789V18.1481ZM23.7434 18.1481H24.5753V20.1424H23.7434V18.1481ZM22.2619 18.1481H23.0938V20.1424H22.2619V18.1481ZM20.7861 18.1481H21.618V20.1424H20.7861V18.1481ZM20.1423 18.1481V19.396L19.5782 18.1481H20.1423Z" fill="#3A4388"/>
<path d="M24.3876 21.4871C24.04 21.4871 23.7437 21.6979 23.6183 21.9999H21.7437C21.6184 21.6979 21.3221 21.4871 20.9745 21.4871C20.5129 21.4871 20.1426 21.8575 20.1426 22.319C20.1426 22.7805 20.5129 23.1509 20.9745 23.1509C21.3221 23.1509 21.6184 22.9401 21.7437 22.6381H23.6183C23.7437 22.9401 24.04 23.1509 24.3876 23.1509C24.8491 23.1509 25.2195 22.7805 25.2195 22.319C25.2195 21.8632 24.8434 21.4871 24.3876 21.4871Z" fill="#3A4388"/>
<path d="M32.3303 14.7578C32.3303 13.2365 31.0939 12 29.5725 12H14.7578C13.2365 12 12 13.2365 12 14.7578V25.0939C12 26.6153 13.2365 27.8517 14.7578 27.8517H29.5725C31.0939 27.8517 32.3303 26.6153 32.3303 25.0939V14.7578ZM30.9115 24.2278H13.4245V14.9686H30.9115V24.2278Z" fill="#3A4388"/>
<path d="M26.4841 31.0255H25.8915C25.2818 31.0255 24.7918 30.5298 24.7918 29.9258V28.5526H19.5554V29.9258C19.5554 30.5355 19.0596 31.0255 18.4557 31.0255H17.8574C17.6067 31.0255 17.4072 31.225 17.4072 31.4757V31.6979C17.4072 31.9486 17.6067 32.148 17.8574 32.148H26.4898C26.7405 32.148 26.9399 31.9486 26.9399 31.6979V31.4757C26.9342 31.2307 26.7348 31.0255 26.4841 31.0255Z" fill="#3A4388"/>
</svg>
