<svg width="30" height="31" viewBox="0 0 30 31" fill="none" xmlns="http://www.w3.org/2000/svg">
<path d="M29.5312 15.5C29.5312 23.5254 23.0254 30.0312 15 30.0312C6.97459 30.0312 0.46875 23.5254 0.46875 15.5C0.46875 7.47459 6.97459 0.96875 15 0.96875C23.0254 0.96875 29.5312 7.47459 29.5312 15.5ZM13.3192 23.1942L24.1004 12.4129C24.4665 12.0468 24.4665 11.4532 24.1004 11.0871L22.7746 9.76133C22.4085 9.39518 21.8149 9.39518 21.4488 9.76133L12.6562 18.5538L8.55123 14.4488C8.18514 14.0827 7.59152 14.0827 7.22537 14.4488L5.89957 15.7746C5.53348 16.1407 5.53348 16.7343 5.89957 17.1004L11.9933 23.1941C12.3595 23.5603 12.953 23.5603 13.3192 23.1942Z" fill="#33EEAC"/>
</svg>
