<svg width="41" height="41" viewBox="0 0 41 41" fill="none" xmlns="http://www.w3.org/2000/svg">
<path d="M39.7186 10.7838V29.9711C39.7186 35.5132 35.2542 40.0007 29.7535 40.0007H10.6837C5.18301 40.0007 0.718597 35.5132 0.718597 29.9711V10.7838C0.718597 5.24166 5.18301 0.75415 10.6837 0.75415L29.7535 0.75415C35.2542 0.75415 39.7186 5.24166 39.7186 10.7838Z" stroke="white"/>
<path d="M26.4291 12.7932C26.1585 12.7932 25.894 12.874 25.669 13.0252C25.444 13.1765 25.2686 13.3915 25.165 13.6431C25.0615 13.8946 25.0344 14.1714 25.0872 14.4385C25.14 14.7055 25.2703 14.9508 25.4616 15.1433C25.653 15.3359 25.8968 15.467 26.1622 15.5201C26.4276 15.5732 26.7027 15.546 26.9527 15.4418C27.2027 15.3376 27.4164 15.1611 27.5668 14.9347C27.7171 14.7083 27.7973 14.4422 27.7973 14.1699C27.7973 13.8048 27.6532 13.4546 27.3966 13.1964C27.14 12.9383 26.792 12.7932 26.4291 12.7932Z" fill="white"/>
<path d="M20.3147 14.6102C19.173 14.6102 18.0568 14.9509 17.1075 15.5891C16.1581 16.2274 15.4182 17.1346 14.9813 18.1959C14.5443 19.2573 14.43 20.4252 14.6528 21.5519C14.8755 22.6786 15.4253 23.7136 16.2327 24.526C17.04 25.3383 18.0687 25.8915 19.1885 26.1156C20.3083 26.3397 21.4691 26.2247 22.5239 25.7851C23.5788 25.3455 24.4804 24.601 25.1148 23.6458C25.7491 22.6906 26.0877 21.5675 26.0877 20.4187C26.0877 18.8782 25.4794 17.4008 24.3968 16.3115C23.3142 15.2222 21.8458 14.6102 20.3147 14.6102ZM20.3147 24.1488C19.5815 24.1488 18.8648 23.9301 18.2551 23.5202C17.6455 23.1103 17.1703 22.5278 16.8897 21.8462C16.6091 21.1646 16.5357 20.4146 16.6787 19.691C16.8218 18.9675 17.1749 18.3028 17.6933 17.7811C18.2118 17.2595 18.8724 16.9042 19.5915 16.7603C20.3106 16.6164 21.056 16.6902 21.7335 16.9726C22.4109 17.2549 22.9899 17.733 23.3972 18.3464C23.8046 18.9598 24.022 19.681 24.022 20.4187C24.0112 21.4008 23.6158 22.339 22.9218 23.0297C22.2277 23.7203 21.2909 24.1076 20.3147 24.1075V24.1488Z" fill="white"/>
<path d="M24.8557 32.1732H15.4987C13.6326 32.1732 11.8427 31.4282 10.5218 30.1018C9.201 28.7754 8.45715 26.976 8.45352 25.0984V15.6699C8.45714 13.791 9.20056 11.9901 10.521 10.6615C11.8414 9.33293 13.6313 8.58494 15.4987 8.5813H24.8557C26.7231 8.58494 28.513 9.33293 29.8334 10.6615C31.1539 11.9901 31.8973 13.791 31.9009 15.6699V25.0984C31.8972 26.976 31.1534 28.7754 29.8326 30.1018C28.5117 31.4282 26.7218 32.1732 24.8557 32.1732ZM15.4987 10.7973C14.2154 10.801 12.9858 11.3155 12.0784 12.2285C11.171 13.1415 10.6596 14.3787 10.656 15.6699V25.0984C10.6596 26.3882 11.1714 27.6241 12.0792 28.5349C12.987 29.4457 14.2167 29.9571 15.4987 29.9571H24.8557C26.1377 29.9571 27.3674 29.4457 28.2752 28.5349C29.183 27.6241 29.6948 26.3882 29.6984 25.0984V15.6699C29.6948 14.3787 29.1834 13.1415 28.276 12.2285C27.3686 11.3155 26.139 10.801 24.8557 10.7973H15.4987Z" fill="white"/>
</svg>
