<svg width="112" height="39" viewBox="0 0 112 39" fill="none" xmlns="http://www.w3.org/2000/svg">
<path d="M42.4243 29.9091C42.4243 35.7 37.3431 38.1667 31.8546 38.1667C26.7734 38.1667 22.9115 36.2529 20.9293 32.1744L27.5355 28.4483C28.1959 30.3613 29.6193 31.4193 31.8546 31.4193C33.6844 31.4193 34.5988 30.8656 34.5988 29.8588C34.5988 27.0892 22.0987 28.5499 22.0987 19.8384C22.0987 14.3504 26.7734 11.5808 32.0587 11.5808C36.1746 11.5808 39.8333 13.3931 41.9679 16.9681L35.4634 20.4425C34.7522 19.1336 33.7352 18.2266 32.0587 18.2266C30.7378 18.2266 29.9241 18.73 29.9241 19.6361C29.9241 22.5064 42.4243 20.5926 42.4243 29.9082V29.9091Z" fill="white"/>
<path d="M75.2323 0.833374H82.5858V37.6011H75.2323V0.833374Z" fill="white"/>
<path d="M99.9404 31.4195C101.992 31.4195 103.743 30.6141 104.744 29.5058L110.748 32.98C108.296 36.4039 104.594 38.1667 99.8403 38.1667C91.2842 38.1667 85.9798 32.376 85.9798 24.8737C85.9798 17.3715 91.3843 11.5808 99.2901 11.5808C106.596 11.5808 112 17.2708 112 24.8737C112 25.9309 111.9 26.9385 111.7 27.8949H93.9365C94.8869 30.5134 97.189 31.4195 99.9413 31.4195H99.9404ZM104.544 22.2552C103.743 19.3347 101.491 18.2776 99.24 18.2776C96.3877 18.2776 94.4867 19.6871 93.7855 22.2552H104.544Z" fill="white"/>
<path d="M0.26223 32.808L9.06962 23.9165C10.6066 22.3857 11.7301 20.8921 11.7301 19.3977C11.7301 17.7943 10.6803 16.7009 8.91939 16.7009C7.15845 16.7009 5.77085 17.8669 5.05882 19.4703L0 16.5911C1.68627 12.801 5.20905 11.0153 8.84472 11.0153C13.5293 11.0153 17.7268 14.0033 17.7268 19.1418C17.7268 22.2033 16.0405 24.8266 13.6413 27.1595L9.29362 31.4233H18.101V37.0355H0.26223V32.808Z" fill="#33EEAC"/>
<path d="M63.8638 12.5265V14.2713C61.8502 12.9291 59.432 12.1465 56.831 12.1465C49.812 12.1465 44.1212 17.8442 44.1212 24.8738C44.1212 31.9033 49.8111 37.601 56.831 37.601C58.5569 37.601 60.2023 37.2557 61.7029 36.6319C61.7012 36.6588 61.9993 36.533 62.144 36.4384C62.7435 36.1616 63.318 35.8397 63.863 35.4762V37.2609H71.2727V12.5265H63.863H63.8638ZM57.6974 30.8656C54.392 30.8656 51.7129 28.1829 51.7129 24.8729C51.7129 21.5629 54.392 18.8802 57.6974 18.8802C61.0029 18.8802 63.6819 21.5629 63.6819 24.8729C63.6819 28.1829 61.0029 30.8656 57.6974 30.8656Z" fill="white"/>
</svg>
